<svg width="17" height="17" viewBox="0 0 17 17" fill="none" xmlns="http://www.w3.org/2000/svg">
<rect width="16.11" height="16.11" rx="2.148" fill="#D60000"/>
<path d="M13.0841 10.5648V12.0805C13.0846 12.2212 13.0558 12.3605 12.9993 12.4894C12.9428 12.6184 12.86 12.7341 12.7561 12.8292C12.6522 12.9244 12.5295 12.9968 12.3959 13.0419C12.2624 13.0869 12.1209 13.1037 11.9804 13.091C10.4226 12.9221 8.9262 12.3908 7.61146 11.5399C6.38826 10.7642 5.35121 9.72917 4.57393 8.50839C3.71835 7.19029 3.18591 5.68959 3.01973 4.12786C3.00708 3.98815 3.02372 3.84733 3.06859 3.71438C3.11345 3.58143 3.18557 3.45926 3.28034 3.35565C3.3751 3.25204 3.49045 3.16926 3.61903 3.11257C3.74761 3.05589 3.88661 3.02655 4.02718 3.02642H5.54594C5.79163 3.024 6.02982 3.11083 6.2161 3.27072C6.40239 3.43061 6.52407 3.65265 6.55845 3.89545C6.62255 4.38052 6.74144 4.8568 6.91283 5.3152C6.98094 5.49605 6.99568 5.69258 6.95531 5.88153C6.91493 6.07048 6.82113 6.24391 6.68501 6.38128L6.04207 7.02295C6.76275 8.28787 7.81217 9.33521 9.0796 10.0545L9.72254 9.41279C9.86019 9.27695 10.034 9.18333 10.2233 9.14303C10.4126 9.10274 10.6095 9.11745 10.7907 9.18543C11.25 9.35648 11.7273 9.47513 12.2133 9.5391C12.4592 9.57373 12.6838 9.69735 12.8444 9.88646C13.0049 10.0756 13.0902 10.317 13.0841 10.5648Z" fill="white"/>
</svg>
