<svg width="100" height="52" viewBox="0 0 100 52" fill="none" xmlns="http://www.w3.org/2000/svg">
<path fill-rule="evenodd" clip-rule="evenodd" d="M47.5198 21.1099C47.9275 20.5275 48.7427 20.2364 50.0239 20.2364H64.4952L64.8155 15.17C59.7491 14.7041 53.518 14.7041 47.8692 14.7041C46.4425 14.7041 45.1613 14.9079 44.084 15.3156C44.2296 15.4029 44.346 15.4903 44.4916 15.5776C46.2095 16.8297 47.1704 18.6058 47.5198 21.1099Z" fill="white"/>
<path fill-rule="evenodd" clip-rule="evenodd" d="M64.4946 38.1433H50.0233C48.1016 38.1433 47.2281 37.5318 47.2281 36.1342V31.0969H62.4564V26.147H47.6066C47.2863 28.9422 46.3546 30.864 44.6075 32.1742C43.4428 33.0478 41.9579 33.601 40.0361 33.9504V37.7065C40.0653 41.317 43.1226 43.6464 47.8395 43.6464C53.4883 43.6464 59.7194 43.6464 64.8149 43.1805L64.4946 38.1433Z" fill="white"/>
<path fill-rule="evenodd" clip-rule="evenodd" d="M33.6305 14.4131C28.6806 14.4131 25.798 14.4422 22.7407 14.6169C23.4104 14.879 24.0219 15.1993 24.546 15.5778C25.9436 16.5678 26.8462 17.9072 27.3121 19.6833L33.485 19.6542C38.0855 19.6542 39.5122 20.5277 39.5122 23.9053C39.5122 27.2829 38.0855 28.1564 33.485 28.1564H27.3121C26.8462 29.9326 25.9727 31.2428 24.6624 32.2328C23.4395 33.1355 21.8672 33.7178 19.8872 34.0381V43.5594H26.9918V32.9608C29.2921 33.2519 31.8835 33.4266 34.5623 33.4266C43.5013 33.4266 46.7042 31.3884 46.7042 23.9344C46.7333 16.4804 43.5304 14.4131 33.6305 14.4131Z" fill="white"/>
<path fill-rule="evenodd" clip-rule="evenodd" d="M13.7435 14.4131C7.3086 14.4131 4.33865 14.4422 0.0292969 14.8207V43.5012H7.1339V32.9025C9.43416 33.1937 12.0256 33.3684 14.7044 33.3684C23.6434 33.3684 26.8463 31.3302 26.8463 23.8762C26.8463 16.4804 23.6434 14.4131 13.7435 14.4131ZM7.1339 28.1273V19.6833L13.627 19.6542C18.2276 19.6542 19.6543 20.5277 19.6543 23.9053C19.6543 27.2829 18.2276 28.1564 13.627 28.1564H7.1339V28.1273Z" fill="white"/>
<path fill-rule="evenodd" clip-rule="evenodd" d="M0.815283 49.4119V50.7513H0V46.9078H1.31027C2.27114 46.9078 2.73702 47.3155 2.73702 48.1308C2.73702 48.5093 2.59143 48.8296 2.30026 49.0625C2.00909 49.2955 1.65968 49.4119 1.22292 49.4119H0.815283ZM0.815283 47.5484V48.7713H1.16469C1.63056 48.7713 1.89262 48.5675 1.89262 48.1308C1.89262 47.7231 1.65968 47.5193 1.19381 47.5193H0.815283V47.5484ZM5.59051 50.7513H3.31936V46.9078H5.50316V47.5775H4.13465V48.4802H5.38669V49.1499H4.13465V50.0816H5.59051V50.7513ZM9.37575 50.7513H8.44399L7.83253 49.7613C7.71606 49.5575 7.5996 49.4119 7.54136 49.3537C7.45401 49.2955 7.36666 49.2663 7.2793 49.2663H7.04637V50.7513H6.23109V46.9078H7.57048C8.47311 46.9078 8.93899 47.2573 8.93899 47.9561C8.93899 48.2181 8.85164 48.4511 8.70605 48.6258C8.56046 48.8005 8.35664 48.946 8.06547 49.0334C8.24018 49.0916 8.444 49.2955 8.64782 49.6157L9.37575 50.7513ZM7.04637 47.5484V48.6549H7.45401C7.65783 48.6549 7.80342 48.5966 7.91989 48.4802C8.03635 48.3637 8.09459 48.2181 8.09459 48.0725C8.09459 47.7231 7.89077 47.5484 7.48313 47.5484H7.04637ZM9.57957 49.7905C9.89986 50.0525 10.2493 50.169 10.6278 50.169C10.8607 50.169 11.0063 50.1399 11.1228 50.0525C11.2392 49.9652 11.2975 49.8778 11.2975 49.7613C11.2975 49.6449 11.2392 49.5575 11.1519 49.4702C11.0645 49.3828 10.8316 49.2663 10.4531 49.0916C9.84162 48.8296 9.55045 48.4802 9.55045 47.9852C9.55045 47.6358 9.69604 47.3446 9.95809 47.1699C10.2201 46.9661 10.5987 46.8787 11.0354 46.8787C11.414 46.8787 11.7342 46.937 11.9672 47.0243V47.7814C11.7051 47.6067 11.414 47.5193 11.0645 47.5193C10.8607 47.5193 10.7151 47.5484 10.5696 47.6358C10.4531 47.7231 10.3948 47.8105 10.3948 47.927C10.3948 48.0143 10.424 48.1308 10.5113 48.189C10.5987 48.2764 10.8025 48.3928 11.1228 48.5384C11.5013 48.7131 11.7634 48.8878 11.9089 49.0625C12.0545 49.2372 12.1128 49.4702 12.1128 49.7031C12.1128 50.0816 11.9963 50.3437 11.7342 50.5475C11.4722 50.7513 11.0937 50.8387 10.6278 50.8387C10.191 50.8387 9.84162 50.7804 9.55045 50.6348V49.7905H9.57957ZM12.5786 48.8878C12.5786 48.2764 12.7533 47.8105 13.1027 47.432C13.4522 47.0534 13.918 46.8787 14.5004 46.8787C15.0536 46.8787 15.4904 47.0534 15.8107 47.432C16.1309 47.8105 16.3056 48.2764 16.3056 48.8296C16.3056 49.4119 16.1309 49.9069 15.7815 50.2854C15.4321 50.664 14.9663 50.8387 14.413 50.8387C13.8598 50.8387 13.423 50.664 13.0736 50.2854C12.7242 49.9069 12.5786 49.441 12.5786 48.8878ZM13.423 48.8296C13.423 49.2081 13.5104 49.4993 13.6851 49.7322C13.8598 49.9652 14.1219 50.0816 14.413 50.0816C14.7333 50.0816 14.9954 49.9652 15.1701 49.7322C15.3448 49.4993 15.4321 49.2081 15.4321 48.8296C15.4321 48.4219 15.3448 48.1017 15.1701 47.8978C14.9954 47.6649 14.7624 47.5484 14.4421 47.5484C14.1219 47.5484 13.8598 47.6649 13.6851 47.8978C13.5104 48.1599 13.423 48.4511 13.423 48.8296ZM20.3529 50.7513H19.5085L17.878 48.2764C17.7906 48.1599 17.7324 48.0434 17.7033 47.9561C17.7324 48.1017 17.7324 48.3055 17.7324 48.5675V50.7513H16.9462V46.9078H17.8489L19.4212 49.3246C19.5377 49.4993 19.5959 49.5866 19.625 49.6157C19.5959 49.5284 19.5959 49.3537 19.5959 49.0916V46.9078H20.3821V50.7513H20.3529ZM24.5749 50.7513H23.6723L23.3811 49.8778H21.9835L21.6923 50.7513H20.8188L22.2164 46.9078H23.1773L24.5749 50.7513ZM23.2064 49.2372L22.7697 47.8978C22.7406 47.8105 22.7114 47.694 22.7114 47.5775H22.6823C22.6823 47.694 22.6532 47.8105 22.6241 47.8978L22.1873 49.2372H23.2064ZM27.312 50.7513H25.0699V46.9078H25.8852V50.0816H27.312V50.7513ZM30.1363 49.4119V50.7513H29.321V46.9078H30.6313C31.5922 46.9078 32.0581 47.3155 32.0581 48.1308C32.0581 48.5093 31.9125 48.8296 31.6213 49.0625C31.3301 49.2955 30.9807 49.4119 30.544 49.4119H30.1363ZM30.1363 47.5484V48.7713H30.4857C30.9516 48.7713 31.2137 48.5675 31.2137 48.1308C31.2137 47.7231 30.9807 47.5193 30.5148 47.5193H30.1363V47.5484ZM35.8142 50.7513H34.8824L34.271 49.7613C34.1545 49.5575 34.038 49.4119 33.9798 49.3537C33.8924 49.2955 33.8051 49.2663 33.7177 49.2663H33.4848V50.7513H32.6695V46.9078H34.0089C34.9115 46.9078 35.3774 47.2573 35.3774 47.9561C35.3774 48.2181 35.2901 48.4511 35.1445 48.6258C34.9989 48.8005 34.7951 48.946 34.5039 49.0334C34.6786 49.0916 34.8824 49.2955 35.0863 49.6157L35.8142 50.7513ZM33.4848 47.5484V48.6549H33.8924C34.0963 48.6549 34.2419 48.5966 34.3583 48.4802C34.4748 48.3637 34.533 48.2181 34.533 48.0725C34.533 47.7231 34.3292 47.5484 33.9216 47.5484H33.4848ZM35.9015 48.8878C35.9015 48.2764 36.0762 47.8105 36.4256 47.432C36.7751 47.0534 37.2409 46.8787 37.8233 46.8787C38.3765 46.8787 38.8133 47.0534 39.1335 47.432C39.4538 47.8105 39.6285 48.2764 39.6285 48.8296C39.6285 49.4119 39.4538 49.9069 39.1044 50.2854C38.755 50.664 38.2891 50.8387 37.7359 50.8387C37.1827 50.8387 36.7459 50.664 36.3965 50.2854C36.0762 49.9069 35.9015 49.441 35.9015 48.8878ZM36.7459 48.8296C36.7459 49.2081 36.8333 49.4993 37.008 49.7322C37.1827 49.9652 37.4447 50.0816 37.7359 50.0816C38.0562 50.0816 38.3183 49.9652 38.493 49.7322C38.6677 49.4993 38.755 49.2081 38.755 48.8296C38.755 48.4219 38.6677 48.1017 38.493 47.8978C38.3183 47.6649 38.0853 47.5484 37.765 47.5484C37.4447 47.5484 37.1827 47.6649 37.008 47.8978C36.8624 48.1599 36.7459 48.4511 36.7459 48.8296ZM42.715 47.5775H41.6085V50.7513H40.7932V47.5775H39.7159V46.9078H42.715V47.5775ZM45.5102 50.7513H43.2391V46.9078H45.4229V47.5775H44.0544V48.4802H45.3064V49.1499H44.0544V50.0816H45.5102V50.7513ZM48.8587 50.6057C48.5675 50.7513 48.2181 50.8096 47.7814 50.8096C47.199 50.8096 46.7331 50.6348 46.4128 50.2854C46.0634 49.936 45.9179 49.4702 45.9179 48.9169C45.9179 48.3055 46.0926 47.8105 46.5002 47.432C46.8787 47.0534 47.3737 46.8496 47.9561 46.8496C48.3346 46.8496 48.6549 46.9078 48.8878 46.9952V47.7814C48.6258 47.6358 48.3346 47.5484 48.0143 47.5484C47.6358 47.5484 47.3446 47.6649 47.1117 47.8978C46.8787 48.1308 46.7623 48.4511 46.7623 48.8296C46.7623 49.2081 46.8787 49.4993 47.0826 49.7322C47.2864 49.9652 47.5775 50.0816 47.9561 50.0816C48.3055 50.0816 48.5966 49.9943 48.8878 49.8487V50.6057H48.8587ZM52.1781 47.5775H51.0716V50.7513H50.2563V47.5775H49.179V46.9078H52.1781V47.5775ZM53.5174 46.9078V50.7513H52.7022V46.9078H53.5174ZM57.5647 46.9078L56.2254 50.7513H55.2936L53.9833 46.9078H54.8568L55.6721 49.6157C55.7012 49.7613 55.7304 49.8778 55.7595 49.9943H55.7886C55.7886 49.8778 55.8177 49.7322 55.8759 49.6157L56.6912 46.9078H57.5647ZM60.3018 50.7513H58.0306V46.9078H60.2144V47.5775H58.8459V48.4802H60.0979V49.1499H58.8459V50.0816H60.3018V50.7513ZM64.6985 50.7513H62.4273V46.9078H64.6111V47.5775H63.2426V48.4802H64.4946V49.1499H63.2426V50.0816H64.6985V50.7513ZM65.077 48.8878C65.077 48.2764 65.2517 47.8105 65.6011 47.432C65.9505 47.0534 66.4164 46.8787 66.9987 46.8787C67.552 46.8787 67.9887 47.0534 68.309 47.432C68.6293 47.8105 68.804 48.2764 68.804 48.8296C68.804 49.4119 68.6293 49.9069 68.2799 50.2854C68.2508 50.3146 68.2508 50.3437 68.2216 50.3437L69.1825 51.2754H67.9596L67.4646 50.7513C67.2899 50.8096 67.1152 50.8096 66.9114 50.8096C66.3581 50.8096 65.9214 50.6349 65.572 50.2563C65.2517 49.9069 65.077 49.441 65.077 48.8878ZM65.9505 48.8296C65.9505 49.2081 66.0379 49.4993 66.2126 49.7322C66.3873 49.9652 66.6493 50.0816 66.9405 50.0816C67.2608 50.0816 67.5228 49.9652 67.6975 49.7322C67.8722 49.4993 67.9596 49.2081 67.9596 48.8296C67.9596 48.4219 67.8722 48.1017 67.6975 47.8978C67.5228 47.6649 67.2899 47.5484 66.9696 47.5484C66.6493 47.5484 66.3873 47.6649 66.2126 47.8978C66.0379 48.1599 65.9505 48.4511 65.9505 48.8296ZM72.5601 49.0916C72.5601 50.2272 72.036 50.8096 70.9587 50.8096C69.9396 50.8096 69.4155 50.2563 69.4155 49.1499V46.9078H70.2307V49.1499C70.2307 49.7905 70.4928 50.1107 70.9878 50.1107C71.4828 50.1107 71.7157 49.7904 71.7157 49.179V46.9078H72.531V49.0916H72.5601ZM74.2198 46.9078V50.7513H73.4045V46.9078H74.2198ZM75.9086 49.4119V50.7513H75.0933V46.9078H76.4036C77.3645 46.9078 77.8303 47.3155 77.8303 48.1308C77.8303 48.5093 77.6847 48.8296 77.3936 49.0625C77.1024 49.2955 76.753 49.4119 76.3162 49.4119H75.9086ZM75.9086 47.5484V48.7713H76.258C76.7239 48.7713 76.9859 48.5675 76.9859 48.1308C76.9859 47.7231 76.753 47.5193 76.2871 47.5193H75.9086V47.5484ZM81.9359 50.7513V48.4219C81.9359 48.2181 81.9359 47.9269 81.965 47.6067H81.9359C81.8776 47.8396 81.8485 48.0143 81.8194 48.1017L80.8876 50.7513H80.2471L79.2862 48.1308C79.2571 48.0725 79.228 47.8978 79.1697 47.6067H79.1406C79.1697 47.9269 79.1697 48.2472 79.1697 48.5675V50.7222H78.4418V46.8787H79.6356L80.4509 49.179C80.5091 49.3828 80.5673 49.5575 80.5965 49.7322H80.6256C80.6838 49.5284 80.7421 49.3537 80.7712 49.179L81.5864 46.8787H82.7511V50.7222H81.9359V50.7513ZM85.8958 50.7513H83.6246V46.9078H85.8084V47.5775H84.4399V48.4802H85.692V49.1499H84.4399V50.0816H85.8958V50.7513ZM89.9431 50.7513H89.0987L87.4681 48.2764C87.3808 48.1599 87.3225 48.0434 87.2934 47.9561C87.3225 48.1017 87.3225 48.3055 87.3225 48.5675V50.7513H86.5364V46.9078H87.439L89.0113 49.3246C89.1278 49.4993 89.186 49.5866 89.2152 49.6157C89.186 49.5284 89.186 49.3537 89.186 49.0916V46.9078H89.9722V50.7513H89.9431ZM93.4663 47.5775H92.3598V50.7513H91.5445V47.5775H90.4672V46.9078H93.4663V47.5775Z" fill="white"/>
<path fill-rule="evenodd" clip-rule="evenodd" d="M99.0572 15.6942L94.3402 22.857C94.3111 22.8861 94.3111 22.9153 94.282 22.9444C91.5158 27.1664 90.4385 32.2619 91.1955 37.2409L91.6905 40.4147C91.7779 40.9388 91.8652 41.492 91.9235 42.0162C92.0399 42.7441 92.5641 43.21 93.1755 43.6467C87.2647 43.6467 80.3639 43.6467 74.4531 43.6467C75.0064 43.2391 75.5305 42.7732 75.6469 42.0162L75.7634 40.4147L76.1419 34.6204C76.1711 34.0671 76.2002 33.5139 76.2002 32.9898C76.2002 31.9998 76.1419 30.9807 76.0255 29.9907C75.8799 28.8843 75.2975 27.8943 74.3658 27.2537C73.6961 26.817 73.1429 26.1764 72.7643 25.4485C71.5997 23.2647 69.8526 21.372 67.7271 20.0326L67.4068 19.8288C66.1547 19.0427 65.8053 17.3539 66.6497 16.1018L66.6788 16.0436C67.5524 14.7624 69.2994 14.5004 70.5223 15.4612C71.6288 16.3348 72.9682 17.4121 74.1037 18.2856C74.1911 18.373 74.3076 18.4312 74.3949 18.4603C75.414 18.8971 76.2002 17.9653 76.1128 17.0045L74.6278 4.51317C74.6278 4.42582 74.5987 4.33847 74.5987 4.222C74.5987 3.05731 75.414 2.03821 76.5787 1.80527C78.0054 1.80527 79.3739 2.96996 79.5778 4.3967L80.8589 12.7533C80.9172 13.0445 81.3248 13.0154 81.3539 12.7242L81.9363 2.50408C82.0236 1.10645 83.1883 0 84.5859 0C84.6151 0 84.6442 0 84.7024 0C86.1874 0.0582344 87.323 1.31027 87.2356 2.79525L86.7115 12.2583C86.6824 12.7825 87.4103 12.928 87.585 12.4331L89.7106 6.20197C90.1764 4.83346 91.7197 4.19288 93.0299 4.77522C94.1655 5.29933 94.6896 6.60961 94.3111 7.80341L91.6323 15.9271C91.4576 16.5095 92.1855 16.9171 92.5932 16.4512L95.534 13.0445C96.3202 12.1419 97.6596 11.9963 98.5913 12.7242C99.494 13.4813 99.6978 14.7624 99.0572 15.6942Z" fill="white"/>
<path fill-rule="evenodd" clip-rule="evenodd" d="M83.5088 22.1583C81.1212 19.3339 76.5207 19.6542 74.3369 18.4604C75.3851 18.8389 75.9675 17.9363 75.9966 17.4995C76.841 17.9945 78.1513 18.1983 79.8983 19.0718C83.7709 21.0227 83.5088 22.1583 83.5088 22.1583Z" fill="#53606C"/>
<path fill-rule="evenodd" clip-rule="evenodd" d="M77.9758 40.2397C77.6555 40.2397 77.5391 40.3271 77.5391 40.6765V41.0259C77.5391 41.3462 77.6555 41.4627 77.9758 41.4627H78.3252C78.6746 41.4627 78.762 41.3462 78.762 41.0259V40.6765C78.762 40.3562 78.6455 40.2397 78.3252 40.2397H77.9758Z" fill="#3B434A"/>
<path fill-rule="evenodd" clip-rule="evenodd" d="M81.3241 39.1918L83.1585 41.463H84.7017L82.8965 39.2501C82.7509 39.0753 82.5762 38.8715 82.4015 38.7842V38.7551C82.5762 38.6386 82.6926 38.5221 82.8673 38.3183L84.5853 36.251H83.0712L81.3241 38.3183H80.7127C80.7709 38.1145 80.7709 37.9107 80.7709 37.6777V36.251H79.4897V41.463H80.7709V39.6868C80.7709 39.5412 80.7418 39.3665 80.7127 39.1918H81.3241Z" fill="#3B434A"/>
<path fill-rule="evenodd" clip-rule="evenodd" d="M89.8557 40.5021H86.5655L89.7684 37.1827V36.251H85.0514V37.1827H88.1961L84.9932 40.5021V41.463H89.8557V40.5021Z" fill="#3B434A"/>
</svg>
