<svg width="151" height="78" viewBox="0 0 151 78" fill="none" xmlns="http://www.w3.org/2000/svg">
<path fill-rule="evenodd" clip-rule="evenodd" d="M71.6907 31.7702C72.2927 30.8895 73.5203 30.4714 75.4508 30.4714H97.2757L97.7769 22.8208C90.1263 22.1299 80.7172 22.1299 72.1889 22.1299C70.0361 22.1299 68.1086 22.4531 66.4688 23.058C66.6734 23.1855 66.872 23.316 67.0648 23.4524C69.695 25.3176 71.1332 27.9953 71.6907 31.7702Z" fill="white"/>
<path fill-rule="evenodd" clip-rule="evenodd" d="M97.2755 57.5004H75.4505C72.5652 57.5004 71.2486 56.5604 71.2486 54.4906V46.9023H94.2034V39.4385H71.7943C71.3287 43.6344 69.9142 46.5434 67.2751 48.5273C65.5196 49.8468 63.257 50.6949 60.3984 51.1931V56.8124C60.4607 62.2687 65.0392 65.7796 72.1886 65.7796C80.717 65.7796 90.126 65.7796 97.7766 65.0887L97.2755 57.5004Z" fill="white"/>
<path fill-rule="evenodd" clip-rule="evenodd" d="M50.7372 21.6875C43.2645 21.6875 38.9054 21.7261 34.327 21.9989C35.347 22.4021 36.2515 22.8825 37.0491 23.4519C39.1575 24.9494 40.5008 26.9658 41.2362 29.6524L50.5474 29.5931C57.51 29.5931 59.6421 30.9097 59.6421 35.9894C59.6421 41.069 57.51 42.3856 50.5474 42.3856H41.2362C40.5156 45.0485 39.2287 47.0471 37.2567 48.5268C35.4301 49.8968 33.0578 50.7627 30.0391 51.249V65.5924H40.7647V49.6003C44.2134 50.0392 48.1662 50.2912 52.1783 50.2912C65.6617 50.2912 70.4923 47.2191 70.4923 35.9923C70.4953 24.8248 65.6647 21.6875 50.7372 21.6875Z" fill="white"/>
<path fill-rule="evenodd" clip-rule="evenodd" d="M20.7215 21.6875C11.0011 21.6875 6.5472 21.7498 0.0234375 22.3162V65.5924H10.7491V49.6003C14.1978 50.0392 18.1506 50.2912 22.1627 50.2912C35.6461 50.2912 40.4767 47.2191 40.4767 35.9923C40.4796 24.8248 35.6491 21.6875 20.7215 21.6875ZM10.7491 42.3856V29.6554L20.5318 29.5931C27.4944 29.5931 29.6265 30.9097 29.6265 35.9894C29.6265 41.069 27.4944 42.3856 20.5318 42.3856H10.7491Z" fill="white"/>
<path fill-rule="evenodd" clip-rule="evenodd" d="M149.453 23.6397L142.321 34.4188C142.292 34.4632 142.265 34.5047 142.235 34.5492C138.066 40.904 136.432 48.5931 137.571 56.1073L138.3 60.9141C138.422 61.7177 138.544 62.5213 138.665 63.3249C138.834 64.4073 139.647 65.119 140.551 65.7802C131.64 65.7802 121.214 65.7802 112.303 65.7802C113.148 65.1516 113.91 64.4607 114.124 63.3249L114.284 60.9141L114.862 52.1723C114.916 51.3449 114.945 50.5206 114.945 49.6932C114.945 48.1809 114.853 46.6686 114.673 45.1622C114.471 43.4927 113.558 41.9893 112.161 41.0522C111.15 40.3761 110.313 39.448 109.726 38.3508C107.959 35.0444 105.352 32.2096 102.105 30.1605L101.634 29.861C99.7272 28.6571 99.1994 26.1128 100.471 24.2506L100.534 24.1616C101.847 22.2312 104.498 21.8309 106.31 23.2691C107.98 24.5946 109.999 26.1959 111.695 27.5392C111.841 27.6518 111.992 27.7438 112.146 27.809C113.679 28.4584 114.886 27.0736 114.717 25.6265L112.597 6.76691C112.582 6.62458 112.573 6.48521 112.573 6.34584C112.573 4.58739 113.816 3.03948 115.574 2.68957C117.745 2.68957 119.791 4.44505 120.12 6.589L122.062 19.2125C122.13 19.6484 122.771 19.6187 122.795 19.1769L123.658 3.77488C123.776 1.64873 125.538 0 127.649 0C127.702 0 127.756 0.00296372 127.812 0.00296372C130.042 0.0919241 131.768 1.98974 131.643 4.21968L130.854 18.483C130.813 19.2599 131.907 19.4734 132.159 18.738L135.38 9.3349C136.079 7.28882 138.398 6.28653 140.376 7.19689C142.081 7.98271 142.879 9.96356 142.295 11.7457L138.274 24.0134C137.989 24.8822 139.104 25.5138 139.703 24.8229L144.151 19.6988C145.319 18.3525 147.357 18.1064 148.753 19.2125C150.102 20.2919 150.396 22.2134 149.453 23.6397Z" fill="white"/>
<path fill-rule="evenodd" clip-rule="evenodd" d="M125.992 33.3684C122.389 29.122 115.462 29.5757 112.141 27.8113C113.712 28.3688 114.605 27.0107 114.658 26.3643C115.945 27.1175 117.902 27.4318 120.547 28.7514C126.356 31.6574 125.992 33.3684 125.992 33.3684Z" fill="#1B242E"/>
<path fill-rule="evenodd" clip-rule="evenodd" d="M117.216 60.4834C116.724 60.4834 116.555 60.6287 116.555 61.1121V61.628C116.555 62.1114 116.724 62.2685 117.216 62.2685H117.732C118.236 62.2685 118.393 62.1114 118.393 61.628V61.1121C118.393 60.6287 118.236 60.4834 117.732 60.4834H117.216Z" fill="#242A30"/>
<path d="M124.976 59.1792C124.866 59.0339 124.753 58.8975 124.641 58.7818C124.528 58.6662 124.407 58.5505 124.285 58.4408C124.181 58.3489 124.06 58.2629 123.926 58.1828C124.202 58.1057 124.457 58.0019 124.685 57.8715C124.94 57.7262 125.163 57.5453 125.344 57.3377C125.524 57.1301 125.667 56.887 125.765 56.6231C125.863 56.3562 125.913 56.0596 125.913 55.7423C125.913 55.3361 125.833 54.9743 125.679 54.6689C125.524 54.3635 125.305 54.1055 125.029 53.9009C124.753 53.6963 124.427 53.545 124.06 53.4442C123.692 53.3434 123.286 53.293 122.847 53.293H119.754V62.2691H121.388V58.6721H121.951C122.138 58.6721 122.307 58.6958 122.458 58.7373C122.607 58.7818 122.743 58.85 122.868 58.9449C122.995 59.0428 123.123 59.1673 123.244 59.3156C123.369 59.4668 123.496 59.6536 123.63 59.8701L125.103 62.2453L125.118 62.272H127.04L125.341 59.6952C125.201 59.4905 125.083 59.3245 124.976 59.1792ZM121.388 54.5977H122.618C123.126 54.5977 123.517 54.7134 123.787 54.9417C124.051 55.17 124.187 55.4903 124.187 55.8965C124.187 56.1219 124.149 56.3295 124.068 56.5104C123.991 56.6913 123.882 56.8484 123.742 56.973C123.603 57.1005 123.434 57.1983 123.244 57.2636C123.051 57.3318 122.838 57.3644 122.61 57.3644H121.391V54.5977H121.388Z" fill="#242A30"/>
<path d="M132.927 53.2959V58.5624C132.927 60.217 132.28 61.0236 130.949 61.0236C129.564 61.0236 128.894 60.1874 128.894 58.4704V53.2959H127.254V58.7729C127.254 61.1926 128.458 62.4203 130.836 62.4203C133.315 62.4203 134.572 61.1452 134.572 58.6305V53.2959H132.927Z" fill="#242A30"/>
<path d="M1.29289 74.5374V76.5123H0V70.7773H2.02533C3.46945 70.7773 4.193 71.3852 4.193 72.604C4.193 73.1793 3.98542 73.6478 3.57028 74.0007C3.15513 74.3565 2.60061 74.5344 1.90968 74.5344H1.29289V74.5374ZM1.29289 71.7707V73.5588H1.79996C2.48792 73.5588 2.8319 73.2564 2.8319 72.6544C2.8319 72.0643 2.48792 71.7707 1.79996 71.7707H1.29289V71.7707Z" fill="white"/>
<path d="M8.47495 76.5153H5.03516V70.7803H8.34448V71.833H6.32805V73.1081H8.20511V74.1548H6.32805V75.4685H8.47495V76.5153Z" fill="white"/>
<path d="M14.2034 76.5153H12.7207L11.8281 75.0385C11.7629 74.9258 11.6977 74.828 11.6354 74.739C11.5731 74.65 11.5108 74.5759 11.4486 74.5136C11.3863 74.4514 11.3211 74.4039 11.2529 74.3683C11.1847 74.3357 11.1105 74.3179 11.0305 74.3179H10.6835V76.5153H9.39062V70.7803H11.4397C12.8304 70.7803 13.5273 71.2992 13.5273 72.34C13.5273 72.5387 13.4976 72.7255 13.4354 72.8946C13.3731 73.0636 13.2871 73.2178 13.1744 73.3512C13.0617 73.4876 12.9283 73.6033 12.7682 73.7041C12.608 73.802 12.4331 73.8791 12.2374 73.9354V73.9502C12.3234 73.9769 12.4064 74.0214 12.4864 74.0807C12.5665 74.14 12.6436 74.2112 12.7177 74.2912C12.7919 74.3713 12.863 74.4573 12.9312 74.5492C12.9994 74.6412 13.0617 74.7301 13.1181 74.8191L14.2034 76.5153ZM10.6835 71.744V73.3394H11.244C11.5227 73.3394 11.7451 73.2593 11.9112 73.0992C12.0832 72.9361 12.1662 72.7344 12.1662 72.4942C12.1662 71.9931 11.8667 71.7411 11.2677 71.7411H10.6835V71.744Z" fill="white"/>
<path d="M14.4768 76.2921V75.0111C14.7081 75.2068 14.9602 75.3521 15.233 75.45C15.5058 75.5478 15.7786 75.5953 16.0574 75.5953C16.2205 75.5953 16.3628 75.5805 16.4844 75.5508C16.606 75.5212 16.7068 75.4796 16.7869 75.4292C16.8669 75.3759 16.9292 75.3165 16.9677 75.2454C17.0063 75.1742 17.027 75.0971 17.027 75.0141C17.027 74.9014 16.9944 74.8035 16.9322 74.7146C16.8669 74.6256 16.7809 74.5456 16.6712 74.4714C16.5615 74.3973 16.428 74.3261 16.2768 74.2549C16.1256 74.1867 15.9595 74.1156 15.7846 74.0414C15.3368 73.8546 15.0017 73.6263 14.7823 73.3564C14.5628 73.0866 14.4531 72.7634 14.4531 72.3809C14.4531 72.0814 14.5124 71.8263 14.634 71.6099C14.7556 71.3964 14.9187 71.2184 15.1233 71.0791C15.3309 70.9397 15.5681 70.8389 15.8409 70.7736C16.1137 70.7084 16.4014 70.6758 16.7038 70.6758C17.0033 70.6758 17.2672 70.6936 17.4985 70.7292C17.7298 70.7647 17.9433 70.8211 18.1361 70.8952V72.0902C18.0412 72.025 17.9344 71.9657 17.8218 71.9153C17.7091 71.8649 17.5905 71.8234 17.4718 71.7878C17.3503 71.7552 17.2317 71.7285 17.113 71.7137C16.9944 71.6988 16.8817 71.6899 16.775 71.6899C16.6297 71.6899 16.4962 71.7048 16.3747 71.7314C16.2531 71.7611 16.1523 71.7996 16.0692 71.8501C15.9862 71.9005 15.9239 71.9598 15.8765 72.0309C15.832 72.1021 15.8083 72.1822 15.8083 72.2682C15.8083 72.3631 15.835 72.4491 15.8854 72.5262C15.9358 72.6033 16.007 72.6744 16.1019 72.7426C16.1938 72.8108 16.3094 72.8761 16.4429 72.9413C16.5763 73.0065 16.7275 73.0747 16.8936 73.1429C17.1219 73.2378 17.3295 73.3416 17.5104 73.4484C17.6942 73.5551 17.8484 73.6797 17.9789 73.8161C18.1094 73.9525 18.2102 74.1067 18.2784 74.2816C18.3466 74.4566 18.3822 74.6582 18.3822 74.8925C18.3822 75.2128 18.3229 75.4796 18.2013 75.6991C18.0797 75.9185 17.9166 76.0935 17.7061 76.2269C17.4985 76.3603 17.2554 76.4582 16.9796 76.5175C16.7038 76.5768 16.4132 76.6065 16.1048 76.6065C15.7905 76.6065 15.491 76.5798 15.2063 76.5264C14.9305 76.479 14.6844 76.3989 14.4768 76.2921Z" fill="white"/>
<path d="M21.7532 76.6124C20.9318 76.6124 20.2616 76.3455 19.7457 75.8088C19.2297 75.275 18.9688 74.5781 18.9688 73.7182C18.9688 72.8108 19.2327 72.0784 19.7575 71.5179C20.2824 70.9575 20.9793 70.6787 21.8451 70.6787C22.6636 70.6787 23.3248 70.9456 23.8319 71.4823C24.336 72.0191 24.591 72.7248 24.591 73.6025C24.591 74.504 24.3301 75.2305 23.8052 75.7821C23.2804 76.3366 22.5954 76.6124 21.7532 76.6124ZM21.8096 71.7937C21.3559 71.7937 20.997 71.9627 20.7302 72.3037C20.4633 72.6447 20.3298 73.0925 20.3298 73.653C20.3298 74.2223 20.4633 74.6701 20.7302 75.0022C20.997 75.3343 21.347 75.4974 21.7769 75.4974C22.2217 75.4974 22.5746 75.3373 22.8356 75.017C23.0965 74.6968 23.227 74.249 23.227 73.6796C23.227 73.0866 23.0995 72.624 22.8474 72.2919C22.5954 71.9597 22.2484 71.7937 21.8096 71.7937Z" fill="white"/>
<path d="M30.7075 76.5153H29.4028L27.0394 72.9124C26.9 72.7018 26.8051 72.5417 26.7517 72.4349H26.7369C26.7577 72.6366 26.7695 72.9479 26.7695 73.3631V76.5153H25.5508V70.7803H26.9415L29.2189 74.2734C29.3227 74.4306 29.4176 74.5878 29.5066 74.742H29.5214C29.5006 74.6085 29.4888 74.3446 29.4888 73.9532V70.7803H30.7075V76.5153Z" fill="white"/>
<path d="M37.0593 76.5153H35.6507L35.2415 75.2402H33.2014L32.7981 76.5153H31.3984L33.486 70.7803H35.0191L37.0593 76.5153ZM34.948 74.2468L34.3312 72.3193C34.2867 72.174 34.2541 72.002 34.2363 71.8033H34.2037C34.1918 71.9723 34.1562 72.1384 34.1028 72.3045L33.4801 74.2497H34.948V74.2468Z" fill="white"/>
<path d="M41.1973 76.5153H37.7812V70.7803H39.0741V75.4685H41.1973V76.5153Z" fill="white"/>
<path d="M45.5195 74.5374V76.5123H44.2266V70.7773H46.2519C47.696 70.7773 48.4196 71.3852 48.4196 72.604C48.4196 73.1793 48.212 73.6478 47.7968 74.0007C47.3817 74.3565 46.8272 74.5344 46.1362 74.5344H45.5195V74.5374ZM45.5195 71.7707V73.5588H46.0265C46.7145 73.5588 47.0585 73.2564 47.0585 72.6544C47.0585 72.0643 46.7145 71.7707 46.0265 71.7707H45.5195V71.7707Z" fill="white"/>
<path d="M54.0667 76.5153H52.584L51.6914 75.0385C51.6262 74.9258 51.5609 74.828 51.4987 74.739C51.4364 74.65 51.3741 74.5759 51.3119 74.5136C51.2496 74.4514 51.1843 74.4039 51.1161 74.3683C51.0479 74.3357 50.9738 74.3179 50.8937 74.3179H50.5468V76.5153H49.2539V70.7803H51.303C52.6937 70.7803 53.3906 71.2992 53.3906 72.34C53.3906 72.5387 53.3609 72.7255 53.2986 72.8946C53.2364 73.0636 53.1504 73.2178 53.0377 73.3512C52.925 73.4847 52.7916 73.6033 52.6314 73.7041C52.4713 73.802 52.2963 73.8791 52.1006 73.9354V73.9502C52.1866 73.9769 52.2697 74.0214 52.3497 74.0807C52.4298 74.14 52.5069 74.2112 52.581 74.2912C52.6552 74.3713 52.7263 74.4573 52.7945 74.5492C52.8627 74.6412 52.925 74.7301 52.9813 74.8191L54.0667 76.5153ZM50.5468 71.744V73.3394H51.1072C51.386 73.3394 51.6084 73.2593 51.7744 73.0992C51.9464 72.9361 52.0295 72.7344 52.0295 72.4942C52.0295 71.9931 51.73 71.7411 51.131 71.7411H50.5468V71.744Z" fill="white"/>
<path d="M56.9485 76.6124C56.1271 76.6124 55.457 76.3455 54.941 75.8088C54.425 75.275 54.1641 74.5781 54.1641 73.7182C54.1641 72.8108 54.428 72.0784 54.9528 71.5179C55.4777 70.9575 56.1746 70.6787 57.0404 70.6787C57.8589 70.6787 58.5202 70.9456 59.0272 71.4823C59.5313 72.0191 59.7864 72.7248 59.7864 73.6025C59.7864 74.504 59.5254 75.2305 59.0005 75.7821C58.4757 76.3366 57.7936 76.6124 56.9485 76.6124ZM57.0049 71.7937C56.5512 71.7937 56.1924 71.9627 55.9255 72.3037C55.6586 72.6447 55.5252 73.0925 55.5252 73.653C55.5252 74.2223 55.6586 74.6701 55.9255 75.0022C56.1924 75.3343 56.5423 75.4974 56.9722 75.4974C57.417 75.4974 57.7699 75.3373 58.0309 75.017C58.2918 74.6968 58.4223 74.249 58.4223 73.6796C58.4223 73.0866 58.2948 72.624 58.0427 72.2919C57.7936 71.9597 57.4467 71.7937 57.0049 71.7937Z" fill="white"/>
<path d="M64.4435 71.83H62.8066V76.5153H61.5108V71.83H59.8828V70.7773H64.4435V71.83Z" fill="white"/>
<path d="M68.6507 76.5153H65.2109V70.7803H68.5203V71.833H66.5038V73.1081H68.3809V74.1548H66.5038V75.4685H68.6507V76.5153Z" fill="white"/>
<path d="M73.6827 76.3099C73.2646 76.5115 72.716 76.6153 72.0428 76.6153C71.1621 76.6153 70.4712 76.3573 69.9671 75.8384C69.463 75.3224 69.2109 74.6315 69.2109 73.7715C69.2109 72.8552 69.4956 72.1109 70.062 71.5386C70.6284 70.9663 71.3638 70.6816 72.2682 70.6816C72.8287 70.6816 73.3001 70.7528 73.6856 70.8922V72.1376C73.3031 71.9093 72.8642 71.7936 72.375 71.7936C71.8353 71.7936 71.4023 71.9627 71.0702 72.3007C70.7381 72.6388 70.575 73.0984 70.575 73.6766C70.575 74.2312 70.7322 74.673 71.0435 75.0021C71.3549 75.3313 71.776 75.4974 72.3038 75.4974C72.8079 75.4974 73.2705 75.3758 73.6886 75.1297V76.3099H73.6827Z" fill="white"/>
<path d="M78.713 71.83H77.0762V76.5153H75.7803V71.83H74.1523V70.7773H78.713V71.83Z" fill="white"/>
<path d="M80.7734 76.5153H79.4805V70.7803H80.7734V76.5153Z" fill="white"/>
<path d="M86.8558 70.7773L84.8809 76.5123H83.416L81.4648 70.7773H82.8556L84.0506 74.7687C84.1159 74.9852 84.1544 75.1749 84.1663 75.341H84.19C84.2078 75.1631 84.2493 74.9674 84.3145 74.7539L85.5036 70.7773H86.8558V70.7773Z" fill="white"/>
<path d="M90.9789 76.5153H87.5391V70.7803H90.8484V71.833H88.8319V73.1081H90.709V74.1548H88.8319V75.4685H90.9789V76.5153Z" fill="white"/>
<path d="M97.6039 76.5153H94.1641V70.7803H97.4734V71.833H95.457V73.1081H97.334V74.1548H95.457V75.4685H97.6039V76.5153Z" fill="white"/>
<path d="M100.945 76.6124C100.123 76.6124 99.453 76.3455 98.9371 75.8117C98.4211 75.272 98.1602 74.5752 98.1602 73.7182C98.1602 72.8138 98.4241 72.0813 98.9489 71.5179C99.4708 70.9575 100.168 70.6787 101.037 70.6787C101.855 70.6787 102.516 70.9456 103.02 71.4823C103.527 72.0161 103.779 72.7218 103.779 73.6025C103.779 74.501 103.516 75.2276 102.991 75.7821C102.973 75.7999 102.955 75.8177 102.937 75.8354C102.922 75.8532 102.905 75.8681 102.884 75.8859L104.337 77.2825H102.528L101.769 76.5115C101.523 76.5798 101.247 76.6124 100.945 76.6124ZM101.001 71.7937C100.55 71.7937 100.191 71.9657 99.9216 72.3067C99.6547 72.6447 99.5212 73.0955 99.5212 73.6559C99.5212 74.2253 99.6547 74.673 99.9216 75.0051C100.188 75.3373 100.538 75.5004 100.968 75.5004C101.413 75.5004 101.766 75.3402 102.027 75.02C102.288 74.6938 102.418 74.249 102.418 73.6796C102.418 73.0866 102.291 72.624 102.039 72.2919C101.793 71.9597 101.446 71.7937 101.001 71.7937Z" fill="white"/>
<path d="M109.413 74.0303C109.413 75.7532 108.609 76.6131 107.005 76.6131C105.448 76.6131 104.668 75.771 104.668 74.0896V70.7773H105.964V74.1045C105.964 75.0326 106.326 75.4952 107.052 75.4952C107.764 75.4952 108.12 75.0474 108.12 74.1519V70.7773H109.413V74.0303V74.0303Z" fill="white"/>
<path d="M111.953 76.5153H110.66V70.7803H111.953V76.5153Z" fill="white"/>
<path d="M114.551 74.5374V76.5123H113.258V70.7773H115.283C116.727 70.7773 117.451 71.3852 117.451 72.604C117.451 73.1793 117.243 73.6478 116.828 74.0007C116.413 74.3565 115.858 74.5344 115.165 74.5344H114.551V74.5374ZM114.551 71.7707V73.5588H115.058C115.746 73.5588 116.09 73.2564 116.09 72.6544C116.09 72.0643 115.746 71.7707 115.058 71.7707H114.551V71.7707Z" fill="white"/>
<path d="M124.824 76.5153H123.549V73.0844C123.549 72.7137 123.563 72.3045 123.596 71.8567H123.563C123.498 72.2096 123.436 72.4616 123.383 72.6158L122.039 76.5153H120.984L119.617 72.6544C119.578 72.5506 119.519 72.2837 119.436 71.8537H119.397C119.433 72.4201 119.451 72.9153 119.451 73.3423V76.5153H118.285V70.7803H120.177L121.348 74.1815C121.443 74.4543 121.508 74.7272 121.553 75.0029H121.577C121.648 74.6856 121.725 74.4099 121.805 74.1756L122.976 70.7832H124.821V76.5153H124.824Z" fill="white"/>
<path d="M129.565 76.5153H126.125V70.7803H129.434V71.833H127.418V73.1081H129.295V74.1548H127.418V75.4685H129.565V76.5153Z" fill="white"/>
<path d="M135.653 76.5153H134.348L131.985 72.9124C131.845 72.7018 131.75 72.5417 131.697 72.4349H131.682C131.703 72.6366 131.715 72.9479 131.715 73.3631V76.5153H130.496V70.7803H131.887L134.164 74.2734C134.268 74.4306 134.366 74.5878 134.452 74.742H134.467C134.446 74.6085 134.434 74.3446 134.434 73.9532V70.7803H135.653V76.5153Z" fill="white"/>
<path d="M140.99 71.83H139.354V76.5153H138.058V71.83H136.43V70.7773H140.99V71.83Z" fill="white"/>
</svg>
