<svg width="100" height="52" viewBox="0 0 100 52" fill="none" xmlns="http://www.w3.org/2000/svg">
<path fill-rule="evenodd" clip-rule="evenodd" d="M47.5698 21.0752C47.9691 20.4909 48.7836 20.2135 50.0642 20.2135H64.5451L64.8776 15.1381C59.8021 14.6797 53.56 14.6797 47.9003 14.6797C46.4721 14.6797 45.1934 14.8941 44.1055 15.2954C44.2412 15.38 44.373 15.4666 44.5009 15.5571C46.2439 16.7945 47.198 18.5709 47.5698 21.0752Z" fill="black"/>
<path fill-rule="evenodd" clip-rule="evenodd" d="M64.5433 38.147H50.0624C48.1483 38.147 47.2748 37.5234 47.2748 36.1503V31.1161H62.5032V26.1646H47.6368C47.3279 28.9482 46.3896 30.8781 44.6367 32.1941C43.4721 33.0696 41.9711 33.6322 40.0747 33.9627V37.6906C40.116 41.3104 43.1534 43.6415 47.8965 43.6415C53.5562 43.6415 59.7963 43.6415 64.8738 43.1832L64.5433 38.147Z" fill="black"/>
<path fill-rule="evenodd" clip-rule="evenodd" d="M33.6654 14.3882C28.708 14.3882 25.8161 14.4138 22.7767 14.5947C23.4535 14.8623 24.0535 15.181 24.5846 15.5587C25.9834 16.5522 26.8745 17.8899 27.3624 19.6722L33.5395 19.6329C38.1586 19.6329 39.5731 20.5063 39.5731 23.8762C39.5731 27.2461 38.1586 28.1195 33.5395 28.1195H27.3624C26.8843 29.8861 26.0306 31.212 24.7224 32.1937C23.5105 33.1026 21.9367 33.677 19.9341 33.9996V43.5152H27.0496V32.9039C29.3375 33.195 31.9598 33.3622 34.6235 33.3622C43.5705 33.3622 46.7732 31.3242 46.7732 23.8762C46.7732 16.4676 43.5685 14.3882 33.6654 14.3882Z" fill="black"/>
<path fill-rule="evenodd" clip-rule="evenodd" d="M13.7509 14.3882C7.30226 14.3882 4.34747 14.4295 0.0195312 14.8052V43.5152H7.13505V32.9039C9.42295 33.195 12.0453 33.3622 14.7089 33.3622C23.656 33.3622 26.8586 31.3242 26.8586 23.8762C26.8567 16.4676 23.654 14.3882 13.7509 14.3882ZM7.13505 28.1195V19.6722L13.6269 19.6309C18.246 19.6309 19.6605 20.5043 19.6605 23.8742C19.6605 27.2441 18.246 28.1176 13.6269 28.1176H7.13505V28.1195Z" fill="black"/>
<path fill-rule="evenodd" clip-rule="evenodd" d="M0.816405 49.4171V50.7528H0V46.9187H1.32002C2.27413 46.9187 2.7502 47.322 2.7502 48.1305C2.7502 48.5239 2.6066 48.8387 2.31938 49.0748C2.03216 49.3108 1.67216 49.4249 1.23936 49.4151H0.816405V49.4171ZM0.816405 47.5521V48.7895H1.17051C1.65052 48.7895 1.89052 48.581 1.89052 48.162C1.89052 47.7548 1.65248 47.5521 1.17641 47.5521H0.816405ZM5.60074 50.7528H3.33054V46.9187H5.51025V47.5875H4.14695V48.4905H5.41385V49.1554H4.14695V50.084H5.59877V50.7528H5.60074ZM9.39358 50.7528H8.45324L7.85127 49.7554C7.72733 49.5489 7.627 49.4171 7.54634 49.3581C7.46765 49.2971 7.38306 49.2676 7.29454 49.2676H7.04666V50.7528H6.23026V46.9187H7.57388C8.48669 46.9187 8.94309 47.2649 8.94309 47.9574C8.94309 48.219 8.86636 48.4413 8.71488 48.6282C8.56341 48.8151 8.35291 48.9449 8.08537 49.0217V49.0315C8.26242 49.0905 8.45718 49.2853 8.67161 49.6158L9.39358 50.7528ZM7.04666 47.5403V48.644H7.44798C7.6388 48.644 7.79422 48.5889 7.90832 48.4767C8.02438 48.3646 8.0834 48.2269 8.0834 48.0597C8.0834 47.7134 7.87684 47.5403 7.46175 47.5403H7.04666ZM9.59227 49.7869C9.90113 50.0427 10.2513 50.1705 10.6448 50.1705C10.867 50.1705 11.0343 50.1332 11.1464 50.0564C11.2585 49.9797 11.3136 49.8813 11.3136 49.7613C11.3136 49.6571 11.2703 49.5587 11.1798 49.4663C11.0913 49.3738 10.8552 49.2479 10.4736 49.0905C9.87359 48.8367 9.57654 48.4669 9.57654 47.983C9.57654 47.6269 9.71228 47.3495 9.98376 47.1528C10.2552 46.9561 10.6133 46.8577 11.0618 46.8577C11.4356 46.8577 11.7503 46.9049 12.0041 47.0033V47.7705C11.7464 47.5954 11.4454 47.5088 11.1012 47.5088C10.8985 47.5088 10.7392 47.5462 10.6172 47.619C10.4972 47.6918 10.4362 47.7902 10.4362 47.9141C10.4362 48.0125 10.4775 48.1049 10.5602 48.1876C10.6428 48.2721 10.8474 48.3843 11.172 48.5259C11.5536 48.6892 11.8153 48.8623 11.9569 49.0433C12.1005 49.2243 12.1713 49.4407 12.1713 49.6905C12.1713 50.0584 12.0415 50.3397 11.7798 50.5325C11.5202 50.7253 11.1484 50.8217 10.6684 50.8217C10.2297 50.8217 9.86966 50.7509 9.58834 50.6092V49.7869H9.59227ZM12.5766 48.8859C12.5766 48.2859 12.7517 47.7961 13.1018 47.4203C13.452 47.0446 13.9163 46.8557 14.4927 46.8557C15.0396 46.8557 15.4802 47.0387 15.8147 47.4026C16.1491 47.7666 16.3163 48.2367 16.3163 48.8092C16.3163 49.4072 16.1412 49.8912 15.795 50.263C15.4488 50.6348 14.9924 50.8217 14.4297 50.8217C13.8809 50.8217 13.4343 50.6407 13.09 50.2807C12.7477 49.9187 12.5766 49.4545 12.5766 48.8859ZM13.4363 48.8426C13.4363 49.2164 13.5248 49.5194 13.7058 49.7574C13.8848 49.9935 14.1327 50.1115 14.4455 50.1115C14.7661 50.1115 15.014 49.9974 15.193 49.7712C15.372 49.5449 15.4606 49.24 15.4606 48.8564C15.4606 48.4571 15.374 48.1423 15.2009 47.9102C15.0278 47.678 14.7838 47.5639 14.4691 47.5639C14.1484 47.5639 13.8966 47.682 13.7117 47.92C13.5268 48.1561 13.4363 48.4649 13.4363 48.8426ZM20.3728 50.7528H19.5347L17.9137 48.2721C17.8291 48.1443 17.7681 48.04 17.7308 47.9593H17.719C17.7347 48.0912 17.7406 48.2957 17.7406 48.5712V50.7509H16.9655V46.9167H17.8567L19.4206 49.3266C19.5249 49.4879 19.5878 49.5882 19.6114 49.6315H19.6232C19.6055 49.539 19.5977 49.362 19.5977 49.1023V46.9167H20.3728V50.7528ZM24.5905 50.7528H23.6994L23.4122 49.8754H22.0193L21.738 50.7528H20.8528L22.2554 46.9187H23.2154L24.5905 50.7528ZM23.2194 49.244L22.7826 47.9161C22.7551 47.8315 22.7354 47.7193 22.7236 47.5816H22.702C22.6921 47.6938 22.6705 47.802 22.6351 47.9062L22.1984 49.2459H23.2194V49.244ZM27.325 50.7528H25.0745V46.9187H25.8909V50.084H27.325V50.7528ZM30.1736 49.4171V50.7528H29.3572V46.9187H30.6772C31.6313 46.9187 32.1074 47.322 32.1074 48.1305C32.1074 48.5239 31.9638 48.8387 31.6765 49.0748C31.3893 49.3108 31.0293 49.4249 30.5965 49.4151H30.1736V49.4171ZM30.1736 47.5521V48.7895H30.5277C31.0077 48.7895 31.2477 48.581 31.2477 48.162C31.2477 47.7548 31.0096 47.5521 30.5336 47.5521H30.1736ZM35.851 50.7528H34.9107L34.3087 49.7554C34.1848 49.5489 34.0844 49.4171 34.0038 49.3581C33.9251 49.2971 33.8405 49.2676 33.752 49.2676H33.5041V50.7528H32.6877V46.9187H34.0313C34.9441 46.9187 35.4005 47.2649 35.4005 47.9574C35.4005 48.219 35.3238 48.4413 35.1723 48.6282C35.0209 48.8151 34.8104 48.9449 34.5428 49.0217V49.0315C34.7199 49.0905 34.9146 49.2853 35.1291 49.6158L35.851 50.7528ZM33.5041 47.5403V48.644H33.9054C34.0963 48.644 34.2517 48.5889 34.3677 48.4767C34.4838 48.3646 34.5428 48.2269 34.5428 48.0597C34.5428 47.7134 34.3363 47.5403 33.9212 47.5403H33.5041ZM35.9297 48.8859C35.9297 48.2859 36.1048 47.7961 36.455 47.4203C36.8051 47.0446 37.2694 46.8557 37.8458 46.8557C38.3927 46.8557 38.8334 47.0387 39.1678 47.4026C39.5003 47.7666 39.6695 48.2367 39.6695 48.8092C39.6695 49.4072 39.4944 49.8912 39.1481 50.263C38.8019 50.6348 38.3455 50.8217 37.7829 50.8217C37.234 50.8217 36.7874 50.6407 36.4432 50.2807C36.1009 49.9187 35.9297 49.4545 35.9297 48.8859ZM36.7874 48.8426C36.7874 49.2164 36.876 49.5194 37.057 49.7574C37.236 49.9935 37.4838 50.1115 37.7966 50.1115C38.1173 50.1115 38.3652 49.9974 38.5442 49.7712C38.7232 49.5449 38.8117 49.24 38.8117 48.8564C38.8117 48.4571 38.7252 48.1423 38.5521 47.9102C38.3789 47.678 38.135 47.5639 37.8202 47.5639C37.4996 47.5639 37.2478 47.682 37.0629 47.92C36.8799 48.1561 36.7874 48.4649 36.7874 48.8426ZM42.7423 47.5875H41.6485V50.7528H40.8301V47.5875H39.7383V46.9187H42.7423V47.5875V47.5875ZM45.5358 50.7528H43.2656V46.9187H45.4453V47.5875H44.082V48.4905H45.3489V49.1554H44.082V50.084H45.5338V50.7528H45.5358ZM48.8998 50.6151C48.6204 50.7528 48.2565 50.8197 47.8079 50.8197C47.2296 50.8197 46.7732 50.6466 46.4328 50.3004C46.0945 49.9541 45.9253 49.4938 45.9253 48.9174C45.9253 48.3115 46.1141 47.8157 46.4938 47.4321C46.8715 47.0466 47.3594 46.8538 47.9594 46.8538C48.3352 46.8538 48.6479 46.901 48.8998 46.9993V47.7882C48.6401 47.6367 48.347 47.562 48.0184 47.562C47.6427 47.562 47.3437 47.682 47.1194 47.92C46.8951 48.16 46.783 48.4728 46.783 48.8584C46.783 49.2341 46.8892 49.5371 47.1017 49.7672C47.3142 49.9954 47.6033 50.1115 47.9653 50.1115C48.3076 50.1115 48.6184 50.0289 48.8998 49.8636V50.6151V50.6151ZM52.2244 47.5875H51.1306V50.7528H50.3122V47.5875H49.2204V46.9187H52.2244V47.5875V47.5875ZM53.5621 46.9187V50.7528H52.7457V46.9187H53.5621ZM57.6028 46.9187L56.271 50.7528H55.3484L54.0343 46.9187H54.9156L55.7458 49.6295C55.7871 49.7633 55.8126 49.8892 55.8225 50.0072H55.8382C55.852 49.8853 55.8795 49.7554 55.9228 49.6177L56.751 46.9187H57.6028V46.9187ZM60.3412 50.7528H58.071V46.9187H60.2507V47.5875H58.8875V48.4905H60.1543V49.1554H58.8875V50.084H60.3393V50.7528H60.3412ZM64.7498 50.7528H62.4796V46.9187H64.6593V47.5875H63.296V48.4905H64.5629V49.1554H63.296V50.084H64.7479V50.7528H64.7498ZM65.1374 48.8859C65.1374 48.2859 65.3125 47.7961 65.6626 47.4203C66.0128 47.0446 66.4771 46.8557 67.0535 46.8557C67.6004 46.8557 68.041 47.0387 68.3755 47.4026C68.7099 47.7666 68.8771 48.2367 68.8771 48.8092C68.8771 49.4072 68.702 49.8912 68.3558 50.265C68.3341 50.2886 68.3125 50.3102 68.2909 50.3318L69.2666 51.2722H68.0568L67.5472 50.7528C67.3761 50.8 67.1912 50.8217 66.9925 50.8217C66.4436 50.8217 65.9971 50.6407 65.6528 50.2807C65.3085 49.9187 65.1374 49.4545 65.1374 48.8859ZM65.9971 48.8426C65.9971 49.2164 66.0856 49.5194 66.2666 49.7574C66.4456 49.9935 66.6935 50.1115 67.0063 50.1115C67.3269 50.1115 67.5748 49.9974 67.7538 49.7712C67.9328 49.5449 68.0214 49.24 68.0214 48.8564C68.0214 48.4571 67.9348 48.1423 67.7617 47.9102C67.5886 47.678 67.3446 47.5639 67.0299 47.5639C66.7092 47.5639 66.4574 47.682 66.2725 47.92C66.0895 48.1561 65.9971 48.4649 65.9971 48.8426ZM72.6208 49.1043C72.6208 50.2473 72.0896 50.8197 71.0273 50.8197C70.0004 50.8197 69.4869 50.263 69.4869 49.1495V46.9187H70.3053V49.1535C70.3053 49.7928 70.5571 50.1115 71.0607 50.1115C71.5565 50.1115 71.8024 49.8046 71.8024 49.1889V46.9206H72.6188V49.1043H72.6208ZM74.2752 46.9187V50.7528H73.4588V46.9187H74.2752ZM75.9788 49.4171V50.7528H75.1624V46.9187H76.4825C77.4366 46.9187 77.9126 47.322 77.9126 48.1305C77.9126 48.5239 77.769 48.8387 77.4818 49.0748C77.1946 49.3108 76.8346 49.4249 76.4018 49.4151H75.9788V49.4171ZM75.9788 47.5521V48.7895H76.333C76.813 48.7895 77.053 48.581 77.053 48.162C77.053 47.7548 76.8149 47.5521 76.3389 47.5521H75.9788ZM82.0026 50.7528V48.4256C82.0026 48.2112 82.0124 47.9416 82.034 47.6171H82.0144C81.9652 47.863 81.9258 48.0262 81.8963 48.1089L80.952 50.7528H80.3009L79.3428 48.1344C79.3192 48.0715 79.2799 47.9003 79.2228 47.6171H79.1992C79.2209 47.9397 79.2307 48.2623 79.2307 48.5849V50.7528H78.493V46.9187H79.6812L80.5074 49.2361C80.5763 49.4269 80.6235 49.6079 80.6491 49.7751H80.6668C80.7179 49.5666 80.7711 49.3836 80.8242 49.2302L81.6543 46.9187H82.8111V50.7528H82.0026ZM85.9744 50.7528H83.7042V46.9187H85.8839V47.5875H84.5206V48.4905H85.7875V49.1554H84.5206V50.084H85.9724V50.7528H85.9744ZM90.0112 50.7528H89.1731L87.5521 48.2721C87.4675 48.1443 87.4066 48.04 87.3692 47.9593H87.3574C87.3731 48.0912 87.379 48.2957 87.379 48.5712V50.7509H86.6039V46.9167H87.4951L89.0591 49.3266C89.1633 49.4879 89.2263 49.5882 89.2499 49.6315H89.2617C89.244 49.539 89.2361 49.362 89.2361 49.1023V46.9167H90.0112V50.7528ZM93.5483 47.5875H92.4545V50.7528H91.6361V47.5875H90.5443V46.9187H93.5483V47.5875V47.5875Z" fill="black"/>
<path fill-rule="evenodd" clip-rule="evenodd" d="M98.6866 12.7458C97.76 12.012 96.4085 12.1733 95.6334 13.0684L92.6825 16.4678C92.2852 16.9262 91.5455 16.5071 91.7343 15.9307L94.4019 7.79028C94.7895 6.60797 94.2603 5.29189 93.1291 4.77253C91.8169 4.16859 90.2786 4.83352 89.8143 6.19091L87.6779 12.431C87.5106 12.9209 86.7847 12.7792 86.8123 12.2618L87.3356 2.79939C87.4162 1.32002 86.2713 0.0609865 84.7939 0.00196916C84.7585 1.92118e-06 84.7231 0 84.6857 0C83.287 0 82.1184 1.09576 82.0378 2.5043L81.4653 12.7222C81.4496 13.0153 81.0247 13.035 80.9794 12.7458L79.6909 4.37121C79.4725 2.9489 78.1151 1.78429 76.6751 1.78429C75.5065 2.01839 74.6842 3.04333 74.6842 4.2099C74.6842 4.30236 74.6901 4.39482 74.7 4.48925L76.1065 17.0029C76.1262 17.1721 76.1164 17.3393 76.0829 17.4986C76.9367 17.9924 78.2312 18.2049 79.9781 19.0764C83.8319 21.0023 83.5899 22.1394 83.5899 22.1394C81.1997 19.3223 76.6043 19.6232 74.4009 18.4527C74.2967 18.4095 74.1964 18.3485 74.1019 18.2737C72.9747 17.3826 71.637 16.3202 70.5294 15.4389C69.3274 14.4848 67.5687 14.7524 66.6972 16.0311L66.6559 16.0901C65.8139 17.3255 66.1641 19.0154 67.4271 19.8121L67.7399 20.0108C69.894 21.3682 71.6232 23.2508 72.7957 25.4443C73.1852 26.1722 73.74 26.7879 74.4108 27.2365C75.3374 27.8581 75.9413 28.8555 76.077 29.9631C76.197 30.9605 76.258 31.9657 76.258 32.969C76.258 33.5179 76.2403 34.0667 76.2029 34.6156L75.8193 40.415L75.7131 42.0144C75.5734 42.7679 75.0659 43.2262 74.5052 43.6433C80.4168 43.6433 87.3336 43.6433 93.2471 43.6433C92.6471 43.2066 92.1081 42.7325 91.996 42.0144C91.9153 41.4813 91.8346 40.9482 91.754 40.415L91.2701 37.2261C90.5166 32.2411 91.5986 27.1401 94.3645 22.9243C94.3822 22.8948 94.4019 22.8672 94.4216 22.8377L99.1548 15.6848C99.7803 14.7347 99.5876 13.4618 98.6866 12.7458Z" fill="#009FE3"/>
<path fill-rule="evenodd" clip-rule="evenodd" d="M77.5799 40.2458C77.2474 40.2458 77.1333 40.3442 77.1333 40.6688V41.017C77.1333 41.3416 77.2474 41.4478 77.5799 41.4478H77.9281C78.2684 41.4478 78.3746 41.3416 78.3746 41.017V40.6688C78.3746 40.3442 78.2684 40.2458 77.9281 40.2458H77.5799Z" fill="white"/>
<path d="M80.3819 39.4333V41.0858C80.3819 41.2825 80.2403 41.4477 80.0573 41.4477H79.4062C79.2291 41.4477 79.0796 41.2825 79.0796 41.0858V36.3014C79.0796 36.0968 79.2212 35.9395 79.3983 35.9395H82.2508C83.2836 35.9395 84.0547 36.6004 84.0547 37.6864C84.0547 38.5362 83.4665 38.9297 82.7524 39.087C83.0436 39.2051 83.2541 39.4805 83.5374 39.9762L84.1669 41.0858C84.281 41.2904 84.2298 41.4477 84.0469 41.4477H83.2187C83.0416 41.4477 82.8016 41.2904 82.6875 41.0858L82.0993 40.0628C81.9223 39.7559 81.6685 39.4333 81.2219 39.4333H80.3819ZM80.3819 37.0254V38.3474H81.8534C82.2488 38.3474 82.7524 38.19 82.7524 37.6864C82.7524 37.1828 82.2508 37.0254 81.8534 37.0254H80.3819Z" fill="white"/>
<path d="M87.493 40.3933C88.1225 40.3933 88.4058 40.0313 88.4058 39.2759V36.3014C88.4058 36.0968 88.5553 35.9395 88.7324 35.9395H89.3757C89.5606 35.9395 89.7081 36.0968 89.7081 36.3014V39.268C89.7081 40.6608 88.9724 41.4792 87.5284 41.4792H86.9048C85.4608 41.4792 84.7251 40.6608 84.7251 39.268V36.3014C84.7251 36.0968 84.8726 35.9395 85.0576 35.9395H85.7008C85.8779 35.9395 86.0274 36.0968 86.0274 36.3014V39.2759C86.0274 40.0313 86.3107 40.3933 86.9402 40.3933H87.493Z" fill="white"/>
</svg>
