<svg width="143" height="38" viewBox="0 0 143 38" fill="none" xmlns="http://www.w3.org/2000/svg">
<path fill-rule="evenodd" clip-rule="evenodd" d="M5.52065 11.6674L3.84585 28.9737C5.72742 28.9737 7.62966 28.9737 9.51123 28.9737L11.186 11.6674H16.6653C16.8307 9.93058 16.9962 8.2351 17.1616 6.53962H0.496238C0.330825 8.2351 0.165413 9.93058 0 11.6674H5.52065ZM34.716 6.53962C29.4641 6.53962 25.9078 6.53962 20.7179 6.53962C19.9943 13.9625 19.2706 21.4681 18.5469 28.9531C23.7367 28.9531 27.5826 28.9531 32.8344 28.9531C32.9998 27.2576 33.1652 25.5207 33.3307 23.8666C29.9604 23.8666 28.0375 23.8666 24.7499 23.8666C24.8739 22.5226 24.998 21.2407 25.1221 19.9174H32.7517C32.9171 18.2219 33.0825 16.5264 33.248 14.8309H25.6183L25.9284 11.6674C29.2367 11.6674 30.8908 11.6674 34.2198 11.6674C34.3852 9.95126 34.5506 8.21443 34.716 6.53962ZM37.5073 17.767C36.8043 25.3967 42.2009 29.2425 47.9077 29.2012C52.684 29.2012 57.9565 26.6993 59.4038 20.3516C57.4396 20.3516 55.6821 20.3516 53.7591 20.3516C52.9114 22.7501 50.8437 23.97 48.4039 23.97C45.0129 23.9286 43.1107 21.0546 43.4208 17.7463C43.7723 14.0245 46.2329 11.502 49.6031 11.502C52.0016 11.502 53.6144 12.5358 54.1933 14.8103C56.1576 14.8103 57.8738 14.8103 59.8381 14.8103C59.5486 8.81405 54.7723 6.2915 50.1201 6.2915C44.4133 6.2915 38.2724 10.1374 37.5073 17.767Z" fill="white"/>
<path fill-rule="evenodd" clip-rule="evenodd" d="M78.0331 21.034C84.0707 17.1881 83.4917 6.58101 74.6835 6.56034C71.4166 6.56034 68.0877 6.56034 64.8415 6.56034C64.1178 14.0659 63.3941 21.5095 62.6704 28.9738C64.5313 28.9738 66.4749 28.9738 68.3978 28.9738L69.0388 22.3779H72.0162L75.2211 28.9738H81.6308L81.7135 28.1467L78.0331 21.034ZM73.6704 17.2708H69.5764C69.7418 15.4719 69.9486 13.487 70.114 11.6675C71.458 11.6675 72.864 11.6261 74.2079 11.6675C77.4748 11.7088 76.7718 17.2708 73.6704 17.2708ZM107.828 17.7877C108.552 10.2821 103.527 6.39492 97.986 6.16748L97.3864 11.7502C100.012 11.9569 102.349 13.9626 101.977 17.7877C101.604 21.6956 98.8131 23.7219 96.1045 23.8873L96.0838 24.1561L95.5255 29.4286C101.15 29.3046 107.084 25.4174 107.828 17.7877ZM97.2417 6.16748L96.642 11.7502C93.9127 11.8742 91.1007 13.9005 90.7079 17.7877C90.3357 21.6542 92.6928 23.6806 95.3394 23.8666L94.7398 29.4286C89.1571 29.2426 84.0707 25.3554 84.815 17.7877C85.5594 10.1374 91.5556 6.25019 97.2417 6.16748ZM128.298 28.9738H130.345L132.516 6.53966C130.552 6.53966 128.608 6.53966 126.644 6.53966L125.589 17.5189L122.736 14.4588L121.909 22.1298L128.298 28.9738ZM122.095 13.7351L122.074 13.8592L121.268 21.4061L118.063 17.9531L116.988 28.9738C115.003 28.9738 113.018 28.9738 111.054 28.9738L113.225 6.45695H115.313L122.095 13.7351Z" fill="white"/>
<path fill-rule="evenodd" clip-rule="evenodd" d="M138.678 0.646894C140.704 0.646894 142.358 2.30102 142.358 4.32733C142.358 6.35363 140.704 8.00776 138.678 8.00776C136.652 8.00776 134.997 6.35363 134.997 4.32733C134.977 2.30102 136.631 0.646894 138.678 0.646894ZM138.678 0.357422C136.486 0.357422 134.708 2.13561 134.708 4.32733C134.708 6.51905 136.486 8.29723 138.678 8.29723C140.87 8.29723 142.648 6.51905 142.648 4.32733C142.627 2.13561 140.849 0.357422 138.678 0.357422Z" fill="white"/>
<path fill-rule="evenodd" clip-rule="evenodd" d="M136.755 6.66386V1.78418H138.926C139.361 1.78418 139.691 1.82553 139.919 1.90824C140.146 1.99095 140.332 2.15636 140.456 2.36312C140.601 2.59057 140.663 2.83869 140.663 3.10748C140.663 3.45898 140.56 3.74846 140.332 3.9759C140.105 4.20334 139.774 4.36875 139.299 4.43078C139.464 4.51349 139.609 4.5962 139.691 4.6789C139.878 4.84431 140.064 5.07176 140.229 5.31988L141.077 6.64318H140.27L139.629 5.63003C139.443 5.34055 139.278 5.11311 139.175 4.9477C139.05 4.78229 138.947 4.6789 138.844 4.61687C138.74 4.55484 138.658 4.51349 138.554 4.49281C138.472 4.47214 138.368 4.47214 138.203 4.47214H137.458V6.64318H136.755V6.66386ZM137.396 3.93455H138.782C139.071 3.93455 139.299 3.91387 139.464 3.85184C139.629 3.78981 139.753 3.68643 139.836 3.56237C139.919 3.43831 139.96 3.27289 139.96 3.12816C139.96 2.90072 139.878 2.71463 139.712 2.54921C139.547 2.40448 139.278 2.32177 138.926 2.32177H137.376V3.93455H137.396Z" fill="white"/>
<path d="M0.764757 32.9233H3.65948L3.2873 36.6038H2.79106L3.12189 33.3575H1.19897L0.86814 36.6038H0.392578L0.764757 32.9233Z" fill="white"/>
<path d="M3.94922 37.6377L4.3214 33.9365H4.73493L4.69358 34.288C4.79696 34.1433 4.92102 34.0606 5.04508 33.9779C5.16914 33.9159 5.33455 33.8745 5.49996 33.8745C5.72741 33.8745 5.91349 33.9365 6.07891 34.0606C6.24432 34.1847 6.3477 34.3501 6.43041 34.5568C6.49244 34.7636 6.51312 35.0117 6.49244 35.2598C6.47176 35.5286 6.38906 35.7768 6.265 36.0042C6.14094 36.2316 5.9962 36.3971 5.78943 36.5004C5.58267 36.6245 5.39658 36.6659 5.18981 36.6659C5.04508 36.6659 4.90034 36.6245 4.79696 36.5625C4.69358 36.5004 4.59019 36.4177 4.52816 36.3144L4.4041 37.617H3.94922V37.6377ZM4.59019 35.2805C4.54884 35.632 4.59019 35.8801 4.71425 36.0456C4.83831 36.211 5.00372 36.2937 5.18981 36.2937C5.39658 36.2937 5.56199 36.211 5.72741 36.0456C5.89282 35.8801 5.9962 35.6113 6.01688 35.2598C6.05823 34.929 5.9962 34.6602 5.89282 34.4948C5.76876 34.3294 5.60335 34.2467 5.41726 34.2467C5.23117 34.2467 5.04508 34.3294 4.87967 34.5155C4.71425 34.6809 4.61087 34.9497 4.59019 35.2805Z" fill="white"/>
<path d="M6.88485 35.2804C6.9262 34.7841 7.11229 34.4119 7.40176 34.1845C7.64988 33.9777 7.93936 33.895 8.27018 33.895C8.64236 33.895 8.93183 34.0191 9.1386 34.2465C9.34536 34.4946 9.42807 34.8255 9.38672 35.239C9.34536 35.5905 9.28333 35.8593 9.15928 36.0454C9.03522 36.2521 8.8698 36.3969 8.66304 36.5003C8.45627 36.6037 8.22883 36.6657 8.00139 36.6657C7.62921 36.6657 7.33973 36.5416 7.13297 36.3142C6.9262 36.0661 6.8435 35.7352 6.88485 35.2804ZM7.36041 35.2804C7.31906 35.6319 7.38109 35.88 7.50515 36.0454C7.62921 36.2108 7.8153 36.2935 8.04274 36.2935C8.27018 36.2935 8.45627 36.2108 8.62168 36.0454C8.7871 35.88 8.89048 35.6112 8.93183 35.2597C8.97319 34.9288 8.91116 34.6807 8.7871 34.5153C8.66304 34.3499 8.47695 34.2672 8.2495 34.2672C8.02206 34.2672 7.83597 34.3499 7.67056 34.5153C7.48447 34.6807 7.38109 34.9288 7.36041 35.2804Z" fill="white"/>
<path d="M11.7233 32.9233H12.1781L12.0541 34.2053C12.1575 34.1019 12.2608 34.0192 12.3849 33.9572C12.509 33.8951 12.633 33.8745 12.7571 33.8745C13.0672 33.8745 13.3154 33.9985 13.4808 34.2673C13.6462 34.5361 13.7082 34.8669 13.6669 35.2598C13.6255 35.6733 13.5014 36.0248 13.274 36.273C13.0466 36.5211 12.7778 36.6658 12.4883 36.6658C12.3849 36.6658 12.3022 36.6451 12.1988 36.6245C12.0954 36.6038 11.992 36.5211 11.868 36.3763L11.7439 37.6376H11.289L11.4131 36.3763C11.3097 36.4797 11.2063 36.5417 11.0823 36.6038C10.9582 36.6451 10.8548 36.6865 10.7101 36.6865C10.4206 36.6865 10.1932 36.5624 10.0071 36.3143C9.82101 36.0662 9.75898 35.7147 9.80033 35.2598C9.84168 34.8669 9.96574 34.5568 10.1725 34.288C10.3793 34.0192 10.6481 33.8951 10.9789 33.8951C11.103 33.8951 11.227 33.9158 11.3304 33.9778C11.4338 34.0399 11.5165 34.1019 11.5992 34.226L11.7233 32.9233ZM10.2552 35.2391C10.2139 35.6113 10.2552 35.8801 10.3586 36.0455C10.462 36.2109 10.6274 36.2936 10.8135 36.2936C10.9996 36.2936 11.165 36.2109 11.2684 36.0455C11.3718 35.8801 11.4545 35.632 11.4958 35.3011C11.5372 34.9496 11.5165 34.6809 11.4131 34.5154C11.3304 34.3294 11.1857 34.2466 10.9789 34.2466C10.7928 34.2466 10.6274 34.3294 10.5033 34.5154C10.3586 34.6809 10.2759 34.929 10.2552 35.2391ZM11.9507 35.2805C11.9093 35.6733 11.93 35.9628 12.0334 36.0869C12.1368 36.2316 12.2608 36.2936 12.4263 36.2936C12.6123 36.2936 12.7778 36.2109 12.9225 36.0455C13.0672 35.8801 13.1706 35.6113 13.1913 35.2598C13.2326 34.929 13.1913 34.6602 13.0879 34.4948C12.9845 34.3293 12.8398 34.2466 12.6537 34.2466C12.4469 34.2466 12.2815 34.3294 12.1781 34.5154C12.0541 34.6809 11.9714 34.929 11.9507 35.2805Z" fill="white"/>
<path d="M15.9827 35.7559L16.4376 35.8179C16.3342 36.0867 16.1688 36.3142 15.9621 36.4589C15.7553 36.6037 15.4865 36.6864 15.1764 36.6864C14.7835 36.6864 14.494 36.5623 14.2873 36.3349C14.0805 36.0867 13.9978 35.7559 14.0391 35.3217C14.0805 34.8668 14.2252 34.5153 14.494 34.2672C14.7422 34.0191 15.073 33.895 15.4245 33.895C15.776 33.895 16.0655 34.0191 16.2722 34.2672C16.479 34.5153 16.5617 34.8461 16.4997 35.301C16.4997 35.3217 16.4997 35.3631 16.479 35.4251H14.494C14.4734 35.7146 14.5354 35.942 14.6801 36.1074C14.8042 36.2728 14.9903 36.3349 15.2177 36.3349C15.3831 36.3349 15.5279 36.2935 15.6519 36.2108C15.776 36.0867 15.8794 35.942 15.9827 35.7559ZM14.5561 35.0116H16.0448C16.0448 34.7841 16.0034 34.6187 15.9207 34.5153C15.7967 34.3499 15.6106 34.2465 15.3831 34.2465C15.1764 34.2465 14.9903 34.3086 14.8455 34.4533C14.7008 34.598 14.5974 34.7841 14.5561 35.0116Z" fill="white"/>
<path d="M18.7744 35.632L19.2086 35.6941C19.1259 36.0042 18.9811 36.2316 18.7537 36.4177C18.5262 36.5831 18.2781 36.6865 17.9886 36.6865C17.6165 36.6865 17.3477 36.5625 17.1409 36.335C16.9341 36.0869 16.8721 35.7561 16.9135 35.3012C16.9341 35.0117 17.0168 34.7636 17.1409 34.5362C17.265 34.3294 17.4097 34.164 17.6165 34.0399C17.8232 33.9365 18.0507 33.8745 18.2781 33.8745C18.5676 33.8745 18.795 33.9572 18.9604 34.102C19.1259 34.2467 19.2292 34.4535 19.2499 34.7223L18.795 34.7843C18.7744 34.5982 18.7123 34.4741 18.6089 34.3707C18.5056 34.288 18.3815 34.226 18.2368 34.226C18.0093 34.226 17.8232 34.3087 17.6578 34.4741C17.4924 34.6395 17.4097 34.8877 17.3683 35.2598C17.327 35.6113 17.3683 35.8801 17.4924 36.0456C17.6165 36.211 17.7819 36.2937 18.0093 36.2937C18.1954 36.2937 18.3401 36.2316 18.4642 36.1283C18.6296 36.0249 18.733 35.8595 18.7744 35.632Z" fill="white"/>
<path d="M21.3793 35.632L21.8135 35.6941C21.7308 36.0042 21.5861 36.2316 21.3587 36.4177C21.1312 36.5831 20.8831 36.6865 20.5936 36.6865C20.2214 36.6865 19.9526 36.5625 19.7459 36.335C19.5391 36.0869 19.4771 35.7561 19.5184 35.3012C19.5391 35.0117 19.6218 34.7636 19.7459 34.5362C19.8699 34.3294 20.0147 34.164 20.2214 34.0399C20.4282 33.9365 20.6557 33.8745 20.8831 33.8745C21.1726 33.8745 21.4 33.9572 21.5654 34.102C21.7308 34.2467 21.8342 34.4535 21.8549 34.7223L21.4 34.7843C21.3793 34.5982 21.3173 34.4741 21.2139 34.3707C21.1105 34.288 20.9865 34.226 20.8417 34.226C20.6143 34.226 20.4282 34.3087 20.2628 34.4741C20.0974 34.6395 20.0147 34.8877 19.9733 35.2598C19.932 35.6113 19.9733 35.8801 20.0974 36.0456C20.2214 36.211 20.3869 36.2937 20.6143 36.2937C20.8004 36.2937 20.9451 36.2316 21.0692 36.1283C21.2346 36.0249 21.3173 35.8595 21.3793 35.632Z" fill="white"/>
<path d="M22.3928 33.9365H22.8477L22.6409 35.9835L24.109 33.9365H24.6052L24.3364 36.6038H23.8815L24.0883 34.5775L22.6203 36.6038H22.124L22.3928 33.9365Z" fill="white"/>
<path d="M24.9771 35.2804C25.0185 34.7841 25.2046 34.4119 25.494 34.1845C25.7422 33.9777 26.0316 33.895 26.3625 33.895C26.7346 33.895 27.0241 34.0191 27.2309 34.2465C27.4377 34.4946 27.5204 34.8255 27.479 35.239C27.4377 35.5905 27.3756 35.8593 27.2516 36.0454C27.1275 36.2521 26.9621 36.3969 26.7553 36.5003C26.5486 36.6037 26.3211 36.6657 26.0937 36.6657C25.7215 36.6657 25.432 36.5416 25.2253 36.3142C25.0185 36.0661 24.9358 35.7352 24.9771 35.2804ZM25.4527 35.2804C25.4113 35.6319 25.4734 35.88 25.5974 36.0454C25.7215 36.2108 25.9076 36.2935 26.135 36.2935C26.3625 36.2935 26.5486 36.2108 26.714 36.0454C26.8794 35.88 26.9828 35.6112 27.0241 35.2597C27.0655 34.9288 27.0034 34.6807 26.8794 34.5153C26.7553 34.3499 26.5692 34.2672 26.3418 34.2672C26.1143 34.2672 25.9283 34.3499 25.7628 34.5153C25.5768 34.6807 25.4734 34.9288 25.4527 35.2804Z" fill="white"/>
<path d="M28.1614 33.9365H28.6163L28.5129 35.0531H29.7741L29.8775 33.9365H30.3324L30.0636 36.6038H29.6087L29.7328 35.4252H28.4715L28.3475 36.6038H27.8926L28.1614 33.9365Z" fill="white"/>
<path d="M32.5241 36.2727C32.338 36.4174 32.1726 36.5208 32.0072 36.5828C31.8418 36.6449 31.6764 36.6655 31.4903 36.6655C31.2008 36.6655 30.9734 36.6035 30.8286 36.4588C30.6839 36.314 30.6219 36.1279 30.6425 35.9005C30.6632 35.7764 30.7046 35.6524 30.7666 35.549C30.8286 35.4456 30.932 35.3629 31.0354 35.2802C31.1388 35.2182 31.2422 35.1561 31.3869 35.1355C31.4696 35.1148 31.6143 35.0941 31.8004 35.0734C32.1726 35.0321 32.4414 34.9701 32.6275 34.908C32.6275 34.846 32.6482 34.8046 32.6482 34.784C32.6689 34.5979 32.6275 34.4738 32.5655 34.3911C32.4621 34.2877 32.2967 34.2464 32.0692 34.2464C31.8625 34.2464 31.6971 34.2877 31.5937 34.3498C31.4903 34.4325 31.3869 34.5565 31.3249 34.7426L30.8907 34.6806C30.9527 34.4945 31.0354 34.3291 31.1388 34.2257C31.2422 34.1016 31.3869 34.0189 31.573 33.9569C31.7591 33.8949 31.9659 33.8535 32.1933 33.8535C32.4207 33.8535 32.6068 33.8742 32.7516 33.9362C32.8963 33.9983 32.979 34.0603 33.041 34.143C33.1031 34.2257 33.1444 34.3291 33.1444 34.4531C33.1444 34.5358 33.1444 34.6599 33.1237 34.8667L33.0617 35.4663C33.0204 35.8798 32.9997 36.1486 33.0204 36.2727C33.0204 36.3761 33.0617 36.5001 33.1031 36.6035H32.6275C32.5448 36.5208 32.5448 36.3967 32.5241 36.2727ZM32.6068 35.2595C32.4414 35.3216 32.1933 35.3836 31.8418 35.4249C31.6557 35.4456 31.511 35.487 31.4283 35.5076C31.3456 35.549 31.2835 35.5904 31.2422 35.6524C31.2008 35.7144 31.1595 35.7971 31.1595 35.8591C31.1388 35.9832 31.1801 36.0866 31.2628 36.1693C31.3456 36.252 31.4696 36.2934 31.6557 36.2934C31.8211 36.2934 31.9865 36.252 32.1313 36.1693C32.276 36.0866 32.3794 35.9832 32.4621 35.8591C32.5241 35.7558 32.5655 35.611 32.5861 35.4043L32.6068 35.2595Z" fill="white"/>
<path d="M34.1161 33.9365H36.2251L35.9563 36.6038H35.5014L35.7289 34.3087H34.5296L34.4056 35.632C34.3642 35.9422 34.3436 36.1489 34.3229 36.2523C34.3022 36.3557 34.2195 36.4384 34.1368 36.5211C34.0334 36.6038 33.9093 36.6245 33.7233 36.6245C33.6199 36.6245 33.4958 36.6245 33.3511 36.6038L33.3924 36.2316H33.5992C33.7026 36.2316 33.7646 36.2316 33.806 36.2109C33.8473 36.1903 33.868 36.1696 33.8887 36.1282C33.9093 36.0869 33.93 35.9422 33.9507 35.7147L34.1161 33.9365Z" fill="white"/>
<path d="M36.9288 33.9365H37.3837L37.2803 34.991H37.8592C38.2314 34.991 38.5209 35.0531 38.707 35.1978C38.8931 35.3425 38.9758 35.5493 38.9551 35.7974C38.9344 36.0249 38.831 36.2109 38.6449 36.3764C38.4589 36.5418 38.1901 36.6245 37.8179 36.6245H36.6807L36.9288 33.9365ZM37.1355 36.2316H37.6111C37.9006 36.2316 38.1073 36.1903 38.2314 36.1282C38.3555 36.0662 38.4382 35.9422 38.4382 35.7974C38.4589 35.6734 38.4175 35.57 38.3348 35.4873C38.2521 35.4046 38.066 35.3425 37.7558 35.3425H37.2183L37.1355 36.2316Z" fill="white"/>
<path d="M39.6365 33.9365H40.0914L39.988 35.0531H41.2492L41.3526 33.9365H41.8075L41.5387 36.6038H41.0838L41.2079 35.4252H39.9466L39.8226 36.6038H39.3677L39.6365 33.9365Z" fill="white"/>
<path d="M42.4903 33.9365H42.9452L42.8418 34.991H43.4208C43.7929 34.991 44.0824 35.0531 44.2685 35.1978C44.4546 35.3425 44.5373 35.5493 44.5166 35.7974C44.4959 36.0249 44.3926 36.2109 44.2065 36.3764C44.0204 36.5418 43.7516 36.6245 43.3794 36.6245H42.2422L42.4903 33.9365ZM42.7177 36.2316H43.1933C43.4828 36.2316 43.6896 36.1903 43.8136 36.1282C43.9377 36.0662 44.0204 35.9422 44.0411 35.7974C44.0617 35.6734 44.0204 35.57 43.9377 35.4873C43.855 35.4046 43.6689 35.3425 43.3587 35.3425H42.8211L42.7177 36.2316ZM45.0335 33.9365H45.4884L45.2196 36.6038H44.7647L45.0335 33.9365Z" fill="white"/>
<path d="M47.845 35.7559L48.2999 35.8179C48.1966 36.0867 48.0311 36.3142 47.8244 36.4589C47.6176 36.6037 47.3488 36.6864 47.0387 36.6864C46.6458 36.6864 46.3563 36.5623 46.1496 36.3349C45.9428 36.0867 45.8601 35.7559 45.9015 35.3217C45.9428 34.8668 46.0875 34.5153 46.3563 34.2672C46.6045 34.0191 46.9353 33.895 47.2868 33.895C47.6383 33.895 47.9278 34.0191 48.1345 34.2672C48.3413 34.5153 48.424 34.8461 48.362 35.301C48.362 35.3217 48.362 35.3631 48.3413 35.4251H46.3563C46.3357 35.7146 46.3977 35.942 46.5424 36.1074C46.6665 36.2728 46.8526 36.3349 47.08 36.3349C47.2454 36.3349 47.3902 36.2935 47.5142 36.2108C47.659 36.0867 47.7623 35.942 47.845 35.7559ZM46.439 35.0116H47.9278C47.9278 34.7841 47.8864 34.6187 47.8037 34.5153C47.6796 34.3499 47.4935 34.2465 47.2661 34.2465C47.0593 34.2465 46.8733 34.3086 46.7285 34.4533C46.5838 34.598 46.4804 34.7841 46.439 35.0116Z" fill="white"/>
<path d="M52.0844 35.632L52.5186 35.6941C52.4359 36.0042 52.2912 36.2316 52.0637 36.4177C51.8363 36.5831 51.5882 36.6865 51.2987 36.6865C50.9265 36.6865 50.6577 36.5625 50.451 36.335C50.2442 36.0869 50.1822 35.7561 50.2235 35.3012C50.2442 35.0117 50.3269 34.7636 50.451 34.5362C50.575 34.3294 50.7198 34.164 50.9265 34.0399C51.1333 33.9365 51.3607 33.8745 51.5882 33.8745C51.8776 33.8745 52.1051 33.9572 52.2705 34.102C52.4359 34.2467 52.5393 34.4535 52.56 34.7223L52.1051 34.7843C52.0844 34.5982 52.0224 34.4741 51.919 34.3707C51.8156 34.288 51.6916 34.226 51.5468 34.226C51.3194 34.226 51.1333 34.3087 50.9679 34.4741C50.8025 34.6395 50.7198 34.8877 50.6784 35.2598C50.6371 35.6113 50.6784 35.8801 50.8025 36.0456C50.9265 36.211 51.0919 36.2937 51.3194 36.2937C51.5055 36.2937 51.6502 36.2316 51.7743 36.1283C51.9397 36.0249 52.0224 35.8595 52.0844 35.632Z" fill="white"/>
<path d="M52.7251 37.6377L53.0973 33.9365H53.5108L53.4695 34.288C53.5728 34.1433 53.6969 34.0606 53.821 33.9779C53.945 33.9159 54.1104 33.8745 54.2758 33.8745C54.5033 33.8745 54.6894 33.9365 54.8548 34.0606C55.0202 34.1847 55.1236 34.3501 55.2063 34.5568C55.2683 34.7636 55.289 35.0117 55.2683 35.2598C55.2476 35.5286 55.1649 35.7768 55.0409 36.0042C54.9168 36.2316 54.7721 36.3971 54.5653 36.5004C54.3585 36.6245 54.1725 36.6659 53.9657 36.6659C53.821 36.6659 53.6762 36.6245 53.5728 36.5625C53.4695 36.5004 53.3661 36.4177 53.304 36.3144L53.18 37.617H52.7251V37.6377ZM53.3661 35.2805C53.3247 35.632 53.3661 35.8801 53.4901 36.0456C53.6142 36.211 53.7796 36.2937 53.9657 36.2937C54.1725 36.2937 54.3379 36.211 54.5033 36.0456C54.6687 35.8801 54.7721 35.6113 54.7928 35.2598C54.8341 34.929 54.7721 34.6602 54.6687 34.4948C54.5446 34.3294 54.3792 34.2467 54.1931 34.2467C54.007 34.2467 53.821 34.3294 53.6555 34.5155C53.5108 34.6809 53.4074 34.9497 53.3661 35.2805Z" fill="white"/>
<path d="M57.6258 35.7559L58.0807 35.8179C57.9773 36.0867 57.8119 36.3142 57.6051 36.4589C57.3984 36.6037 57.1296 36.6864 56.8194 36.6864C56.4266 36.6864 56.1371 36.5623 55.9303 36.3349C55.7236 36.0867 55.6409 35.7559 55.6822 35.3217C55.7236 34.8668 55.8683 34.5153 56.1371 34.2672C56.3852 34.0191 56.716 33.895 57.0675 33.895C57.419 33.895 57.7085 34.0191 57.9153 34.2672C58.1221 34.5153 58.2048 34.8461 58.1427 35.301C58.1427 35.3217 58.1427 35.3631 58.1221 35.4251H56.1371C56.1164 35.7146 56.1785 35.942 56.3232 36.1074C56.4472 36.2728 56.6333 36.3349 56.8608 36.3349C57.0262 36.3349 57.1709 36.2935 57.295 36.2108C57.4397 36.0867 57.5431 35.942 57.6258 35.7559ZM56.2198 35.0116H57.7085C57.7085 34.7841 57.6672 34.6187 57.5845 34.5153C57.4604 34.3499 57.2743 34.2465 57.0469 34.2465C56.8401 34.2465 56.654 34.3086 56.5093 34.4533C56.3439 34.598 56.2405 34.7841 56.2198 35.0116Z" fill="white"/>
<path d="M59.0934 33.9365H60.9543L60.7268 36.2316H61.0163L60.9129 37.3688H60.5408L60.6235 36.6038H58.5145L58.4318 37.3688H58.0596L58.163 36.2316H58.4111C58.7833 35.7974 59.0107 35.0324 59.0934 33.9365ZM59.4449 34.3087C59.3208 35.1771 59.1348 35.8181 58.8453 36.2316H60.272L60.4581 34.3087H59.4449Z" fill="white"/>
<path d="M63.3325 35.632L63.7667 35.6941C63.684 36.0042 63.5392 36.2316 63.3118 36.4177C63.0843 36.5831 62.8362 36.6865 62.5468 36.6865C62.1746 36.6865 61.9058 36.5625 61.699 36.335C61.4922 36.0869 61.4302 35.7561 61.4716 35.3012C61.4922 35.0117 61.575 34.7636 61.699 34.5362C61.8231 34.3294 61.9678 34.164 62.1746 34.0399C62.3813 33.9365 62.6088 33.8745 62.8362 33.8745C63.1257 33.8745 63.3531 33.9572 63.5185 34.102C63.684 34.2467 63.7873 34.4535 63.808 34.7223L63.3531 34.7843C63.3325 34.5982 63.2704 34.4741 63.167 34.3707C63.0637 34.288 62.9396 34.226 62.7949 34.226C62.5674 34.226 62.3813 34.3087 62.2159 34.4741C62.0505 34.6395 61.9678 34.8877 61.9265 35.2598C61.8851 35.6113 61.9265 35.8801 62.0505 36.0456C62.1746 36.211 62.34 36.2937 62.5674 36.2937C62.7535 36.2937 62.8983 36.2316 63.0223 36.1283C63.1877 36.0249 63.2911 35.8595 63.3325 35.632Z" fill="white"/>
<path d="M64.118 33.9365H66.2891L66.2477 34.3087H65.3793L65.1518 36.6038H64.697L64.9244 34.3087H64.0767L64.118 33.9365Z" fill="white"/>
<path d="M66.7439 33.9365H67.7984C68.0465 33.9365 68.2533 33.9572 68.3567 33.9986C68.4807 34.0399 68.5841 34.1226 68.6461 34.226C68.7288 34.3501 68.7495 34.4741 68.7495 34.6395C68.7288 34.7636 68.7082 34.8876 68.6461 34.9704C68.5841 35.0737 68.5014 35.1358 68.3773 35.1978C68.5014 35.2391 68.6048 35.3219 68.6668 35.4252C68.7288 35.5493 68.7702 35.6734 68.7495 35.8388C68.7082 36.0869 68.6048 36.273 68.4187 36.397C68.2326 36.5211 68.0052 36.5831 67.6743 36.5831H66.4751L66.7439 33.9365ZM66.9507 36.2316H67.5503C67.7984 36.2316 67.9845 36.2109 68.0879 36.1489C68.1913 36.0869 68.2533 35.9835 68.274 35.8388C68.274 35.7561 68.2533 35.6734 68.2119 35.5907C68.1706 35.5079 68.0879 35.4666 68.0052 35.4459C67.9225 35.4252 67.7777 35.4252 67.571 35.4252H67.0127L66.9507 36.2316ZM67.0747 35.0531H67.5503C67.7364 35.0531 67.8811 35.0324 67.9431 35.0324C68.0258 35.0117 68.0879 34.9704 68.1499 34.9083C68.2119 34.8463 68.2533 34.7636 68.2533 34.6809C68.274 34.5361 68.2326 34.4328 68.1292 34.3914C68.0258 34.3294 67.8604 34.3087 67.633 34.3087H67.1367L67.0747 35.0531Z" fill="white"/>
<path d="M70.9416 36.2727C70.7555 36.4174 70.5901 36.5208 70.4247 36.5828C70.2593 36.6449 70.0939 36.6655 69.9078 36.6655C69.6183 36.6655 69.3909 36.6035 69.2461 36.4588C69.1014 36.314 69.0394 36.1279 69.06 35.9005C69.0807 35.7764 69.1221 35.6524 69.1841 35.549C69.2461 35.4456 69.3495 35.3629 69.4529 35.2802C69.5563 35.2182 69.6597 35.1561 69.8044 35.1355C69.8871 35.1148 70.0318 35.0941 70.2179 35.0734C70.5901 35.0321 70.8589 34.9701 71.045 34.908C71.045 34.846 71.0657 34.8046 71.0657 34.784C71.0863 34.5979 71.045 34.4738 70.9829 34.3911C70.8796 34.2877 70.7142 34.2464 70.4867 34.2464C70.2799 34.2464 70.1145 34.2877 70.0112 34.3498C69.9078 34.4325 69.8044 34.5565 69.7424 34.7426L69.3081 34.6806C69.3702 34.4945 69.4529 34.3291 69.5563 34.2257C69.6596 34.1016 69.8044 34.0189 69.9905 33.9569C70.1766 33.8949 70.3833 33.8535 70.6108 33.8535C70.8382 33.8535 71.0243 33.8742 71.169 33.9362C71.3138 33.9983 71.3965 34.0603 71.4585 34.143C71.5205 34.2257 71.5619 34.3291 71.5619 34.4531C71.5619 34.5358 71.5619 34.6599 71.5412 34.8667L71.4792 35.4663C71.4378 35.8798 71.4172 36.1486 71.4378 36.2727C71.4378 36.3761 71.4792 36.5001 71.5205 36.6035H71.045C70.9623 36.5208 70.9416 36.3967 70.9416 36.2727ZM71.0036 35.2595C70.8382 35.3216 70.5901 35.3836 70.2386 35.4249C70.0525 35.4456 69.9078 35.487 69.8251 35.5076C69.7424 35.549 69.6803 35.5904 69.639 35.6524C69.5976 35.7144 69.5563 35.7971 69.5563 35.8591C69.5356 35.9832 69.5769 36.0866 69.6596 36.1693C69.7424 36.252 69.8664 36.2934 70.0525 36.2934C70.2179 36.2934 70.3833 36.252 70.5281 36.1693C70.6728 36.0866 70.7762 35.9832 70.8589 35.8591C70.9209 35.7558 70.9623 35.611 70.9829 35.4043L71.0036 35.2595Z" fill="white"/>
<path d="M73.7327 33.9365H74.1875L73.9808 35.9835L75.4488 33.9365H75.9451L75.6763 36.6038H75.2214L75.4281 34.5775L73.9601 36.6038H73.4639L73.7327 33.9365Z" fill="white"/>
<path d="M76.6272 33.9365H77.0821L76.9787 35.0531H78.24L78.3434 33.9365H78.7982L78.5294 36.6038H78.0746L78.1986 35.4252H76.9373L76.8133 36.6038H76.3584L76.6272 33.9365Z" fill="white"/>
<path d="M79.8322 33.9365H81.6931L81.4656 36.2316H81.7551L81.6517 37.3688H81.2795L81.3622 36.6038H79.2532L79.1705 37.3688H78.7983L78.9017 36.2316H79.1498C79.5013 35.7974 79.7495 35.0324 79.8322 33.9365ZM80.1837 34.3087C80.0596 35.1771 79.8735 35.8181 79.584 36.2316H81.0107L81.1968 34.3087H80.1837Z" fill="white"/>
<path d="M82.4993 33.9365H82.9541L82.7474 35.9835L84.2154 33.9365H84.7117L84.4429 36.6038H83.988L84.1947 34.5775L82.7267 36.6038H82.2305L82.4993 33.9365Z" fill="white"/>
<path d="M85.394 33.9365H86.4485C86.6966 33.9365 86.9034 33.9572 87.0067 33.9986C87.1308 34.0399 87.2342 34.1226 87.2962 34.226C87.3789 34.3501 87.3996 34.4741 87.3996 34.6395C87.3789 34.7636 87.3582 34.8876 87.2755 34.9704C87.2135 35.0737 87.1308 35.1358 87.0067 35.1978C87.1308 35.2391 87.2342 35.3219 87.2962 35.4252C87.3582 35.5493 87.3996 35.6734 87.3789 35.8388C87.3376 36.0869 87.2342 36.273 87.0481 36.397C86.862 36.5211 86.6346 36.5831 86.3037 36.5831H85.1045L85.394 33.9365ZM85.6214 36.2316H86.221C86.4691 36.2316 86.6552 36.2109 86.7586 36.1489C86.862 36.0869 86.924 35.9835 86.9447 35.8388C86.9447 35.7561 86.924 35.6734 86.8827 35.5907C86.8413 35.5079 86.7586 35.4666 86.6759 35.4459C86.5932 35.4252 86.4485 35.4252 86.2417 35.4252H85.6834L85.6214 36.2316ZM85.7455 35.0531H86.221C86.4071 35.0531 86.5519 35.0324 86.6139 35.0324C86.6966 35.0117 86.7586 34.9704 86.8206 34.9083C86.8827 34.8463 86.924 34.7636 86.924 34.6809C86.9447 34.5361 86.9034 34.4328 86.8 34.3914C86.6966 34.3294 86.5312 34.3087 86.3037 34.3087H85.8075L85.7455 35.0531Z" fill="white"/>
<path d="M88.1443 33.9365H88.5992L88.3924 35.9835L89.8604 33.9365H90.3567L90.0879 36.6038H89.633L89.8398 34.5775L88.3717 36.6038H87.8755L88.1443 33.9365Z" fill="white"/>
<path d="M91.3908 33.9365H93.2517L93.0242 36.2316H93.3137L93.2103 37.3688H92.8381L92.9208 36.6038H90.8118L90.7291 37.3688H90.3569L90.4603 36.2316H90.7084C91.0806 35.7974 91.3081 35.0324 91.3908 33.9365ZM91.7423 34.3087C91.6182 35.1771 91.4321 35.8181 91.1426 36.2316H92.5693L92.7554 34.3087H91.7423Z" fill="white"/>
<path d="M93.665 37.6375V37.2033C93.7684 37.2239 93.8511 37.2446 93.9132 37.2446C94.0165 37.2446 94.0992 37.2239 94.1613 37.2033C94.2233 37.1619 94.2853 37.1205 94.3267 37.0585C94.368 37.0172 94.4094 36.8931 94.4921 36.7277C94.5128 36.707 94.5128 36.6657 94.5335 36.6243L93.7891 33.957H94.2853L94.6782 35.5078C94.7402 35.6939 94.7816 35.9006 94.8023 36.1281C94.885 35.9213 94.947 35.7145 95.0504 35.5285L95.774 33.9777H96.2289L94.947 36.6863C94.8022 36.9758 94.6989 37.1826 94.6368 37.286C94.5335 37.4307 94.4301 37.5341 94.3267 37.6168C94.2233 37.6788 94.0786 37.7202 93.9338 37.7202C93.8718 37.6995 93.7684 37.6788 93.665 37.6375Z" fill="white"/>
<path d="M98.1101 36.2727C97.924 36.4174 97.7586 36.5208 97.5931 36.5828C97.4277 36.6449 97.2623 36.6655 97.0762 36.6655C96.7868 36.6655 96.5593 36.6035 96.4146 36.4588C96.2698 36.314 96.2078 36.1279 96.2285 35.9005C96.2492 35.7764 96.2905 35.6524 96.3525 35.549C96.4146 35.4456 96.518 35.3629 96.6213 35.2802C96.7247 35.2182 96.8281 35.1561 96.9728 35.1355C97.0556 35.1148 97.2003 35.0941 97.3864 35.0734C97.7586 35.0321 98.0274 34.9701 98.2134 34.908C98.2134 34.846 98.2341 34.8046 98.2341 34.784C98.2548 34.5979 98.2134 34.4738 98.1514 34.3911C98.048 34.2877 97.8826 34.2464 97.6552 34.2464C97.4484 34.2464 97.283 34.2877 97.1796 34.3498C97.0762 34.4325 96.9728 34.5565 96.9108 34.7426L96.4766 34.6806C96.5386 34.4945 96.6213 34.3291 96.7247 34.2257C96.8281 34.1016 96.9728 34.0189 97.1589 33.9569C97.345 33.8949 97.5518 33.8535 97.7792 33.8535C98.0067 33.8535 98.1928 33.8742 98.3375 33.9362C98.4822 33.9983 98.5649 34.0603 98.627 34.143C98.689 34.2257 98.7304 34.3291 98.7304 34.4531C98.7304 34.5358 98.7304 34.6599 98.7097 34.8667L98.6477 35.4663C98.6063 35.8798 98.5856 36.1486 98.6063 36.2727C98.6063 36.3761 98.6476 36.5001 98.689 36.6035H98.2134C98.1307 36.5208 98.1101 36.3967 98.1101 36.2727ZM98.1721 35.2595C98.0067 35.3216 97.7586 35.3836 97.4071 35.4249C97.221 35.4456 97.0762 35.487 96.9935 35.5076C96.9108 35.549 96.8488 35.5904 96.8074 35.6524C96.7661 35.7144 96.7247 35.7971 96.7247 35.8591C96.704 35.9832 96.7454 36.0866 96.8281 36.1693C96.9108 36.252 97.0349 36.2934 97.221 36.2934C97.3864 36.2934 97.5518 36.252 97.6965 36.1693C97.8413 36.0866 97.9446 35.9832 98.0274 35.8591C98.0894 35.7558 98.1307 35.611 98.1514 35.4043L98.1721 35.2595Z" fill="white"/>
<path d="M99.703 33.9365H101.812L101.543 36.6038H101.088L101.316 34.3087H100.117L99.9925 35.632C99.9511 35.9422 99.9305 36.1489 99.9098 36.2523C99.8891 36.3557 99.8064 36.4384 99.7237 36.5211C99.6203 36.6038 99.4963 36.6245 99.3102 36.6245C99.2068 36.6245 99.0827 36.6245 98.938 36.6038L98.9793 36.2316H99.1861C99.2895 36.2316 99.3515 36.2316 99.3929 36.2109C99.4342 36.1903 99.4549 36.1696 99.4756 36.1282C99.4963 36.0869 99.5169 35.9422 99.5376 35.7147L99.703 33.9365Z" fill="white"/>
<path d="M102.494 33.9365H102.949L102.846 34.991H103.425C103.797 34.991 104.086 35.0531 104.272 35.1978C104.458 35.3425 104.541 35.5493 104.521 35.7974C104.5 36.0249 104.396 36.2109 104.21 36.3764C104.024 36.5418 103.755 36.6245 103.383 36.6245H102.246L102.494 33.9365ZM102.722 36.2316H103.197C103.487 36.2316 103.693 36.1903 103.818 36.1282C103.942 36.0662 104.024 35.9422 104.024 35.7974C104.045 35.6734 104.004 35.57 103.921 35.4873C103.838 35.4046 103.652 35.3425 103.342 35.3425H102.804L102.722 36.2316Z" fill="white"/>
<path d="M105.202 33.9365H105.657L105.554 35.0531H106.815L106.919 33.9365H107.373L107.105 36.6038H106.65L106.774 35.4252H105.513L105.388 36.6038H104.934L105.202 33.9365Z" fill="white"/>
<path d="M107.746 35.2804C107.787 34.7841 107.973 34.4119 108.263 34.1845C108.511 33.9777 108.8 33.895 109.131 33.895C109.503 33.895 109.793 34.0191 109.999 34.2465C110.206 34.4946 110.289 34.8255 110.248 35.239C110.206 35.5905 110.144 35.8593 110.02 36.0454C109.896 36.2521 109.731 36.3969 109.524 36.5003C109.317 36.6037 109.09 36.6657 108.862 36.6657C108.49 36.6657 108.201 36.5416 107.994 36.3142C107.787 36.0661 107.704 35.7352 107.746 35.2804ZM108.221 35.2804C108.18 35.6319 108.242 35.88 108.366 36.0454C108.49 36.2108 108.676 36.2935 108.904 36.2935C109.131 36.2935 109.317 36.2108 109.483 36.0454C109.648 35.88 109.751 35.6112 109.793 35.2597C109.834 34.9288 109.772 34.6807 109.648 34.5153C109.524 34.3499 109.338 34.2672 109.11 34.2672C108.883 34.2672 108.697 34.3499 108.531 34.5153C108.345 34.6807 108.263 34.9288 108.221 35.2804Z" fill="white"/>
<path d="M110.93 33.9365H111.385L111.178 35.9835L112.646 33.9365H113.142L112.874 36.6038H112.419L112.625 34.5775L111.157 36.6038H110.661L110.93 33.9365ZM112.605 32.9233H112.915C112.874 33.1301 112.77 33.2955 112.646 33.3989C112.501 33.5023 112.336 33.5643 112.108 33.5643C111.902 33.5643 111.736 33.5023 111.612 33.3989C111.488 33.2955 111.426 33.1301 111.426 32.9233H111.736C111.757 33.0474 111.778 33.1301 111.86 33.1715C111.922 33.2335 112.005 33.2542 112.129 33.2542C112.274 33.2542 112.377 33.2335 112.439 33.1715C112.522 33.1301 112.584 33.0474 112.605 32.9233Z" fill="white"/>
<path d="M115.686 35.4047L115.727 35.0532C115.913 35.0532 116.058 35.0532 116.12 35.0326C116.182 35.0119 116.265 34.9705 116.327 34.9085C116.389 34.8465 116.43 34.7638 116.451 34.6604C116.471 34.5363 116.43 34.4329 116.347 34.3709C116.265 34.2882 116.182 34.2675 116.037 34.2675C115.789 34.2675 115.582 34.4123 115.458 34.7224L115.045 34.6604C115.231 34.1641 115.582 33.916 116.099 33.916C116.389 33.916 116.595 33.9987 116.74 34.1435C116.885 34.3089 116.947 34.495 116.926 34.7017C116.906 34.9292 116.781 35.0946 116.554 35.2186C116.678 35.3013 116.781 35.3841 116.823 35.4874C116.885 35.5908 116.906 35.7356 116.885 35.8803C116.864 36.1284 116.761 36.3145 116.554 36.4592C116.368 36.604 116.12 36.6867 115.81 36.6867C115.21 36.6867 114.879 36.4179 114.838 35.8803L115.272 35.7976C115.293 35.963 115.355 36.1077 115.458 36.1904C115.562 36.2731 115.706 36.3352 115.851 36.3352C115.996 36.3352 116.141 36.2938 116.244 36.2111C116.347 36.1284 116.409 36.0044 116.43 35.8803C116.451 35.7769 116.409 35.6942 116.368 35.6115C116.306 35.5288 116.244 35.4874 116.182 35.4668C116.12 35.4461 115.975 35.4461 115.789 35.4461C115.789 35.4047 115.748 35.4047 115.686 35.4047Z" fill="white"/>
<path d="M119.138 36.2727C118.952 36.4174 118.787 36.5208 118.621 36.5828C118.456 36.6449 118.291 36.6655 118.105 36.6655C117.815 36.6655 117.588 36.6035 117.443 36.4588C117.298 36.314 117.236 36.1279 117.257 35.9005C117.277 35.7764 117.319 35.6524 117.381 35.549C117.443 35.4456 117.546 35.3629 117.65 35.2802C117.753 35.2182 117.856 35.1561 118.001 35.1355C118.084 35.1148 118.229 35.0941 118.415 35.0734C118.787 35.0321 119.056 34.9701 119.242 34.908C119.242 34.846 119.262 34.8046 119.262 34.784C119.283 34.5979 119.242 34.4738 119.18 34.3911C119.076 34.2877 118.911 34.2464 118.683 34.2464C118.477 34.2464 118.311 34.2877 118.208 34.3498C118.105 34.4325 118.001 34.5565 117.939 34.7426L117.505 34.6806C117.567 34.4945 117.65 34.3291 117.753 34.2257C117.856 34.1223 118.001 34.0189 118.187 33.9569C118.373 33.8949 118.58 33.8535 118.808 33.8535C119.035 33.8535 119.221 33.8742 119.366 33.9362C119.511 33.9983 119.593 34.0603 119.655 34.143C119.717 34.2257 119.759 34.3291 119.759 34.4531C119.759 34.5358 119.759 34.6599 119.738 34.8667L119.676 35.4663C119.635 35.8798 119.614 36.1486 119.635 36.2727C119.635 36.3761 119.676 36.5001 119.717 36.6035H119.242C119.159 36.5208 119.138 36.3967 119.138 36.2727ZM119.2 35.2595C119.035 35.3216 118.787 35.3836 118.435 35.4249C118.249 35.4456 118.105 35.487 118.022 35.5076C117.939 35.549 117.877 35.5904 117.836 35.6524C117.794 35.7144 117.753 35.7971 117.753 35.8591C117.732 35.9832 117.774 36.0866 117.856 36.1693C117.939 36.252 118.063 36.2934 118.249 36.2934C118.415 36.2934 118.58 36.252 118.725 36.1693C118.87 36.0866 118.973 35.9832 119.056 35.8591C119.118 35.7558 119.159 35.611 119.18 35.4043L119.2 35.2595Z" fill="white"/>
<path d="M120.524 33.9365H120.979L120.751 36.2316H121.785L122.013 33.9365H122.468L122.24 36.2316H123.274L123.501 33.9365H123.956L123.729 36.2316H124.018L123.915 37.3688H123.543L123.625 36.6038H120.276L120.524 33.9365Z" fill="white"/>
<path d="M124.762 33.9365H125.217L125.011 35.9835L126.479 33.9365H126.975L126.706 36.6038H126.251L126.458 34.5775L124.99 36.6038H124.494L124.762 33.9365Z" fill="white"/>
<path d="M127.409 33.9365H129.58L129.538 34.3087H128.67L128.443 36.6038H127.988L128.215 34.3087H127.347L127.409 33.9365Z" fill="white"/>
<path d="M130.035 33.9365H130.49L130.386 34.991H130.965C131.337 34.991 131.627 35.0531 131.813 35.1978C131.999 35.3425 132.082 35.5493 132.061 35.7974C132.04 36.0249 131.937 36.2109 131.751 36.3764C131.565 36.5418 131.296 36.6245 130.924 36.6245H129.787L130.035 33.9365ZM130.262 36.2316H130.738C131.027 36.2316 131.234 36.1903 131.358 36.1282C131.482 36.0662 131.565 35.9422 131.585 35.7974C131.606 35.6734 131.565 35.57 131.482 35.4873C131.399 35.4046 131.213 35.3425 130.903 35.3425H130.366L130.262 36.2316ZM132.578 33.9365H133.033L132.764 36.6038H132.309L132.578 33.9365Z" fill="white"/>
</svg>
