<svg width="144" height="38" viewBox="0 0 144 38" fill="none" xmlns="http://www.w3.org/2000/svg">
<path fill-rule="evenodd" clip-rule="evenodd" d="M6.26723 11.6674L4.59243 28.9737C6.474 28.9737 8.37624 28.9737 10.2578 28.9737L11.9326 11.6674H17.4119C17.5773 9.93058 17.7427 8.2351 17.9082 6.53962H1.24282C1.07741 8.2351 0.911995 9.93058 0.746582 11.6674H6.26723V11.6674ZM35.4626 6.53962C30.2107 6.53962 26.6544 6.53962 21.4645 6.53962C20.7408 13.9625 20.0172 21.4681 19.2935 28.9531C24.4833 28.9531 28.3292 28.9531 33.581 28.9531C33.7464 27.2576 33.9118 25.5207 34.0772 23.8666C30.707 23.8666 28.784 23.8666 25.4965 23.8666C25.6205 22.5226 25.7446 21.2407 25.8686 19.9174H33.4983C33.6637 18.2219 33.8291 16.5264 33.9945 14.8309H26.3649L26.675 11.6674C29.9833 11.6674 31.6374 11.6674 34.9663 11.6674C35.1318 9.95126 35.2972 8.21443 35.4626 6.53962ZM38.2539 17.767C37.5509 25.3967 42.9475 29.2425 48.6542 29.2012C53.4305 29.2012 58.7031 26.6993 60.1504 20.3516C58.1861 20.3516 56.4286 20.3516 54.5057 20.3516C53.658 22.7501 51.5903 23.97 49.1505 23.97C45.7595 23.9286 43.8573 21.0546 44.1674 17.7463C44.5189 14.0246 46.9794 11.502 50.3497 11.502C52.7482 11.502 54.361 12.5358 54.9399 14.8103C56.9042 14.8103 58.6204 14.8103 60.5846 14.8103C60.2952 8.81405 55.5189 6.2915 50.8666 6.2915C45.1599 6.2915 39.0189 10.1373 38.2539 17.767Z" fill="#AC1410"/>
<path fill-rule="evenodd" clip-rule="evenodd" d="M78.7797 21.0337C84.8173 17.1879 84.2383 6.58077 75.4301 6.56009C72.1632 6.56009 68.8343 6.56009 65.588 6.56009C64.8644 14.0657 64.1407 21.5093 63.417 28.9735C65.2779 28.9735 67.2215 28.9735 69.1444 28.9735L69.7854 22.3777H72.7628L75.9677 28.9735H82.3774L82.4601 28.1465L78.7797 21.0337ZM74.4169 17.2706H70.323C70.4884 15.4717 70.6952 13.4867 70.8606 11.6672C72.2045 11.6672 73.6105 11.6259 74.9545 11.6672C78.2214 11.7086 77.5184 17.2706 74.4169 17.2706ZM108.575 17.7875C109.298 10.2819 104.274 6.39468 98.7326 6.16724L98.133 11.7499C100.759 11.9567 103.095 13.9623 102.723 17.7875C102.351 21.6954 99.5597 23.7217 96.851 23.8871L96.8304 24.1559L96.2721 29.4284C101.896 29.3043 107.83 25.4171 108.575 17.7875ZM97.9883 6.16724L97.3886 11.7499C94.6593 11.874 91.8473 13.9003 91.4544 17.7875C91.0823 21.654 93.4394 23.6803 96.086 23.8664L95.4864 29.4284C89.9037 29.2423 84.8173 25.3551 85.5616 17.7875C86.306 10.1371 92.3022 6.24994 97.9883 6.16724ZM129.044 28.9735H131.091L133.263 6.53941C131.298 6.53941 129.355 6.53941 127.39 6.53941L126.336 17.5187L123.482 14.4585L122.655 22.1296L129.044 28.9735ZM122.842 13.7349L122.821 13.8589L122.014 21.4059L118.81 17.9529L117.734 28.9735C115.749 28.9735 113.764 28.9735 111.8 28.9735L113.971 6.45671H116.06L122.842 13.7349Z" fill="black"/>
<path d="M98.0911 5.24714L95.4492 29.9587L96.1688 30.0357L98.8107 5.32407L98.0911 5.24714Z" fill="white"/>
<path d="M123.748 5.31257L121.104 30.0242L121.823 30.1012L124.467 5.38957L123.748 5.31257Z" fill="white"/>
<path fill-rule="evenodd" clip-rule="evenodd" d="M139.424 0.64665C141.451 0.64665 143.105 2.30078 143.105 4.32708C143.105 6.35339 141.451 8.00752 139.424 8.00752C137.398 8.00752 135.744 6.35339 135.744 4.32708C135.723 2.30078 137.378 0.64665 139.424 0.64665ZM139.424 0.357178C137.233 0.357178 135.455 2.13536 135.455 4.32708C135.455 6.5188 137.233 8.29699 139.424 8.29699C141.616 8.29699 143.394 6.5188 143.394 4.32708C143.374 2.13536 141.596 0.357178 139.424 0.357178Z" fill="black"/>
<path fill-rule="evenodd" clip-rule="evenodd" d="M137.502 6.66361V1.78394H139.673C140.107 1.78394 140.438 1.82529 140.665 1.90799C140.893 1.9907 141.079 2.15611 141.203 2.36288C141.348 2.59032 141.41 2.83844 141.41 3.10724C141.41 3.45874 141.306 3.74821 141.079 3.97565C140.852 4.2031 140.521 4.36851 140.045 4.43054C140.211 4.51325 140.355 4.59595 140.438 4.67866C140.624 4.84407 140.81 5.07151 140.976 5.31963L141.823 6.64293H141.017L140.376 5.62978C140.19 5.34031 140.024 5.11287 139.921 4.94745C139.797 4.78204 139.694 4.67866 139.59 4.61663C139.487 4.5546 139.404 4.51325 139.301 4.49257C139.218 4.47189 139.115 4.47189 138.949 4.47189H138.205V6.64293H137.502V6.66361ZM138.143 3.9343H139.528C139.818 3.9343 140.045 3.91362 140.211 3.85159C140.376 3.78956 140.5 3.68618 140.583 3.56212C140.665 3.43806 140.707 3.27265 140.707 3.12791C140.707 2.90047 140.624 2.71438 140.459 2.54897C140.293 2.40423 140.024 2.32153 139.673 2.32153H138.122V3.9343H138.143Z" fill="black"/>
<path d="M1.51134 32.9229H4.40606L4.03388 36.6033H3.53764L3.86847 33.3571H1.94555L1.61472 36.6033H1.13916L1.51134 32.9229Z" fill="black"/>
<path d="M4.6958 37.6372L5.06798 33.9361H5.48151L5.44016 34.2876C5.54354 34.1428 5.6676 34.0601 5.79166 33.9774C5.91572 33.9154 6.08113 33.874 6.24655 33.874C6.47399 33.874 6.66008 33.9361 6.82549 34.0601C6.9909 34.1842 7.09429 34.3496 7.17699 34.5564C7.23902 34.7631 7.2597 35.0112 7.23902 35.2594C7.21834 35.5282 7.13564 35.7763 7.01158 36.0037C6.88752 36.2312 6.74278 36.3966 6.53602 36.5C6.32925 36.624 6.14316 36.6654 5.9364 36.6654C5.79166 36.6654 5.64692 36.624 5.54354 36.562C5.44016 36.5 5.33677 36.4172 5.27475 36.3139L5.15069 37.6165H4.6958V37.6372ZM5.33677 35.28C5.29542 35.6315 5.33678 35.8797 5.46083 36.0451C5.58489 36.2105 5.75031 36.2932 5.9364 36.2932C6.14316 36.2932 6.30857 36.2105 6.47399 36.0451C6.6394 35.8797 6.74278 35.6109 6.76346 35.2594C6.80481 34.9285 6.74278 34.6597 6.6394 34.4943C6.51534 34.3289 6.34993 34.2462 6.16384 34.2462C5.97775 34.2462 5.79166 34.3289 5.62625 34.515C5.46083 34.6804 5.35745 34.9492 5.33677 35.28Z" fill="black"/>
<path d="M7.63143 35.2799C7.67279 34.7836 7.85887 34.4114 8.14835 34.184C8.39647 33.9772 8.68594 33.8945 9.01676 33.8945C9.38894 33.8945 9.67841 34.0186 9.88518 34.246C10.0919 34.4942 10.1747 34.825 10.1333 35.2385C10.0919 35.59 10.0299 35.8588 9.90586 36.0449C9.7818 36.2517 9.61638 36.3964 9.40962 36.4998C9.20285 36.6032 8.97541 36.6652 8.74797 36.6652C8.37579 36.6652 8.08632 36.5411 7.87955 36.3137C7.67278 36.0656 7.59008 35.7347 7.63143 35.2799ZM8.10699 35.2799C8.06564 35.6314 8.12767 35.8795 8.25173 36.0449C8.37579 36.2103 8.56188 36.293 8.78932 36.293C9.01676 36.293 9.20285 36.2103 9.36827 36.0449C9.53368 35.8795 9.63706 35.6107 9.67841 35.2592C9.71977 34.9284 9.65774 34.6802 9.53368 34.5148C9.40962 34.3494 9.22353 34.2667 8.99609 34.2667C8.76864 34.2667 8.58256 34.3494 8.41714 34.5148C8.23105 34.6802 8.12767 34.9284 8.10699 35.2799Z" fill="black"/>
<path d="M12.4698 32.9229H12.9247L12.8007 34.2048C12.904 34.1014 13.0074 34.0187 13.1315 33.9567C13.2555 33.8947 13.3796 33.874 13.5037 33.874C13.8138 33.874 14.0619 33.998 14.2273 34.2668C14.3928 34.5356 14.4548 34.8665 14.4134 35.2593C14.3721 35.6728 14.248 36.0243 14.0206 36.2725C13.7931 36.5206 13.5243 36.6653 13.2349 36.6653C13.1315 36.6653 13.0488 36.6446 12.9454 36.624C12.842 36.6033 12.7386 36.5206 12.6146 36.3758L12.4905 37.6371H12.0356L12.1597 36.3758C12.0563 36.4792 11.9529 36.5413 11.8289 36.6033C11.7048 36.6446 11.6014 36.686 11.4567 36.686C11.1672 36.686 10.9398 36.5619 10.7537 36.3138C10.5676 36.0657 10.5056 35.7142 10.5469 35.2593C10.5883 34.8665 10.7123 34.5563 10.9191 34.2875C11.1259 34.0187 11.3947 33.8947 11.7255 33.8947C11.8495 33.8947 11.9736 33.9153 12.077 33.9774C12.1804 34.0394 12.2631 34.1014 12.3458 34.2255L12.4698 32.9229ZM11.0018 35.2386C10.9604 35.6108 11.0018 35.8796 11.1052 36.045C11.2086 36.2104 11.374 36.2931 11.5601 36.2931C11.7462 36.2931 11.9116 36.2104 12.015 36.045C12.1183 35.8796 12.201 35.6315 12.2424 35.3007C12.2837 34.9492 12.2631 34.6804 12.1597 34.515C12.077 34.3289 11.9322 34.2462 11.7255 34.2462C11.5394 34.2462 11.374 34.3289 11.2499 34.515C11.1052 34.6804 11.0225 34.9285 11.0018 35.2386ZM12.6973 35.28C12.6559 35.6728 12.6766 35.9623 12.78 36.0864C12.8834 36.2311 13.0074 36.2931 13.1728 36.2931C13.3589 36.2931 13.5243 36.2104 13.6691 36.045C13.8138 35.8796 13.9172 35.6108 13.9379 35.2593C13.9792 34.9285 13.9379 34.6597 13.8345 34.4943C13.7311 34.3289 13.5864 34.2462 13.4003 34.2462C13.1935 34.2462 13.0281 34.3289 12.9247 34.515C12.8007 34.6804 12.718 34.9285 12.6973 35.28Z" fill="black"/>
<path d="M16.7293 35.7554L17.1842 35.8175C17.0808 36.0862 16.9154 36.3137 16.7087 36.4584C16.5019 36.6032 16.2331 36.6859 15.9229 36.6859C15.5301 36.6859 15.2406 36.5618 15.0338 36.3344C14.8271 36.0862 14.7444 35.7554 14.7857 35.3212C14.8271 34.8663 14.9718 34.5148 15.2406 34.2667C15.4887 34.0186 15.8196 33.8945 16.1711 33.8945C16.5226 33.8945 16.812 34.0186 17.0188 34.2667C17.2256 34.5148 17.3083 34.8457 17.2462 35.3005C17.2462 35.3212 17.2462 35.3626 17.2256 35.4246H15.2406C15.2199 35.7141 15.282 35.9415 15.4267 36.1069C15.5508 36.2723 15.7369 36.3344 15.9643 36.3344C16.1297 36.3344 16.2744 36.293 16.3985 36.2103C16.5226 36.0862 16.6259 35.9415 16.7293 35.7554ZM15.3026 35.0111H16.7914C16.7914 34.7836 16.75 34.6182 16.6673 34.5148C16.5432 34.3494 16.3571 34.246 16.1297 34.246C15.9229 34.246 15.7369 34.3081 15.5921 34.4528C15.4474 34.5975 15.344 34.7836 15.3026 35.0111Z" fill="black"/>
<path d="M19.5209 35.6315L19.9551 35.6936C19.8724 36.0037 19.7277 36.2312 19.5003 36.4172C19.2728 36.5827 19.0247 36.686 18.7352 36.686C18.363 36.686 18.0943 36.562 17.8875 36.3345C17.6807 36.0864 17.6187 35.7556 17.66 35.3007C17.6807 35.0112 17.7634 34.7631 17.8875 34.5357C18.0115 34.3289 18.1563 34.1635 18.363 34.0394C18.5698 33.9361 18.7973 33.874 19.0247 33.874C19.3142 33.874 19.5416 33.9567 19.707 34.1015C19.8724 34.2462 19.9758 34.453 19.9965 34.7218L19.5416 34.7838C19.5209 34.5977 19.4589 34.4736 19.3555 34.3703C19.2521 34.2876 19.1281 34.2255 18.9833 34.2255C18.7559 34.2255 18.5698 34.3082 18.4044 34.4736C18.239 34.6391 18.1563 34.8872 18.1149 35.2594C18.0736 35.6109 18.1149 35.8797 18.239 36.0451C18.363 36.2105 18.5285 36.2932 18.7559 36.2932C18.942 36.2932 19.0867 36.2312 19.2108 36.1278C19.3762 36.0244 19.4796 35.859 19.5209 35.6315Z" fill="black"/>
<path d="M22.1259 35.6315L22.5601 35.6936C22.4774 36.0037 22.3327 36.2312 22.1052 36.4172C21.8778 36.5827 21.6297 36.686 21.3402 36.686C20.968 36.686 20.6992 36.562 20.4925 36.3345C20.2857 36.0864 20.2237 35.7556 20.265 35.3007C20.2857 35.0112 20.3684 34.7631 20.4925 34.5357C20.6165 34.3289 20.7613 34.1635 20.968 34.0394C21.1748 33.9361 21.4022 33.874 21.6297 33.874C21.9192 33.874 22.1466 33.9567 22.312 34.1015C22.4774 34.2462 22.5808 34.453 22.6015 34.7218L22.1466 34.7838C22.1259 34.5977 22.0639 34.4736 21.9605 34.3703C21.8571 34.2876 21.7331 34.2255 21.5883 34.2255C21.3609 34.2255 21.1748 34.3082 21.0094 34.4736C20.844 34.6391 20.7613 34.8872 20.7199 35.2594C20.6786 35.6109 20.7199 35.8797 20.844 36.0451C20.968 36.2105 21.1334 36.2932 21.3609 36.2932C21.547 36.2932 21.6917 36.2312 21.8158 36.1278C21.9812 36.0244 22.0639 35.859 22.1259 35.6315Z" fill="black"/>
<path d="M23.1394 33.936H23.5943L23.3875 35.983L24.8556 33.936H25.3518L25.083 36.6033H24.6281L24.8349 34.577L23.3668 36.6033H22.8706L23.1394 33.936Z" fill="black"/>
<path d="M25.7237 35.2799C25.7651 34.7836 25.9512 34.4114 26.2406 34.184C26.4888 33.9772 26.7782 33.8945 27.1091 33.8945C27.4812 33.8945 27.7707 34.0186 27.9775 34.246C28.1842 34.4942 28.2669 34.825 28.2256 35.2385C28.1842 35.59 28.1222 35.8588 27.9981 36.0449C27.8741 36.2517 27.7087 36.3964 27.5019 36.4998C27.2951 36.6032 27.0677 36.6652 26.8403 36.6652C26.4681 36.6652 26.1786 36.5411 25.9718 36.3137C25.7651 36.0656 25.6824 35.7347 25.7237 35.2799ZM26.1993 35.2799C26.1579 35.6314 26.22 35.8795 26.344 36.0449C26.4681 36.2103 26.6542 36.293 26.8816 36.293C27.109 36.293 27.2951 36.2103 27.4606 36.0449C27.626 35.8795 27.7293 35.6107 27.7707 35.2592C27.8121 34.9284 27.75 34.6802 27.626 34.5148C27.5019 34.3494 27.3158 34.2667 27.0884 34.2667C26.8609 34.2667 26.6748 34.3494 26.5094 34.5148C26.3233 34.6802 26.22 34.9284 26.1993 35.2799Z" fill="black"/>
<path d="M28.908 33.936H29.3628L29.2595 35.0526H30.5207L30.6241 33.936H31.079L30.8102 36.6033H30.3553L30.4794 35.4247H29.2181L29.094 36.6033H28.6392L28.908 33.936Z" fill="black"/>
<path d="M33.2707 36.2724C33.0846 36.4172 32.9192 36.5206 32.7538 36.5826C32.5884 36.6446 32.423 36.6653 32.2369 36.6653C31.9474 36.6653 31.72 36.6033 31.5752 36.4585C31.4305 36.3138 31.3685 36.1277 31.3891 35.9003C31.4098 35.7762 31.4512 35.6521 31.5132 35.5488C31.5752 35.4454 31.6786 35.3627 31.782 35.28C31.8854 35.2179 31.9888 35.1559 32.1335 35.1352C32.2162 35.1145 32.3609 35.0939 32.547 35.0732C32.9192 35.0318 33.188 34.9698 33.3741 34.9078C33.3741 34.8457 33.3948 34.8044 33.3948 34.7837C33.4154 34.5976 33.3741 34.4736 33.3121 34.3909C33.2087 34.2875 33.0433 34.2461 32.8158 34.2461C32.609 34.2461 32.4436 34.2875 32.3403 34.3495C32.2369 34.4322 32.1335 34.5563 32.0715 34.7424L31.6372 34.6803C31.6993 34.4942 31.782 34.3288 31.8854 34.2255C31.9888 34.1014 32.1335 34.0187 32.3196 33.9567C32.5057 33.8946 32.7124 33.8533 32.9399 33.8533C33.1673 33.8533 33.3534 33.8739 33.4981 33.936C33.6429 33.998 33.7256 34.06 33.7876 34.1427C33.8496 34.2255 33.891 34.3288 33.891 34.4529C33.891 34.5356 33.891 34.6597 33.8703 34.8664L33.8083 35.466C33.7669 35.8796 33.7463 36.1484 33.7669 36.2724C33.7669 36.3758 33.8083 36.4999 33.8496 36.6033H33.3741C33.2914 36.5206 33.2914 36.3965 33.2707 36.2724ZM33.3534 35.2593C33.188 35.3213 32.9399 35.3833 32.5884 35.4247C32.4023 35.4454 32.2575 35.4867 32.1748 35.5074C32.0921 35.5488 32.0301 35.5901 31.9888 35.6521C31.9474 35.7142 31.906 35.7969 31.906 35.8589C31.8854 35.983 31.9267 36.0863 32.0094 36.1691C32.0921 36.2518 32.2162 36.2931 32.4023 36.2931C32.5677 36.2931 32.7331 36.2518 32.8778 36.1691C33.0226 36.0863 33.126 35.983 33.2087 35.8589C33.2707 35.7555 33.3121 35.6108 33.3327 35.404L33.3534 35.2593Z" fill="black"/>
<path d="M34.8627 33.936H36.9717L36.7029 36.6033H36.248L36.4755 34.3082H35.2762L35.1522 35.6315C35.1108 35.9417 35.0901 36.1484 35.0695 36.2518C35.0488 36.3552 34.9661 36.4379 34.8834 36.5206C34.78 36.6033 34.6559 36.624 34.4698 36.624C34.3665 36.624 34.2424 36.624 34.0977 36.6033L34.139 36.2311H34.3458C34.4492 36.2311 34.5112 36.2311 34.5525 36.2105C34.5939 36.1898 34.6146 36.1691 34.6352 36.1278C34.6559 36.0864 34.6766 35.9417 34.6973 35.7142L34.8627 33.936Z" fill="black"/>
<path d="M37.6754 33.936H38.1302L38.0269 34.9905H38.6058C38.978 34.9905 39.2675 35.0526 39.4536 35.1973C39.6396 35.342 39.7223 35.5488 39.7017 35.7969C39.681 36.0244 39.5776 36.2105 39.3915 36.3759C39.2054 36.5413 38.9366 36.624 38.5645 36.624H37.4272L37.6754 33.936ZM37.8821 36.2311H38.3577C38.6472 36.2311 38.8539 36.1898 38.978 36.1278C39.1021 36.0657 39.1848 35.9417 39.1848 35.7969C39.2054 35.6729 39.1641 35.5695 39.0814 35.4868C38.9987 35.4041 38.8126 35.342 38.5024 35.342H37.9648L37.8821 36.2311Z" fill="black"/>
<path d="M40.3831 33.936H40.8379L40.7346 35.0526H41.9958L42.0992 33.936H42.5541L42.2853 36.6033H41.8304L41.9545 35.4247H40.6932L40.5691 36.6033H40.1143L40.3831 33.936Z" fill="black"/>
<path d="M43.2369 33.936H43.6918L43.5884 34.9905H44.1673C44.5395 34.9905 44.829 35.0526 45.0151 35.1973C45.2012 35.342 45.2839 35.5488 45.2632 35.7969C45.2425 36.0244 45.1391 36.2105 44.953 36.3759C44.767 36.5413 44.4982 36.624 44.126 36.624H42.9888L43.2369 33.936ZM43.4643 36.2311H43.9399C44.2294 36.2311 44.4361 36.1898 44.5602 36.1278C44.6843 36.0657 44.767 35.9417 44.7876 35.7969C44.8083 35.6729 44.767 35.5695 44.6843 35.4868C44.6015 35.4041 44.4155 35.342 44.1053 35.342H43.5677L43.4643 36.2311ZM45.7801 33.936H46.235L45.9662 36.6033H45.5113L45.7801 33.936Z" fill="black"/>
<path d="M48.5916 35.7554L49.0465 35.8175C48.9431 36.0862 48.7777 36.3137 48.571 36.4584C48.3642 36.6032 48.0954 36.6859 47.7852 36.6859C47.3924 36.6859 47.1029 36.5618 46.8962 36.3344C46.6894 36.0862 46.6067 35.7554 46.648 35.3212C46.6894 34.8663 46.8341 34.5148 47.1029 34.2667C47.351 34.0186 47.6819 33.8945 48.0334 33.8945C48.3849 33.8945 48.6743 34.0186 48.8811 34.2667C49.0879 34.5148 49.1706 34.8457 49.1085 35.3005C49.1085 35.3212 49.1085 35.3626 49.0879 35.4246H47.1029C47.0822 35.7141 47.1443 35.9415 47.289 36.1069C47.4131 36.2723 47.5992 36.3344 47.8266 36.3344C47.992 36.3344 48.1367 36.293 48.2608 36.2103C48.4055 36.0862 48.5089 35.9415 48.5916 35.7554ZM47.1856 35.0111H48.6743C48.6743 34.7836 48.633 34.6182 48.5503 34.5148C48.4262 34.3494 48.2401 34.246 48.0127 34.246C47.8059 34.246 47.6198 34.3081 47.4751 34.4528C47.3304 34.5975 47.227 34.7836 47.1856 35.0111Z" fill="black"/>
<path d="M52.831 35.6315L53.2652 35.6936C53.1825 36.0037 53.0378 36.2312 52.8103 36.4172C52.5829 36.5827 52.3348 36.686 52.0453 36.686C51.6731 36.686 51.4043 36.562 51.1975 36.3345C50.9908 36.0864 50.9287 35.7556 50.9701 35.3007C50.9908 35.0112 51.0735 34.7631 51.1975 34.5357C51.3216 34.3289 51.4663 34.1635 51.6731 34.0394C51.8799 33.9361 52.1073 33.874 52.3348 33.874C52.6242 33.874 52.8517 33.9567 53.0171 34.1015C53.1825 34.2462 53.2859 34.453 53.3066 34.7218L52.8517 34.7838C52.831 34.5977 52.769 34.4736 52.6656 34.3703C52.5622 34.2876 52.4381 34.2255 52.2934 34.2255C52.066 34.2255 51.8799 34.3082 51.7145 34.4736C51.549 34.6391 51.4663 34.8872 51.425 35.2594C51.3836 35.6109 51.425 35.8797 51.549 36.0451C51.6731 36.2105 51.8385 36.2932 52.066 36.2932C52.252 36.2932 52.3968 36.2312 52.5208 36.1278C52.6863 36.0244 52.769 35.859 52.831 35.6315Z" fill="black"/>
<path d="M53.4717 37.6372L53.8439 33.9361H54.2574L54.216 34.2876C54.3194 34.1428 54.4435 34.0601 54.5675 33.9774C54.6916 33.9154 54.857 33.874 55.0224 33.874C55.2499 33.874 55.436 33.9361 55.6014 34.0601C55.7668 34.1842 55.8702 34.3496 55.9529 34.5564C56.0149 34.7631 56.0356 35.0112 56.0149 35.2594C55.9942 35.5282 55.9115 35.7763 55.7875 36.0037C55.6634 36.2312 55.5187 36.3966 55.3119 36.5C55.1051 36.624 54.919 36.6654 54.7123 36.6654C54.5675 36.6654 54.4228 36.624 54.3194 36.562C54.216 36.5 54.1127 36.4172 54.0506 36.3139L53.9266 37.6165H53.4717V37.6372ZM54.1127 35.28C54.0713 35.6315 54.1127 35.8797 54.2367 36.0451C54.3608 36.2105 54.5262 36.2932 54.7123 36.2932C54.919 36.2932 55.0845 36.2105 55.2499 36.0451C55.4153 35.8797 55.5187 35.6109 55.5393 35.2594C55.5807 34.9285 55.5187 34.6597 55.4153 34.4943C55.2912 34.3289 55.1258 34.2462 54.9397 34.2462C54.7536 34.2462 54.5675 34.3289 54.4021 34.515C54.2574 34.6804 54.154 34.9492 54.1127 35.28Z" fill="black"/>
<path d="M58.3724 35.7554L58.8273 35.8175C58.7239 36.0862 58.5585 36.3137 58.3517 36.4584C58.145 36.6032 57.8762 36.6859 57.566 36.6859C57.1732 36.6859 56.8837 36.5618 56.6769 36.3344C56.4702 36.0862 56.3874 35.7554 56.4288 35.3212C56.4701 34.8663 56.6149 34.5148 56.8837 34.2667C57.1318 34.0186 57.4626 33.8945 57.8141 33.8945C58.1656 33.8945 58.4551 34.0186 58.6619 34.2667C58.8686 34.5148 58.9513 34.8457 58.8893 35.3005C58.8893 35.3212 58.8893 35.3626 58.8686 35.4246H56.8837C56.863 35.7141 56.925 35.9415 57.0698 36.1069C57.1938 36.2723 57.3799 36.3344 57.6074 36.3344C57.7728 36.3344 57.9175 36.293 58.0416 36.2103C58.1863 36.0862 58.2897 35.9415 58.3724 35.7554ZM56.9664 35.0111H58.4551C58.4551 34.7836 58.4138 34.6182 58.331 34.5148C58.207 34.3494 58.0209 34.246 57.7935 34.246C57.5867 34.246 57.4006 34.3081 57.2559 34.4528C57.0904 34.5975 56.9871 34.7836 56.9664 35.0111Z" fill="black"/>
<path d="M59.84 33.936H61.7009L61.4734 36.2311H61.7629L61.6595 37.3683H61.2873L61.37 36.6033H59.261L59.1783 37.3683H58.8062L58.9095 36.2311H59.1577C59.5298 35.7969 59.7573 35.0319 59.84 33.936ZM60.1915 34.3082C60.0674 35.1766 59.8813 35.8176 59.5919 36.2311H61.0185L61.2046 34.3082H60.1915Z" fill="black"/>
<path d="M64.079 35.6315L64.5133 35.6936C64.4305 36.0037 64.2858 36.2312 64.0584 36.4172C63.8309 36.5827 63.5828 36.686 63.2933 36.686C62.9212 36.686 62.6524 36.562 62.4456 36.3345C62.2388 36.0864 62.1768 35.7556 62.2181 35.3007C62.2388 35.0112 62.3215 34.7631 62.4456 34.5357C62.5697 34.3289 62.7144 34.1635 62.9212 34.0394C63.1279 33.9361 63.3554 33.874 63.5828 33.874C63.8723 33.874 64.0997 33.9567 64.2651 34.1015C64.4305 34.2462 64.5339 34.453 64.5546 34.7218L64.0997 34.7838C64.079 34.5977 64.017 34.4736 63.9136 34.3703C63.8102 34.2876 63.6862 34.2255 63.5414 34.2255C63.314 34.2255 63.1279 34.3082 62.9625 34.4736C62.7971 34.6391 62.7144 34.8872 62.673 35.2594C62.6317 35.6109 62.673 35.8797 62.7971 36.0451C62.9212 36.2105 63.0866 36.2932 63.314 36.2932C63.5001 36.2932 63.6448 36.2312 63.7689 36.1278C63.9343 36.0244 64.0377 35.859 64.079 35.6315Z" fill="black"/>
<path d="M64.8646 33.936H67.0356L66.9943 34.3082H66.1259L65.8984 36.6033H65.4435L65.671 34.3082H64.8232L64.8646 33.936Z" fill="black"/>
<path d="M67.4905 33.936H68.545C68.7931 33.936 68.9999 33.9567 69.1033 33.9981C69.2273 34.0394 69.3307 34.1221 69.3927 34.2255C69.4754 34.3496 69.4961 34.4736 69.4961 34.639C69.4754 34.7631 69.4548 34.8872 69.3927 34.9699C69.3307 35.0732 69.248 35.1353 69.1239 35.1973C69.248 35.2387 69.3514 35.3214 69.4134 35.4247C69.4754 35.5488 69.5168 35.6729 69.4961 35.8383C69.4548 36.0864 69.3514 36.2725 69.1653 36.3965C68.9792 36.5206 68.7517 36.5826 68.4209 36.5826H67.2217L67.4905 33.936ZM67.6972 36.2311H68.2969C68.545 36.2311 68.7311 36.2105 68.8345 36.1484C68.9378 36.0864 68.9999 35.983 69.0205 35.8383C69.0205 35.7556 68.9999 35.6729 68.9585 35.5902C68.9172 35.5075 68.8345 35.4661 68.7517 35.4454C68.669 35.4248 68.5243 35.4247 68.3175 35.4247H67.7593L67.6972 36.2311ZM67.8213 35.0526H68.2969C68.4829 35.0526 68.6277 35.0319 68.6897 35.0319C68.7724 35.0112 68.8345 34.9699 68.8965 34.9078C68.9585 34.8458 68.9999 34.7631 68.9999 34.6804C69.0205 34.5357 68.9792 34.4323 68.8758 34.3909C68.7724 34.3289 68.607 34.3082 68.3796 34.3082H67.8833L67.8213 35.0526Z" fill="black"/>
<path d="M71.6882 36.2724C71.5021 36.4172 71.3367 36.5206 71.1713 36.5826C71.0059 36.6446 70.8404 36.6653 70.6544 36.6653C70.3649 36.6653 70.1374 36.6033 69.9927 36.4585C69.848 36.3138 69.7859 36.1277 69.8066 35.9003C69.8273 35.7762 69.8686 35.6521 69.9307 35.5488C69.9927 35.4454 70.0961 35.3627 70.1995 35.28C70.3028 35.2179 70.4062 35.1559 70.551 35.1352C70.6337 35.1145 70.7784 35.0939 70.9645 35.0732C71.3367 35.0318 71.6055 34.9698 71.7916 34.9078C71.7916 34.8457 71.8122 34.8044 71.8122 34.7837C71.8329 34.5976 71.7916 34.4736 71.7295 34.3909C71.6261 34.2875 71.4607 34.2461 71.2333 34.2461C71.0265 34.2461 70.8611 34.2875 70.7577 34.3495C70.6544 34.4322 70.551 34.5563 70.4889 34.7424L70.0547 34.6803C70.1168 34.4942 70.1995 34.3288 70.3028 34.2255C70.4062 34.1014 70.551 34.0187 70.7371 33.9567C70.9231 33.8946 71.1299 33.8533 71.3574 33.8533C71.5848 33.8533 71.7709 33.8739 71.9156 33.936C72.0604 33.998 72.1431 34.06 72.2051 34.1427C72.2671 34.2255 72.3085 34.3288 72.3085 34.4529C72.3085 34.5356 72.3085 34.6597 72.2878 34.8664L72.2258 35.466C72.1844 35.8796 72.1637 36.1484 72.1844 36.2724C72.1844 36.3758 72.2258 36.4999 72.2671 36.6033H71.7916C71.7089 36.5206 71.6882 36.3965 71.6882 36.2724ZM71.7502 35.2593C71.5848 35.3213 71.3367 35.3833 70.9852 35.4247C70.7991 35.4454 70.6543 35.4867 70.5716 35.5074C70.4889 35.5488 70.4269 35.5901 70.3856 35.6521C70.3442 35.7142 70.3028 35.7969 70.3028 35.8589C70.2822 35.983 70.3235 36.0863 70.4062 36.1691C70.4889 36.2518 70.613 36.2931 70.7991 36.2931C70.9645 36.2931 71.1299 36.2518 71.2747 36.1691C71.4194 36.0863 71.5228 35.983 71.6055 35.8589C71.6675 35.7555 71.7089 35.6108 71.7295 35.404L71.7502 35.2593Z" fill="black"/>
<path d="M74.4792 33.936H74.9341L74.7274 35.983L76.1954 33.936H76.6916L76.4228 36.6033H75.968L76.1747 34.577L74.7067 36.6033H74.2104L74.4792 33.936Z" fill="black"/>
<path d="M77.3738 33.936H77.8287L77.7253 35.0526H78.9866L79.0899 33.936H79.5448L79.276 36.6033H78.8211L78.9452 35.4247H77.6839L77.5599 36.6033H77.105L77.3738 33.936Z" fill="black"/>
<path d="M80.5788 33.936H82.4396L82.2122 36.2311H82.5017L82.3983 37.3683H82.0261L82.1088 36.6033H79.9998L79.9171 37.3683H79.5449L79.6483 36.2311H79.8964C80.2479 35.7969 80.496 35.0319 80.5788 33.936ZM80.9302 34.3082C80.8062 35.1766 80.6201 35.8176 80.3306 36.2311H81.7573L81.9434 34.3082H80.9302Z" fill="black"/>
<path d="M83.2459 33.936H83.7007L83.494 35.983L84.962 33.936H85.4582L85.1894 36.6033H84.7346L84.9413 34.577L83.4733 36.6033H82.9771L83.2459 33.936Z" fill="black"/>
<path d="M86.1405 33.936H87.1951C87.4432 33.936 87.6499 33.9567 87.7533 33.9981C87.8774 34.0394 87.9808 34.1221 88.0428 34.2255C88.1255 34.3496 88.1462 34.4736 88.1462 34.639C88.1255 34.7631 88.1048 34.8872 88.0221 34.9699C87.9601 35.0732 87.8774 35.1353 87.7533 35.1973C87.8774 35.2387 87.9808 35.3214 88.0428 35.4247C88.1048 35.5488 88.1462 35.6729 88.1255 35.8383C88.0841 36.0864 87.9808 36.2725 87.7947 36.3965C87.6086 36.5206 87.3811 36.5826 87.0503 36.5826H85.8511L86.1405 33.936ZM86.368 36.2311H86.9676C87.2157 36.2311 87.4018 36.2105 87.5052 36.1484C87.6086 36.0864 87.6706 35.983 87.6913 35.8383C87.6913 35.7556 87.6706 35.6729 87.6293 35.5902C87.5879 35.5075 87.5052 35.4661 87.4225 35.4454C87.3398 35.4248 87.1951 35.4247 86.9883 35.4247H86.43L86.368 36.2311ZM86.492 35.0526H86.9676C87.1537 35.0526 87.2984 35.0319 87.3605 35.0319C87.4432 35.0112 87.5052 34.9699 87.5672 34.9078C87.6293 34.8458 87.6706 34.7631 87.6706 34.6804C87.6913 34.5357 87.6499 34.4323 87.5466 34.3909C87.4432 34.3289 87.2778 34.3082 87.0503 34.3082H86.5541L86.492 35.0526Z" fill="black"/>
<path d="M88.8909 33.936H89.3458L89.139 35.983L90.607 33.936H91.1033L90.8345 36.6033H90.3796L90.5863 34.577L89.1183 36.6033H88.6221L88.8909 33.936Z" fill="black"/>
<path d="M92.1373 33.936H93.9982L93.7708 36.2311H94.0603L93.9569 37.3683H93.5847L93.6674 36.6033H91.5584L91.4757 37.3683H91.1035L91.2069 36.2311H91.455C91.8272 35.7969 92.0546 35.0319 92.1373 33.936ZM92.4888 34.3082C92.3648 35.1766 92.1787 35.8176 91.8892 36.2311H93.3159L93.502 34.3082H92.4888Z" fill="black"/>
<path d="M94.4116 37.6372V37.203C94.515 37.2237 94.5977 37.2444 94.6597 37.2444C94.7631 37.2444 94.8458 37.2237 94.9079 37.203C94.9699 37.1617 95.0319 37.1203 95.0733 37.0583C95.1146 37.0169 95.156 36.8929 95.2387 36.7275C95.2594 36.7068 95.2594 36.6654 95.28 36.6241L94.5357 33.9568H95.0319L95.4248 35.5075C95.4868 35.6936 95.5282 35.9004 95.5488 36.1278C95.6315 35.9211 95.6936 35.7143 95.7969 35.5282L96.5206 33.9775H96.9755L95.6936 36.6861C95.5488 36.9756 95.4454 37.1823 95.3834 37.2857C95.28 37.4305 95.1767 37.5338 95.0733 37.6165C94.9699 37.6786 94.8252 37.7199 94.6804 37.7199C94.6184 37.6993 94.515 37.6786 94.4116 37.6372Z" fill="black"/>
<path d="M98.8566 36.2724C98.6705 36.4172 98.5051 36.5206 98.3397 36.5826C98.1743 36.6446 98.0089 36.6653 97.8228 36.6653C97.5333 36.6653 97.3059 36.6033 97.1612 36.4585C97.0164 36.3138 96.9544 36.1277 96.9751 35.9003C96.9957 35.7762 97.0371 35.6521 97.0991 35.5488C97.1612 35.4454 97.2645 35.3627 97.3679 35.28C97.4713 35.2179 97.5747 35.1559 97.7194 35.1352C97.8021 35.1145 97.9469 35.0939 98.133 35.0732C98.5051 35.0318 98.7739 34.9698 98.96 34.9078C98.96 34.8457 98.9807 34.8044 98.9807 34.7837C99.0014 34.5976 98.96 34.4736 98.898 34.3909C98.7946 34.2875 98.6292 34.2461 98.4018 34.2461C98.195 34.2461 98.0296 34.2875 97.9262 34.3495C97.8228 34.4322 97.7194 34.5563 97.6574 34.7424L97.2232 34.6803C97.2852 34.4942 97.3679 34.3288 97.4713 34.2255C97.5747 34.1014 97.7194 34.0187 97.9055 33.9567C98.0916 33.8946 98.2984 33.8533 98.5258 33.8533C98.7533 33.8533 98.9393 33.8739 99.0841 33.936C99.2288 33.998 99.3115 34.06 99.3736 34.1427C99.4356 34.2255 99.4769 34.3288 99.4769 34.4529C99.4769 34.5356 99.4769 34.6597 99.4563 34.8664L99.3942 35.466C99.3529 35.8796 99.3322 36.1484 99.3529 36.2724C99.3529 36.3758 99.3942 36.4999 99.4356 36.6033H98.96C98.8773 36.5206 98.8566 36.3965 98.8566 36.2724ZM98.9187 35.2593C98.7533 35.3213 98.5051 35.3833 98.1536 35.4247C97.9675 35.4454 97.8228 35.4867 97.7401 35.5074C97.6574 35.5488 97.5954 35.5901 97.554 35.6521C97.5127 35.7142 97.4713 35.7969 97.4713 35.8589C97.4506 35.983 97.492 36.0863 97.5747 36.1691C97.6574 36.2518 97.7815 36.2931 97.9675 36.2931C98.133 36.2931 98.2984 36.2518 98.4431 36.1691C98.5878 36.0863 98.6912 35.983 98.7739 35.8589C98.836 35.7555 98.8773 35.6108 98.898 35.404L98.9187 35.2593Z" fill="black"/>
<path d="M100.45 33.936H102.559L102.29 36.6033H101.835L102.062 34.3082H100.863L100.739 35.6315C100.698 35.9417 100.677 36.1484 100.656 36.2518C100.636 36.3552 100.553 36.4379 100.47 36.5206C100.367 36.6033 100.243 36.624 100.057 36.624C99.9534 36.624 99.8293 36.624 99.6846 36.6033L99.7259 36.2311H99.9327C100.036 36.2311 100.098 36.2311 100.139 36.2105C100.181 36.1898 100.201 36.1691 100.222 36.1278C100.243 36.0864 100.264 35.9417 100.284 35.7142L100.45 33.936Z" fill="black"/>
<path d="M103.241 33.936H103.696L103.592 34.9905H104.171C104.543 34.9905 104.833 35.0526 105.019 35.1973C105.205 35.342 105.288 35.5488 105.267 35.7969C105.246 36.0244 105.143 36.2105 104.957 36.3759C104.771 36.5413 104.502 36.624 104.13 36.624H102.993L103.241 33.936ZM103.468 36.2311H103.944C104.233 36.2311 104.44 36.1898 104.564 36.1278C104.688 36.0657 104.771 35.9417 104.771 35.7969C104.792 35.6729 104.75 35.5695 104.667 35.4868C104.585 35.4041 104.399 35.342 104.089 35.342H103.551L103.468 36.2311Z" fill="black"/>
<path d="M105.949 33.936H106.404L106.3 35.0526H107.562L107.665 33.936H108.12L107.851 36.6033H107.396L107.52 35.4247H106.259L106.135 36.6033H105.68L105.949 33.936Z" fill="black"/>
<path d="M108.492 35.2799C108.534 34.7836 108.72 34.4114 109.009 34.184C109.257 33.9772 109.547 33.8945 109.878 33.8945C110.25 33.8945 110.539 34.0186 110.746 34.246C110.953 34.4942 111.035 34.825 110.994 35.2385C110.953 35.59 110.891 35.8588 110.767 36.0449C110.643 36.2517 110.477 36.3964 110.27 36.4998C110.064 36.6032 109.836 36.6652 109.609 36.6652C109.237 36.6652 108.947 36.5411 108.74 36.3137C108.534 36.0656 108.451 35.7347 108.492 35.2799ZM108.968 35.2799C108.926 35.6314 108.989 35.8795 109.113 36.0449C109.237 36.2103 109.423 36.293 109.65 36.293C109.878 36.293 110.064 36.2103 110.229 36.0449C110.395 35.8795 110.498 35.6107 110.539 35.2592C110.581 34.9284 110.519 34.6802 110.395 34.5148C110.27 34.3494 110.084 34.2667 109.857 34.2667C109.629 34.2667 109.443 34.3494 109.278 34.5148C109.092 34.6802 109.009 34.9284 108.968 35.2799Z" fill="black"/>
<path d="M111.677 33.936H112.131L111.925 35.983L113.393 33.936H113.889L113.62 36.6033H113.165L113.372 34.577L111.904 36.6033H111.408L111.677 33.936ZM113.351 32.9229H113.661C113.62 33.1296 113.517 33.295 113.393 33.3984C113.248 33.5018 113.083 33.5638 112.855 33.5638C112.648 33.5638 112.483 33.5018 112.359 33.3984C112.235 33.295 112.173 33.1296 112.173 32.9229H112.483C112.504 33.0469 112.524 33.1296 112.607 33.171C112.669 33.233 112.752 33.2537 112.876 33.2537C113.02 33.2537 113.124 33.233 113.186 33.171C113.269 33.1296 113.331 33.0469 113.351 32.9229Z" fill="black"/>
<path d="M116.432 35.404L116.474 35.0525C116.66 35.0525 116.804 35.0525 116.866 35.0318C116.928 35.0111 117.011 34.9698 117.073 34.9078C117.135 34.8457 117.177 34.763 117.197 34.6596C117.218 34.5356 117.177 34.4322 117.094 34.3702C117.011 34.2875 116.928 34.2668 116.784 34.2668C116.536 34.2668 116.329 34.4115 116.205 34.7217L115.791 34.6596C115.977 34.1634 116.329 33.9153 116.846 33.9153C117.135 33.9153 117.342 33.998 117.487 34.1427C117.631 34.3081 117.693 34.4942 117.673 34.701C117.652 34.9284 117.528 35.0938 117.301 35.2179C117.425 35.3006 117.528 35.3833 117.569 35.4867C117.631 35.5901 117.652 35.7348 117.631 35.8796C117.611 36.1277 117.507 36.3138 117.301 36.4585C117.115 36.6032 116.866 36.6859 116.556 36.6859C115.957 36.6859 115.626 36.4172 115.584 35.8796L116.019 35.7969C116.039 35.9623 116.101 36.107 116.205 36.1897C116.308 36.2724 116.453 36.3344 116.598 36.3344C116.742 36.3344 116.887 36.2931 116.99 36.2104C117.094 36.1277 117.156 36.0036 117.177 35.8796C117.197 35.7762 117.156 35.6935 117.115 35.6108C117.053 35.5281 116.99 35.4867 116.928 35.466C116.866 35.4454 116.722 35.4454 116.536 35.4454C116.536 35.404 116.494 35.404 116.432 35.404Z" fill="black"/>
<path d="M119.885 36.2724C119.699 36.4172 119.533 36.5206 119.368 36.5826C119.203 36.6446 119.037 36.6653 118.851 36.6653C118.562 36.6653 118.334 36.6033 118.189 36.4585C118.045 36.3138 117.983 36.1277 118.003 35.9003C118.024 35.7762 118.065 35.6521 118.127 35.5488C118.189 35.4454 118.293 35.3627 118.396 35.28C118.5 35.2179 118.603 35.1559 118.748 35.1352C118.83 35.1145 118.975 35.0939 119.161 35.0732C119.533 35.0318 119.802 34.9698 119.988 34.9078C119.988 34.8457 120.009 34.8044 120.009 34.7837C120.03 34.5976 119.988 34.4736 119.926 34.3909C119.823 34.2875 119.658 34.2461 119.43 34.2461C119.223 34.2461 119.058 34.2875 118.955 34.3495C118.851 34.4322 118.748 34.5563 118.686 34.7424L118.252 34.6803C118.314 34.4942 118.396 34.3288 118.5 34.2255C118.603 34.1221 118.748 34.0187 118.934 33.9567C119.12 33.8946 119.327 33.8533 119.554 33.8533C119.782 33.8533 119.968 33.8739 120.112 33.936C120.257 33.998 120.34 34.06 120.402 34.1427C120.464 34.2255 120.505 34.3288 120.505 34.4529C120.505 34.5356 120.505 34.6597 120.485 34.8664L120.423 35.466C120.381 35.8796 120.361 36.1484 120.381 36.2724C120.381 36.3758 120.423 36.4999 120.464 36.6033H119.988C119.906 36.5206 119.885 36.3965 119.885 36.2724ZM119.947 35.2593C119.782 35.3213 119.533 35.3833 119.182 35.4247C118.996 35.4454 118.851 35.4867 118.768 35.5074C118.686 35.5488 118.624 35.5901 118.582 35.6521C118.541 35.7142 118.5 35.7969 118.5 35.8589C118.479 35.983 118.52 36.0863 118.603 36.1691C118.686 36.2518 118.81 36.2931 118.996 36.2931C119.161 36.2931 119.327 36.2518 119.471 36.1691C119.616 36.0863 119.72 35.983 119.802 35.8589C119.864 35.7555 119.906 35.6108 119.926 35.404L119.947 35.2593Z" fill="black"/>
<path d="M121.271 33.936H121.725L121.498 36.2311H122.532L122.759 33.936H123.214L122.987 36.2311H124.021L124.248 33.936H124.703L124.475 36.2311H124.765L124.662 37.3683H124.289L124.372 36.6033H121.022L121.271 33.936Z" fill="black"/>
<path d="M125.509 33.936H125.964L125.757 35.983L127.225 33.936H127.721L127.453 36.6033H126.998L127.205 34.577L125.736 36.6033H125.24L125.509 33.936Z" fill="black"/>
<path d="M128.155 33.936H130.326L130.285 34.3082H129.417L129.189 36.6033H128.734L128.962 34.3082H128.093L128.155 33.936Z" fill="black"/>
<path d="M130.781 33.936H131.236L131.133 34.9905H131.712C132.084 34.9905 132.373 35.0526 132.56 35.1973C132.746 35.342 132.828 35.5488 132.808 35.7969C132.787 36.0244 132.684 36.2105 132.497 36.3759C132.311 36.5413 132.043 36.624 131.67 36.624H130.533L130.781 33.936ZM131.009 36.2311H131.484C131.774 36.2311 131.981 36.1898 132.105 36.1278C132.229 36.0657 132.311 35.9417 132.332 35.7969C132.353 35.6729 132.311 35.5695 132.229 35.4868C132.146 35.4041 131.96 35.342 131.65 35.342H131.112L131.009 36.2311ZM133.325 33.936H133.779L133.511 36.6033H133.056L133.325 33.936Z" fill="black"/>
</svg>
