<svg width="15" height="16" viewBox="0 0 15 16" fill="none" xmlns="http://www.w3.org/2000/svg">
<rect y="0.5" width="15" height="15" rx="2" fill="#0089CB"/>
<path d="M12.1872 10.3315V11.7428C12.1877 11.8738 12.1609 12.0035 12.1083 12.1236C12.0557 12.2436 11.9785 12.3514 11.8818 12.4399C11.7851 12.5285 11.6709 12.5959 11.5465 12.6379C11.4221 12.6799 11.2904 12.6955 11.1596 12.6837C9.70913 12.5264 8.31583 12.0317 7.09167 11.2394C5.95276 10.5172 4.98715 9.55346 4.26344 8.4168C3.46681 7.18953 2.97105 5.79222 2.81633 4.3381C2.80455 4.20801 2.82004 4.0769 2.86181 3.95311C2.90359 3.82932 2.97073 3.71557 3.05897 3.61909C3.14721 3.52262 3.25461 3.44554 3.37433 3.39277C3.49405 3.33999 3.62348 3.31267 3.75436 3.31255H5.16847C5.39723 3.3103 5.61901 3.39115 5.79246 3.54002C5.96591 3.68889 6.0792 3.89563 6.11122 4.1217C6.17091 4.57335 6.2816 5.01682 6.44118 5.44363C6.5046 5.61201 6.51833 5.79501 6.48073 5.97094C6.44314 6.14687 6.3558 6.30835 6.22906 6.43626L5.63042 7.03371C6.30144 8.21148 7.27855 9.18665 8.45865 9.85635L9.0573 9.25889C9.18546 9.1324 9.34726 9.04524 9.52354 9.00772C9.69982 8.9702 9.88318 8.9839 10.0519 9.04719C10.4796 9.20646 10.9239 9.31693 11.3764 9.3765C11.6054 9.40874 11.8145 9.52384 11.964 9.69992C12.1135 9.876 12.1929 10.1008 12.1872 10.3315Z" fill="white"/>
</svg>
