<svg version="1.1" xmlns="http://www.w3.org/2000/svg" xmlns:xlink="http://www.w3.org/1999/xlink">

    <!-- phone -->
    <symbol  viewBox="0 0 19 19" id="phone">
        <path d="M17.9995 13.7278V16.287C18.0004 16.5245 17.9517 16.7597 17.8563 16.9774C17.7609 17.1951 17.6211 17.3905 17.4457 17.5511C17.2702 17.7117 17.0632 17.834 16.8376 17.9101C16.6121 17.9862 16.3732 18.0145 16.1361 17.9931C13.5059 17.7078 10.9794 16.8109 8.75957 15.3742C6.69433 14.0644 4.94337 12.3169 3.63104 10.2558C2.18648 8.03034 1.28751 5.49657 1.00694 2.85976C0.985578 2.62386 1.01367 2.3861 1.08942 2.16163C1.16518 1.93716 1.28693 1.73089 1.44694 1.55596C1.60694 1.38102 1.80169 1.24125 2.01879 1.14555C2.23589 1.04985 2.47057 1.00031 2.7079 1.00008H5.27217C5.68698 0.996008 6.08913 1.14261 6.40366 1.41257C6.71818 1.68252 6.92362 2.05741 6.98168 2.46735C7.08991 3.28635 7.29063 4.09049 7.58001 4.86445C7.69501 5.16978 7.7199 5.50162 7.65173 5.82063C7.58355 6.13965 7.42518 6.43248 7.19537 6.66441L6.10983 7.7478C7.32662 9.88348 9.09844 11.6518 11.2384 12.8662L12.3239 11.7828C12.5563 11.5534 12.8497 11.3954 13.1694 11.3273C13.489 11.2593 13.8215 11.2841 14.1274 11.3989C14.9029 11.6877 15.7087 11.888 16.5293 11.9961C16.9445 12.0545 17.3237 12.2632 17.5948 12.5825C17.8658 12.9018 18.0099 13.3094 17.9995 13.7278Z" stroke-width="2" stroke-linecap="round" stroke-linejoin="round"/>
    </symbol>

    <!-- mail -->
    <symbol  viewBox="0 0 21 17" id="mail">
        <path d="M19.1176 3.63867C19.1176 2.67617 18.3024 1.88867 17.3059 1.88867H2.81176C1.81529 1.88867 1 2.67617 1 3.63867M19.1176 3.63867V14.1387C19.1176 15.1012 18.3024 15.8887 17.3059 15.8887H2.81176C1.81529 15.8887 1 15.1012 1 14.1387V3.63867M19.1176 3.63867L10.0588 9.76367L1 3.63867" stroke-width="2" stroke-linecap="round" stroke-linejoin="round"/>
    </symbol>

    <!-- ozon -->
    <symbol  viewBox="0 0 48 12" id="ozon">
        <path fill-rule="evenodd" clip-rule="evenodd" d="M6.0782 0.949576C5.02807 0.838714 3.96945 1.05654 3.04786 1.57312C2.12627 2.0897 1.38694 2.87967 0.931501 3.83445C0.47606 4.78923 0.326864 5.86195 0.50442 6.90516C0.681976 7.94837 1.17757 8.91085 1.92308 9.66033C2.66858 10.4098 3.62741 10.9095 4.66776 11.0906C5.70811 11.2718 6.77892 11.1256 7.733 10.6721C8.68707 10.2186 9.47758 9.4801 9.99587 8.55807C10.5142 7.63604 10.7348 6.57576 10.6274 5.52297C10.5093 4.35272 9.99237 3.25902 9.16378 2.42602C8.33518 1.59302 7.2455 1.07161 6.0782 0.949576V0.949576ZM5.91258 8.75462C5.34779 8.83056 4.77345 8.72722 4.27029 8.45912C3.76713 8.19103 3.36043 7.77166 3.10737 7.25996C2.8543 6.74825 2.76758 6.16993 2.8594 5.60629C2.95123 5.04264 3.21697 4.52199 3.61928 4.11752C4.0216 3.71306 4.54026 3.4451 5.10237 3.35131C5.66449 3.25753 6.2418 3.34262 6.75316 3.59465C7.26453 3.84667 7.68424 4.25295 7.95332 4.75638C8.22239 5.25982 8.3273 5.8351 8.2533 6.40137C8.17564 6.997 7.90423 7.55036 7.48108 7.97577C7.05793 8.40118 6.50665 8.67493 5.91258 8.75462V8.75462ZM13.3611 1.15223C13.1839 1.15265 13.0089 1.19268 12.849 1.2694C12.6891 1.34611 12.5483 1.45759 12.4368 1.59572C12.3253 1.73384 12.246 1.89514 12.2045 2.06788C12.1631 2.24062 12.1605 2.42044 12.1972 2.59428C12.3093 3.15744 12.8342 3.54223 13.4059 3.54223H16.724L11.5603 10.3907C11.5222 10.4413 11.4988 10.5015 11.4928 10.5646C11.4869 10.6278 11.4986 10.6913 11.5266 10.7481C11.5547 10.805 11.598 10.8528 11.6517 10.8864C11.7054 10.92 11.7673 10.9379 11.8306 10.9381H19.9303C20.5016 10.9381 21.0269 10.5534 21.139 9.99015C21.1756 9.81635 21.1732 9.63655 21.1317 9.46383C21.0903 9.29111 21.011 9.12982 20.8995 8.99169C20.7881 8.85355 20.6473 8.74204 20.4875 8.66528C20.3277 8.58851 20.1528 8.54842 19.9755 8.54791H15.9327L21.0924 1.70475C21.131 1.6537 21.1546 1.59289 21.1606 1.52914C21.1666 1.4654 21.1547 1.40123 21.1264 1.34386C21.098 1.28648 21.0543 1.23815 21.0001 1.20431C20.9458 1.17046 20.8833 1.15242 20.8194 1.15223H13.3611V1.15223ZM45.7269 1.17979C45.4587 1.2437 45.2204 1.39741 45.0512 1.61551C44.8821 1.83361 44.7922 2.10304 44.7966 2.37924V6.35852L38.3629 1.22738C38.3124 1.18725 38.2517 1.1622 38.1877 1.15512C38.1236 1.14804 38.0589 1.15923 38.0009 1.18738C37.943 1.21553 37.8941 1.25952 37.86 1.31427C37.8259 1.36902 37.8078 1.43232 37.808 1.49687V9.71322C37.8036 9.98943 37.8935 10.2589 38.0626 10.477C38.2318 10.6951 38.4702 10.8488 38.7383 10.9127C38.9125 10.9511 39.093 10.9498 39.2666 10.909C39.4401 10.8681 39.6023 10.7887 39.7412 10.6767C39.8801 10.5646 39.9921 10.4227 40.069 10.2615C40.1459 10.1003 40.1857 9.92383 40.1854 9.74514V5.73142L46.6192 10.8627C46.6696 10.9028 46.7303 10.9278 46.7944 10.9349C46.8584 10.9419 46.923 10.9308 46.981 10.9026C47.0389 10.8745 47.0878 10.8305 47.1219 10.7758C47.156 10.7211 47.174 10.6578 47.1739 10.5933V2.34694C47.1741 2.16829 47.1342 1.99188 47.0573 1.83071C46.9805 1.66954 46.8684 1.52772 46.7296 1.41571C46.5907 1.3037 46.4285 1.22435 46.255 1.18352C46.0815 1.14269 45.901 1.14142 45.7269 1.17979V1.17979ZM28.9753 3.31346C31.6966 3.31346 33.7299 4.75474 33.7299 6.04396C33.7299 7.33317 31.6966 8.77445 28.9753 8.77445C26.254 8.77445 24.2207 7.33317 24.2207 6.04396C24.2207 4.75474 26.254 3.31346 28.9753 3.31346M28.9753 0.923556C25.0364 0.923556 21.8433 3.21606 21.8433 6.04396C21.8433 8.87186 25.0364 11.1644 28.9753 11.1644C32.9142 11.1644 36.1072 8.87186 36.1072 6.04396C36.1072 3.21606 32.9141 0.923556 28.9753 0.923556V0.923556Z" />
    </symbol>

    <!-- avito -->
    <symbol viewBox="0 0 12 13" id="avito">
        <path d="M8.77049 12.0197C10.5538 12.0197 11.9995 10.5741 11.9995 8.79076C11.9995 7.00744 10.5538 5.56177 8.77049 5.56177C6.98717 5.56177 5.5415 7.00744 5.5415 8.79076C5.5415 10.5741 6.98717 12.0197 8.77049 12.0197Z" />
        <path d="M2.70078 10.2939C3.53088 10.2939 4.20381 9.62097 4.20381 8.79087C4.20381 7.96077 3.53088 7.28784 2.70078 7.28784C1.87068 7.28784 1.19775 7.96077 1.19775 8.79087C1.19775 9.62097 1.87068 10.2939 2.70078 10.2939Z" />
        <path d="M8.76975 4.79976C9.91759 4.79976 10.8481 3.86926 10.8481 2.72142C10.8481 1.57357 9.91759 0.643066 8.76975 0.643066C7.62191 0.643066 6.69141 1.57357 6.69141 2.72142C6.69141 3.86926 7.62191 4.79976 8.76975 4.79976Z" />
        <path d="M2.70103 5.37497C4.16661 5.37497 5.3547 4.18688 5.3547 2.7213C5.3547 1.25572 4.16661 0.067627 2.70103 0.067627C1.23545 0.067627 0.0473633 1.25572 0.0473633 2.7213C0.0473633 4.18688 1.23545 5.37497 2.70103 5.37497Z" />
    </symbol>

    <!-- cart -->
    <symbol viewBox="0 0 19 19" id="cart">
        <path d="M1 1H4.09091L6.16182 11.8395C6.23248 12.2122 6.42602 12.547 6.70856 12.7853C6.9911 13.0236 7.34463 13.1501 7.70727 13.1429H15.2182C15.5808 13.1501 15.9344 13.0236 16.2169 12.7853C16.4994 12.547 16.693 12.2122 16.7636 11.8395L18 5.04762H4.86364M7.95455 17.1905C7.95455 17.6376 7.60858 18 7.18182 18C6.75505 18 6.40909 17.6376 6.40909 17.1905C6.40909 16.7434 6.75505 16.381 7.18182 16.381C7.60858 16.381 7.95455 16.7434 7.95455 17.1905ZM16.4545 17.1905C16.4545 17.6376 16.1086 18 15.6818 18C15.2551 18 14.9091 17.6376 14.9091 17.1905C14.9091 16.7434 15.2551 16.381 15.6818 16.381C16.1086 16.381 16.4545 16.7434 16.4545 17.1905Z" stroke-linecap="round" stroke-linejoin="round"/>
    </symbol>

    <!-- search -->
    <svg viewBox="0 0 16 16" id="search">
        <path d="M15 15L11.6167 11.6167M13.4444 7.22222C13.4444 10.6587 10.6587 13.4444 7.22222 13.4444C3.78578 13.4444 1 10.6587 1 7.22222C1 3.78578 3.78578 1 7.22222 1C10.6587 1 13.4444 3.78578 13.4444 7.22222Z" stroke-linecap="round" stroke-linejoin="round"/>
    </svg>

    <!-- close -->
    <symbol fill-rule="evenodd" clip-rule="evenodd" viewBox="0 0 24 24" id="close">
        <path d="M12 11.293l10.293-10.293.707.707-10.293 10.293 10.293 10.293-.707.707-10.293-10.293-10.293 10.293-.707-.707 10.293-10.293-10.293-10.293.707-.707 10.293 10.293z"/>
    </symbol>

    <!-- double arrow -->
    <symbol width="21" height="16" viewBox="0 0 21 16" id="double_arrow">
        <path d="M20 6.83333L10.6667 0.999998L1.33333 6.83333M20 15L10.6667 9.16667L1.33333 15"  stroke-linecap="round" stroke-linejoin="round"/>
    </symbol>

    <!-- menu square -->
    <symbol viewBox="0 0 128 128" id="menu-square">
        <g clip-path="url(#clip0_1075_696)">
        <path d="M45.71 58H12.29C9.0313 57.9974 5.90683 56.7017 3.60258 54.3974C1.29833 52.0932 0.00264827 48.9687 0 45.71L0 12.29C0.00264827 9.0313 1.29833 5.90683 3.60258 3.60258C5.90683 1.29833 9.0313 0.00264827 12.29 0L45.71 0C48.9687 0.00264827 52.0932 1.29833 54.3974 3.60258C56.7017 5.90683 57.9974 9.0313 58 12.29V45.71C57.9974 48.9687 56.7017 52.0932 54.3974 54.3974C52.0932 56.7017 48.9687 57.9974 45.71 58V58ZM12.29 4C10.0922 4.00265 7.98511 4.8769 6.43101 6.43101C4.8769 7.98511 4.00265 10.0922 4 12.29V45.71C4.00265 47.9078 4.8769 50.0149 6.43101 51.569C7.98511 53.1231 10.0922 53.9974 12.29 54H45.71C47.9078 53.9974 50.0149 53.1231 51.569 51.569C53.1231 50.0149 53.9974 47.9078 54 45.71V12.29C53.9974 10.0922 53.1231 7.98511 51.569 6.43101C50.0149 4.8769 47.9078 4.00265 45.71 4H12.29Z" />
        <path d="M115.71 58H82.29C79.0313 57.9974 75.9068 56.7017 73.6026 54.3974C71.2983 52.0932 70.0026 48.9687 70 45.71V12.29C70.0026 9.0313 71.2983 5.90683 73.6026 3.60258C75.9068 1.29833 79.0313 0.00264827 82.29 0L115.71 0C118.969 0.00264827 122.093 1.29833 124.397 3.60258C126.702 5.90683 127.997 9.0313 128 12.29V45.71C127.997 48.9687 126.702 52.0932 124.397 54.3974C122.093 56.7017 118.969 57.9974 115.71 58ZM82.29 4C80.0922 4.00265 77.9851 4.8769 76.431 6.43101C74.8769 7.98511 74.0026 10.0922 74 12.29V45.71C74.0026 47.9078 74.8769 50.0149 76.431 51.569C77.9851 53.1231 80.0922 53.9974 82.29 54H115.71C117.908 53.9974 120.015 53.1231 121.569 51.569C123.123 50.0149 123.997 47.9078 124 45.71V12.29C123.997 10.0922 123.123 7.98511 121.569 6.43101C120.015 4.8769 117.908 4.00265 115.71 4H82.29Z" />
        <path d="M45.71 128H12.29C9.0313 127.997 5.90683 126.702 3.60258 124.397C1.29833 122.093 0.00264827 118.969 0 115.71V82.29C0.00264827 79.0313 1.29833 75.9068 3.60258 73.6026C5.90683 71.2983 9.0313 70.0026 12.29 70H45.71C48.9687 70.0026 52.0932 71.2983 54.3974 73.6026C56.7017 75.9068 57.9974 79.0313 58 82.29V115.71C57.9974 118.969 56.7017 122.093 54.3974 124.397C52.0932 126.702 48.9687 127.997 45.71 128V128ZM12.29 74C10.0922 74.0026 7.98511 74.8769 6.43101 76.431C4.8769 77.9851 4.00265 80.0922 4 82.29V115.71C4.00265 117.908 4.8769 120.015 6.43101 121.569C7.98511 123.123 10.0922 123.997 12.29 124H45.71C47.9078 123.997 50.0149 123.123 51.569 121.569C53.1231 120.015 53.9974 117.908 54 115.71V82.29C53.9974 80.0922 53.1231 77.9851 51.569 76.431C50.0149 74.8769 47.9078 74.0026 45.71 74H12.29Z" />
        <path d="M115.71 128H82.29C79.0313 127.997 75.9068 126.702 73.6026 124.397C71.2983 122.093 70.0026 118.969 70 115.71V82.29C70.0026 79.0313 71.2983 75.9068 73.6026 73.6026C75.9068 71.2983 79.0313 70.0026 82.29 70H115.71C118.969 70.0026 122.093 71.2983 124.397 73.6026C126.702 75.9068 127.997 79.0313 128 82.29V115.71C127.997 118.969 126.702 122.093 124.397 124.397C122.093 126.702 118.969 127.997 115.71 128V128ZM82.29 74C80.0922 74.0026 77.9851 74.8769 76.431 76.431C74.8769 77.9851 74.0026 80.0922 74 82.29V115.71C74.0026 117.908 74.8769 120.015 76.431 121.569C77.9851 123.123 80.0922 123.997 82.29 124H115.71C117.908 123.997 120.015 123.123 121.569 121.569C123.123 120.015 123.997 117.908 124 115.71V82.29C123.997 80.0922 123.123 77.9851 121.569 76.431C120.015 74.8769 117.908 74.0026 115.71 74H82.29Z" />
        </g>
        <defs>
        <clipPath id="clip0_1075_696">
        <rect/>
        </clipPath>
        </defs>
    </symbol>
</svg>