<svg width="100" height="52" viewBox="0 0 100 52" fill="none" xmlns="http://www.w3.org/2000/svg">
<path fill-rule="evenodd" clip-rule="evenodd" d="M48.0174 21.1099C48.425 20.5275 49.2403 20.2364 50.5215 20.2364H64.9927L65.313 15.17C60.2466 14.7041 54.0155 14.7041 48.3668 14.7041C46.94 14.7041 45.6589 14.9079 44.5815 15.3156C44.7271 15.4029 44.8436 15.4903 44.9892 15.5776C46.7071 16.8297 47.668 18.6058 48.0174 21.1099Z" fill="black"/>
<path fill-rule="evenodd" clip-rule="evenodd" d="M64.9922 38.1435H50.5209C48.5992 38.1435 47.7256 37.5321 47.7256 36.1344V31.0971H62.954V26.1472H48.1042C47.7839 28.9425 46.8521 30.8642 45.1051 32.1745C43.9404 33.048 42.4554 33.6012 40.5337 33.9506V37.7068C40.5628 41.3173 43.6201 43.6467 48.3371 43.6467C53.9858 43.6467 60.2169 43.6467 65.3124 43.1808L64.9922 38.1435Z" fill="black"/>
<path fill-rule="evenodd" clip-rule="evenodd" d="M34.1281 14.4128C29.1782 14.4128 26.2956 14.442 23.2383 14.6167C23.9079 14.8787 24.5194 15.199 25.0435 15.5775C26.4411 16.5675 27.3438 17.9069 27.8097 19.6831L33.9825 19.6539C38.583 19.6539 40.0098 20.5275 40.0098 23.9051C40.0098 27.2827 38.583 28.1562 33.9825 28.1562H27.8097C27.3438 29.9323 26.4703 31.2426 25.16 32.2326C23.9371 33.1352 22.3647 33.7176 20.3848 34.0378V43.5592H27.4894V32.9605C29.7896 33.2517 32.3811 33.4264 35.0598 33.4264C43.9988 33.4264 47.2017 31.3882 47.2017 23.9342C47.2308 16.4802 44.028 14.4128 34.1281 14.4128Z" fill="black"/>
<path fill-rule="evenodd" clip-rule="evenodd" d="M14.2411 14.4128C7.80616 14.4128 4.8362 14.442 0.526855 14.8205V43.5009H7.63146V32.9023C9.93172 33.1934 12.5231 33.3682 15.2019 33.3682C24.1409 33.3682 27.3438 31.3299 27.3438 23.8759C27.3438 16.4802 24.1409 14.4128 14.2411 14.4128ZM7.63146 28.1271V19.6831L14.1246 19.6539C18.7251 19.6539 20.1519 20.5275 20.1519 23.9051C20.1519 27.2827 18.7251 28.1562 14.1246 28.1562H7.63146V28.1271Z" fill="black"/>
<path fill-rule="evenodd" clip-rule="evenodd" d="M1.31284 49.4119V50.7513H0.497559V46.9078H1.80783C2.7687 46.9078 3.23458 47.3155 3.23458 48.1308C3.23458 48.5093 3.08899 48.8296 2.79782 49.0625C2.50665 49.2955 2.15724 49.4119 1.72048 49.4119H1.31284V49.4119ZM1.31284 47.5484V48.7713H1.66225C2.12812 48.7713 2.39018 48.5675 2.39018 48.1308C2.39018 47.7231 2.15724 47.5193 1.69137 47.5193H1.31284V47.5484ZM6.08807 50.7513H3.81692V46.9078H6.00071V47.5775H4.6322V48.4802H5.88424V49.1499H4.6322V50.0816H6.08807V50.7513ZM9.8733 50.7513H8.94155L8.33009 49.7613C8.21362 49.5575 8.09715 49.4119 8.03892 49.3537C7.95157 49.2955 7.86422 49.2663 7.77686 49.2663H7.54393V50.7513H6.72864V46.9078H8.06804C8.97067 46.9078 9.43655 47.2573 9.43655 47.9561C9.43655 48.2181 9.34919 48.4511 9.20361 48.6258C9.05802 48.8005 8.8542 48.946 8.56303 49.0334C8.73773 49.0916 8.94155 49.2955 9.14537 49.6157L9.8733 50.7513ZM7.54393 47.5484V48.6549H7.95157C8.15539 48.6549 8.30098 48.5966 8.41744 48.4802C8.53391 48.3637 8.59215 48.2181 8.59215 48.0725C8.59215 47.7231 8.38833 47.5484 7.98069 47.5484H7.54393ZM10.0771 49.7905C10.3974 50.0525 10.7468 50.169 11.1253 50.169C11.3583 50.169 11.5039 50.1399 11.6203 50.0525C11.7368 49.9652 11.795 49.8778 11.795 49.7613C11.795 49.6449 11.7368 49.5575 11.6495 49.4702C11.5621 49.3828 11.3292 49.2663 10.9506 49.0916C10.3392 48.8296 10.048 48.4802 10.048 47.9852C10.048 47.6358 10.1936 47.3446 10.4556 47.1699C10.7177 46.9661 11.0962 46.8787 11.533 46.8787C11.9115 46.8787 12.2318 46.937 12.4647 47.0243V47.7814C12.2027 47.6067 11.9115 47.5193 11.5621 47.5193C11.3583 47.5193 11.2127 47.5484 11.0671 47.6358C10.9506 47.7231 10.8924 47.8105 10.8924 47.927C10.8924 48.0143 10.9215 48.1308 11.0089 48.189C11.0962 48.2764 11.3 48.3928 11.6203 48.5384C11.9989 48.7131 12.2609 48.8878 12.4065 49.0625C12.5521 49.2372 12.6103 49.4702 12.6103 49.7031C12.6103 50.0816 12.4939 50.3437 12.2318 50.5475C11.9697 50.7513 11.5912 50.8387 11.1253 50.8387C10.6886 50.8387 10.3392 50.7804 10.048 50.6348V49.7905H10.0771ZM13.0762 48.8878C13.0762 48.2764 13.2509 47.8105 13.6003 47.432C13.9497 47.0534 14.4156 46.8787 14.9979 46.8787C15.5512 46.8787 15.9879 47.0534 16.3082 47.432C16.6285 47.8105 16.8032 48.2764 16.8032 48.8296C16.8032 49.4119 16.6285 49.9069 16.2791 50.2854C15.9297 50.664 15.4638 50.8387 14.9106 50.8387C14.3574 50.8387 13.9206 50.664 13.5712 50.2854C13.2218 49.9069 13.0762 49.441 13.0762 48.8878ZM13.9206 48.8296C13.9206 49.2081 14.0079 49.4993 14.1827 49.7322C14.3574 49.9652 14.6194 50.0816 14.9106 50.0816C15.2309 50.0816 15.4929 49.9652 15.6676 49.7322C15.8423 49.4993 15.9297 49.2081 15.9297 48.8296C15.9297 48.4219 15.8423 48.1017 15.6676 47.8978C15.4929 47.6649 15.26 47.5484 14.9397 47.5484C14.6194 47.5484 14.3574 47.6649 14.1827 47.8978C14.0079 48.1599 13.9206 48.4511 13.9206 48.8296ZM20.8505 50.7513H20.0061L18.3755 48.2764C18.2882 48.1599 18.2299 48.0434 18.2008 47.9561C18.2299 48.1017 18.2299 48.3055 18.2299 48.5675V50.7513H17.4438V46.9078H18.3464L19.9187 49.3246C20.0352 49.4993 20.0934 49.5866 20.1226 49.6157C20.0934 49.5284 20.0934 49.3537 20.0934 49.0916V46.9078H20.8796V50.7513H20.8505ZM25.0725 50.7513H24.1699L23.8787 49.8778H22.4811L22.1899 50.7513H21.3164L22.714 46.9078H23.6749L25.0725 50.7513ZM23.704 49.2372L23.2672 47.8978C23.2381 47.8105 23.209 47.694 23.209 47.5775H23.1799C23.1799 47.694 23.1508 47.8105 23.1216 47.8978L22.6849 49.2372H23.704ZM27.8095 50.7513H25.5675V46.9078H26.3828V50.0816H27.8095V50.7513ZM30.6339 49.4119V50.7513H29.8186V46.9078H31.1289C32.0897 46.9078 32.5556 47.3155 32.5556 48.1308C32.5556 48.5093 32.41 48.8296 32.1189 49.0625C31.8277 49.2955 31.4783 49.4119 31.0415 49.4119H30.6339V49.4119ZM30.6339 47.5484V48.7713H30.9833C31.4492 48.7713 31.7112 48.5675 31.7112 48.1308C31.7112 47.7231 31.4783 47.5193 31.0124 47.5193H30.6339V47.5484ZM36.3117 50.7513H35.38L34.7685 49.7613C34.6521 49.5575 34.5356 49.4119 34.4774 49.3537C34.39 49.2955 34.3027 49.2663 34.2153 49.2663H33.9824V50.7513H33.1671V46.9078H34.5065C35.4091 46.9078 35.875 47.2573 35.875 47.9561C35.875 48.2181 35.7876 48.4511 35.642 48.6258C35.4965 48.8005 35.2926 48.946 35.0015 49.0334C35.1762 49.0916 35.38 49.2955 35.5838 49.6157L36.3117 50.7513ZM33.9824 47.5484V48.6549H34.39C34.5938 48.6549 34.7394 48.5966 34.8559 48.4802C34.9724 48.3637 35.0306 48.2181 35.0306 48.0725C35.0306 47.7231 34.8268 47.5484 34.4191 47.5484H33.9824ZM36.3991 48.8878C36.3991 48.2764 36.5738 47.8105 36.9232 47.432C37.2726 47.0534 37.7385 46.8787 38.3208 46.8787C38.8741 46.8787 39.3108 47.0534 39.6311 47.432C39.9514 47.8105 40.1261 48.2764 40.1261 48.8296C40.1261 49.4119 39.9514 49.9069 39.602 50.2854C39.2526 50.664 38.7867 50.8387 38.2335 50.8387C37.6803 50.8387 37.2435 50.664 36.8941 50.2854C36.5738 49.9069 36.3991 49.441 36.3991 48.8878ZM37.2435 48.8296C37.2435 49.2081 37.3308 49.4993 37.5055 49.7322C37.6802 49.9652 37.9423 50.0816 38.2335 50.0816C38.5538 50.0816 38.8158 49.9652 38.9905 49.7322C39.1652 49.4993 39.2526 49.2081 39.2526 48.8296C39.2526 48.4219 39.1652 48.1017 38.9905 47.8978C38.8158 47.6649 38.5829 47.5484 38.2626 47.5484C37.9423 47.5484 37.6802 47.6649 37.5055 47.8978C37.36 48.1599 37.2435 48.4511 37.2435 48.8296ZM43.2125 47.5775H42.1061V50.7513H41.2908V47.5775H40.2134V46.9078H43.2125V47.5775ZM46.0078 50.7513H43.7366V46.9078H45.9204V47.5775H44.5519V48.4802H45.804V49.1499H44.5519V50.0816H46.0078V50.7513ZM49.3563 50.6057C49.0651 50.7513 48.7157 50.8096 48.2789 50.8096C47.6966 50.8096 47.2307 50.6348 46.9104 50.2854C46.561 49.936 46.4154 49.4702 46.4154 48.9169C46.4154 48.3055 46.5901 47.8105 46.9978 47.432C47.3763 47.0534 47.8713 46.8496 48.4536 46.8496C48.8321 46.8496 49.1524 46.9078 49.3854 46.9952V47.7814C49.1233 47.6358 48.8321 47.5484 48.5119 47.5484C48.1333 47.5484 47.8422 47.6649 47.6092 47.8978C47.3763 48.1308 47.2598 48.4511 47.2598 48.8296C47.2598 49.2081 47.3763 49.4993 47.5801 49.7322C47.7839 49.9652 48.0751 50.0816 48.4536 50.0816C48.803 50.0816 49.0942 49.9943 49.3854 49.8487V50.6057H49.3563ZM52.6756 47.5775H51.5692V50.7513H50.7539V47.5775H49.6765V46.9078H52.6756V47.5775ZM54.015 46.9078V50.7513H53.1997V46.9078H54.015ZM58.0623 46.9078L56.7229 50.7513H55.7912L54.4809 46.9078H55.3544L56.1697 49.6157C56.1988 49.7613 56.2279 49.8778 56.257 49.9943H56.2862C56.2862 49.8778 56.3153 49.7322 56.3735 49.6157L57.1888 46.9078H58.0623ZM60.7993 50.7513H58.5282V46.9078H60.712V47.5775H59.3435V48.4802H60.5955V49.1499H59.3435V50.0816H60.7993V50.7513ZM65.196 50.7513H62.9249V46.9078H65.1087V47.5775H63.7402V48.4802H64.9922V49.1499H63.7402V50.0816H65.196V50.7513ZM65.5745 48.8878C65.5745 48.2764 65.7492 47.8105 66.0987 47.432C66.4481 47.0534 66.9139 46.8787 67.4963 46.8787C68.0495 46.8787 68.4863 47.0534 68.8066 47.432C69.1268 47.8105 69.3015 48.2764 69.3015 48.8296C69.3015 49.4119 69.1268 49.9069 68.7774 50.2854C68.7483 50.3146 68.7483 50.3437 68.7192 50.3437L69.6801 51.2754H68.4571L67.9622 50.7513C67.7875 50.8096 67.6127 50.8096 67.4089 50.8096C66.8557 50.8096 66.4189 50.6349 66.0695 50.2563C65.7492 49.9069 65.5745 49.441 65.5745 48.8878ZM66.4481 48.8296C66.4481 49.2081 66.5354 49.4993 66.7101 49.7322C66.8848 49.9652 67.1469 50.0816 67.438 50.0816C67.7583 50.0816 68.0204 49.9652 68.1951 49.7322C68.3698 49.4993 68.4571 49.2081 68.4571 48.8296C68.4571 48.4219 68.3698 48.1017 68.1951 47.8978C68.0204 47.6649 67.7875 47.5484 67.4672 47.5484C67.1469 47.5484 66.8848 47.6649 66.7101 47.8978C66.5354 48.1599 66.4481 48.4511 66.4481 48.8296ZM73.0577 49.0916C73.0577 50.2272 72.5336 50.8096 71.4562 50.8096C70.4371 50.8096 69.913 50.2563 69.913 49.1499V46.9078H70.7283V49.1499C70.7283 49.7905 70.9903 50.1107 71.4853 50.1107C71.9803 50.1107 72.2133 49.7904 72.2133 49.179V46.9078H73.0286V49.0916H73.0577ZM74.7174 46.9078V50.7513H73.9021V46.9078H74.7174ZM76.4061 49.4119V50.7513H75.5909V46.9078H76.9011C77.862 46.9078 78.3279 47.3155 78.3279 48.1308C78.3279 48.5093 78.1823 48.8296 77.8911 49.0625C77.6 49.2955 77.2506 49.4119 76.8138 49.4119H76.4061V49.4119ZM76.4061 47.5484V48.7713H76.7556C77.2214 48.7713 77.4835 48.5675 77.4835 48.1308C77.4835 47.7231 77.2506 47.5193 76.7847 47.5193H76.4061V47.5484ZM82.4334 50.7513V48.4219C82.4334 48.2181 82.4334 47.9269 82.4625 47.6067H82.4334C82.3752 47.8396 82.3461 48.0143 82.3169 48.1017L81.3852 50.7513H80.7446L79.7837 48.1308C79.7546 48.0725 79.7255 47.8978 79.6673 47.6067H79.6382C79.6673 47.9269 79.6673 48.2472 79.6673 48.5675V50.7222H78.9393V46.8787H80.1332L80.9484 49.179C81.0067 49.3828 81.0649 49.5575 81.094 49.7322H81.1231C81.1814 49.5284 81.2396 49.3537 81.2687 49.179L82.084 46.8787H83.2487V50.7222H82.4334V50.7513ZM86.3934 50.7513H84.1222V46.9078H86.306V47.5775H84.9375V48.4802H86.1895V49.1499H84.9375V50.0816H86.3934V50.7513ZM90.4407 50.7513H89.5963L87.9657 48.2764C87.8783 48.1599 87.8201 48.0434 87.791 47.9561C87.8201 48.1017 87.8201 48.3055 87.8201 48.5675V50.7513H87.0339V46.9078H87.9366L89.5089 49.3246C89.6254 49.4993 89.6836 49.5866 89.7127 49.6157C89.6836 49.5284 89.6836 49.3537 89.6836 49.0916V46.9078H90.4698V50.7513H90.4407ZM93.9638 47.5775H92.8574V50.7513H92.0421V47.5775H90.9648V46.9078H93.9638V47.5775Z" fill="black"/>
<path fill-rule="evenodd" clip-rule="evenodd" d="M99.5547 15.6942L94.8378 22.857C94.8086 22.8861 94.8086 22.9153 94.7795 22.9444C92.0134 27.1664 90.936 32.2619 91.6931 37.2409L92.1881 40.4147C92.2754 40.9388 92.3628 41.492 92.421 42.0162C92.5375 42.7441 93.0616 43.21 93.6731 43.6467C87.7623 43.6467 80.8615 43.6467 74.9507 43.6467C75.5039 43.2391 76.028 42.7732 76.1445 42.0162L76.261 40.4147L76.6395 34.6204C76.6686 34.0671 76.6977 33.5139 76.6977 32.9898C76.6977 31.9998 76.6395 30.9807 76.523 29.9907C76.3774 28.8843 75.7951 27.8943 74.8633 27.2537C74.1937 26.817 73.6404 26.1764 73.2619 25.4485C72.0972 23.2647 70.3502 21.372 68.2246 20.0326L67.9043 19.8288C66.6523 19.0427 66.3029 17.3539 67.1473 16.1018L67.1764 16.0436C68.0499 14.7624 69.7969 14.5004 71.0199 15.4612C72.1263 16.3348 73.4657 17.4121 74.6013 18.2856C74.6886 18.373 74.8051 18.4312 74.8925 18.4603C75.9116 18.8971 76.6977 17.9653 76.6104 17.0045L75.1254 4.51317C75.1254 4.42582 75.0963 4.33847 75.0963 4.222C75.0963 3.05731 75.9116 2.03821 77.0763 1.80527C78.503 1.80527 79.8715 2.96996 80.0753 4.3967L81.3565 12.7533C81.4147 13.0445 81.8224 13.0154 81.8515 12.7242L82.4338 2.50408C82.5212 1.10645 83.6859 0 85.0835 0C85.1126 0 85.1417 0 85.2 0C86.6849 0.0582344 87.8205 1.31027 87.7332 2.79525L87.209 12.2583C87.1799 12.7825 87.9079 12.928 88.0826 12.4331L90.2081 6.20197C90.674 4.83346 92.2172 4.19288 93.5275 4.77522C94.6631 5.29933 95.1872 6.60961 94.8086 7.80341L92.1299 15.9271C91.9552 16.5095 92.6831 16.9171 93.0907 16.4512L96.0316 13.0445C96.8177 12.1419 98.1571 11.9963 99.0889 12.7242C99.9915 13.4813 100.195 14.7624 99.5547 15.6942Z" fill="#009FE3"/>
<path fill-rule="evenodd" clip-rule="evenodd" d="M84.0064 22.158C81.6188 19.3337 77.0183 19.6539 74.8345 18.4601C75.8827 18.8387 76.465 17.936 76.4942 17.4993C77.3386 17.9943 78.6488 18.1981 80.3959 19.0716C84.2685 21.0225 84.0064 22.158 84.0064 22.158Z" fill="white"/>
<path fill-rule="evenodd" clip-rule="evenodd" d="M78.4734 40.24C78.1531 40.24 78.0366 40.3273 78.0366 40.6767V41.0262C78.0366 41.3464 78.1531 41.4629 78.4734 41.4629H78.8228C79.1722 41.4629 79.2595 41.3464 79.2595 41.0262V40.6767C79.2595 40.3565 79.1431 40.24 78.8228 40.24H78.4734Z" fill="white"/>
<path fill-rule="evenodd" clip-rule="evenodd" d="M81.8217 39.1918L83.6561 41.463H85.1993L83.394 39.2501C83.2484 39.0753 83.0737 38.8715 82.899 38.7842V38.7551C83.0737 38.6386 83.1902 38.5221 83.3649 38.3183L85.0828 36.251H83.5687L81.8217 38.3183H81.2102C81.2685 38.1145 81.2685 37.9107 81.2685 37.6777V36.251H79.9873V41.463H81.2685V39.6868C81.2685 39.5412 81.2393 39.3665 81.2102 39.1918H81.8217V39.1918Z" fill="white"/>
<path fill-rule="evenodd" clip-rule="evenodd" d="M90.3533 40.5021H87.0631L90.2659 37.1827V36.251H85.549V37.1827H88.6936L85.4907 40.5021V41.463H90.3533V40.5021Z" fill="white"/>
</svg>
