<svg width="100" height="52" viewBox="0 0 100 52" fill="none" xmlns="http://www.w3.org/2000/svg">
<path fill-rule="evenodd" clip-rule="evenodd" d="M47.5677 21.0794C47.9671 20.495 48.7817 20.2176 50.0625 20.2176H64.5431L64.8756 15.1415C59.7995 14.6831 53.5567 14.6831 47.8983 14.6831C46.4699 14.6831 45.191 14.8976 44.103 15.2989C44.2388 15.3835 44.3706 15.4701 44.4985 15.5606C46.2436 16.7981 47.1979 18.5748 47.5677 21.0794Z" fill="white"/>
<path fill-rule="evenodd" clip-rule="evenodd" d="M64.5431 38.1509H50.0626C48.1482 38.1509 47.2747 37.5272 47.2747 36.1539V31.1191H62.5048V26.167H47.6367C47.3278 28.951 46.3893 30.8811 44.6383 32.1973C43.4735 33.0728 41.9723 33.6355 40.0757 33.966V37.6944C40.117 41.3146 43.1548 43.644 47.8983 43.644C53.5568 43.644 59.7996 43.644 64.8756 43.1856L64.5431 38.1509Z" fill="white"/>
<path fill-rule="evenodd" clip-rule="evenodd" d="M33.6636 14.3901C28.7056 14.3901 25.8134 14.4157 22.7756 14.5967C23.4524 14.8643 24.0525 15.183 24.5818 15.5608C25.9806 16.5544 26.8719 17.8922 27.3598 19.6748L33.5377 19.6354C38.1573 19.6354 39.5719 20.509 39.5719 23.8792C39.5719 27.2495 38.1573 28.1231 33.5377 28.1231H27.3598C26.8817 29.8899 26.0279 31.2159 24.7195 32.1977C23.5075 33.1067 21.9335 33.6812 19.9307 34.0039V43.5205H27.047V32.9099C29.3352 33.2011 31.9578 33.3684 34.6198 33.3684C43.5659 33.3684 46.7709 31.3301 46.7709 23.8812C46.7729 16.4717 43.5679 14.3901 33.6636 14.3901Z" fill="white"/>
<path fill-rule="evenodd" clip-rule="evenodd" d="M13.7466 14.3901C7.29725 14.3901 4.34211 14.4315 0.0136719 14.8072V43.5205H7.13001V32.9099C9.41818 33.2011 12.0408 33.3684 14.7028 33.3684C23.6489 33.3684 26.8539 31.3301 26.8539 23.8812C26.8559 16.4717 23.6509 14.3901 13.7466 14.3901ZM7.13001 28.1231V19.6767L13.6207 19.6354C18.2403 19.6354 19.6549 20.509 19.6549 23.8792C19.6549 27.2495 18.2403 28.1231 13.6207 28.1231H7.13001Z" fill="white"/>
<path fill-rule="evenodd" clip-rule="evenodd" d="M99.1585 15.6847L94.4267 22.8364C94.407 22.8659 94.3893 22.8935 94.3696 22.923C91.6034 27.1393 90.5193 32.2409 91.2748 37.2265L91.7588 40.4158C91.8395 40.949 91.9201 41.4821 92.0008 42.0153C92.1129 42.7335 92.652 43.2057 93.2521 43.6444C87.3399 43.6444 80.4222 43.6444 74.51 43.6444C75.0707 43.2273 75.5764 42.7689 75.718 42.0153L75.8243 40.4158L76.2079 34.6157C76.2433 34.0667 76.263 33.5198 76.263 32.9709C76.263 31.9675 76.202 30.964 76.082 29.9646C75.9482 28.8569 75.3422 27.8594 74.4155 27.2377C73.7446 26.7891 73.1898 26.1733 72.8003 25.4453C71.6276 23.2516 69.8982 21.3707 67.7439 20.0111L67.431 19.8124C66.1659 19.0136 65.8157 17.3255 66.6598 16.09L66.7011 16.0309C67.5727 14.7501 69.3316 14.4845 70.5337 15.4387C71.6414 16.3182 72.9813 17.3806 74.1067 18.2719C74.2031 18.3467 74.3034 18.4077 74.4057 18.4509C75.4229 18.8818 76.2237 17.963 76.1115 17.0029L74.7048 4.48977C74.6949 4.39533 74.689 4.30286 74.689 4.21039C74.689 3.04368 75.5134 2.01666 76.6801 1.78449C78.1203 1.78449 79.4779 2.94924 79.6962 4.37172L80.9849 12.7472C81.0302 13.0365 81.4552 13.0168 81.4709 12.7236L82.0434 2.50459C82.1221 1.09391 83.2908 0 84.6916 0C84.7271 0 84.7625 0.00196639 84.7999 0.00196639C86.2794 0.0609905 87.4245 1.32017 87.3418 2.79971L86.8185 12.2632C86.7909 12.7787 87.5169 12.9204 87.6842 12.4324L89.8208 6.1936C90.2852 4.83604 91.8237 4.17104 93.136 4.77505C94.2673 5.29643 94.7966 6.6107 94.409 7.79315L91.7411 15.9326C91.5522 16.509 92.292 16.9281 92.6894 16.4697L95.6406 13.0699C96.4158 12.1767 97.7675 12.0134 98.6941 12.7472C99.5893 13.4634 99.7841 14.7383 99.1585 15.6847Z" fill="white"/>
<path fill-rule="evenodd" clip-rule="evenodd" d="M83.5919 22.1398C81.2014 19.3224 76.6054 19.6234 74.4019 18.4528C75.4446 18.8227 76.0368 17.9216 76.0722 17.4927C76.9261 17.9924 78.2246 18.201 79.9796 19.0765C83.8339 21.0046 83.5919 22.1398 83.5919 22.1398Z" fill="#1B242E"/>
<path fill-rule="evenodd" clip-rule="evenodd" d="M77.7727 40.1304C77.4461 40.1304 77.334 40.2268 77.334 40.5475V40.8898C77.334 41.2105 77.4461 41.3148 77.7727 41.3148H78.1151C78.4495 41.3148 78.5538 41.2105 78.5538 40.8898V40.5475C78.5538 40.2268 78.4495 40.1304 78.1151 40.1304H77.7727Z" fill="#242A30"/>
<path d="M82.9227 39.2648C82.8499 39.1684 82.7752 39.0779 82.7004 39.0012C82.6256 38.9244 82.545 38.8477 82.4643 38.7749C82.3954 38.7139 82.3148 38.6569 82.2262 38.6037C82.4092 38.5526 82.5784 38.4837 82.7299 38.3971C82.8991 38.3007 83.0467 38.1807 83.1667 38.043C83.2867 37.9053 83.3811 37.744 83.4461 37.5688C83.511 37.3918 83.5444 37.195 83.5444 36.9845C83.5444 36.715 83.4913 36.4749 83.389 36.2723C83.2867 36.0696 83.1411 35.8985 82.9581 35.7627C82.7752 35.627 82.5587 35.5266 82.3148 35.4597C82.0708 35.3928 81.8013 35.3594 81.5101 35.3594H79.458V41.3149H80.5421V38.9284H80.9159C81.0399 38.9284 81.152 38.9441 81.2523 38.9717C81.3507 39.0012 81.4412 39.0464 81.5239 39.1094C81.6085 39.1743 81.6931 39.2569 81.7737 39.3553C81.8564 39.4557 81.941 39.5796 82.0295 39.7232L83.0073 41.2992L83.0172 41.3169H84.2921L83.1647 39.6071C83.0723 39.4714 82.9936 39.3612 82.9227 39.2648ZM80.5421 36.2251H81.3586C81.695 36.2251 81.9547 36.3018 82.1338 36.4533C82.3089 36.6048 82.3994 36.8173 82.3994 37.0868C82.3994 37.2363 82.3738 37.3741 82.3207 37.4941C82.2695 37.6141 82.1967 37.7184 82.1043 37.801C82.0118 37.8856 81.8996 37.9505 81.7737 37.9938C81.6458 38.0391 81.5042 38.0607 81.3527 38.0607H80.5441V36.2251H80.5421Z" fill="#242A30"/>
<path d="M88.1974 35.3613V38.8556C88.1974 39.9534 87.7685 40.4886 86.8851 40.4886C85.9663 40.4886 85.5216 39.9337 85.5216 38.7946V35.3613H84.4336V38.9952C84.4336 40.6007 85.2324 41.4152 86.8103 41.4152C88.4551 41.4152 89.2893 40.5692 89.2893 38.9008V35.3613H88.1974Z" fill="#242A30"/>
<path d="M0.857817 49.4547V50.765H0V46.96H1.34378C2.30194 46.96 2.782 47.3633 2.782 48.1719C2.782 48.5536 2.64428 48.8645 2.36883 49.0986C2.09339 49.3347 1.72547 49.4527 1.26705 49.4527H0.857817V49.4547ZM0.857817 47.6191V48.8054H1.19425C1.65071 48.8054 1.87893 48.6048 1.87893 48.2054C1.87893 47.8138 1.65071 47.6191 1.19425 47.6191H0.857817Z" fill="white"/>
<path d="M5.62064 50.7665H3.33838V46.9614H5.53408V47.6599H4.1962V48.5059H5.4416V49.2004H4.1962V50.072H5.62064V50.7665Z" fill="white"/>
<path d="M9.42367 50.7665H8.43994L7.84773 49.7867C7.80445 49.712 7.76116 49.647 7.71984 49.588C7.67853 49.529 7.63721 49.4798 7.59589 49.4385C7.55458 49.3972 7.51129 49.3657 7.46604 49.3421C7.42079 49.3204 7.3716 49.3086 7.31848 49.3086H7.08829V50.7665H6.23047V46.9614H7.58999C8.51274 46.9614 8.97509 47.3057 8.97509 47.9963C8.97509 48.1281 8.95542 48.2521 8.9141 48.3642C8.87278 48.4764 8.81573 48.5787 8.74096 48.6672C8.6662 48.7577 8.57766 48.8345 8.47142 48.9014C8.36518 48.9663 8.24909 49.0174 8.11924 49.0548V49.0647C8.1763 49.0824 8.23139 49.1119 8.28451 49.1512C8.33763 49.1906 8.38878 49.2378 8.43797 49.2909C8.48716 49.344 8.53438 49.4011 8.57963 49.4621C8.62488 49.5231 8.6662 49.5821 8.70358 49.6411L9.42367 50.7665ZM7.08829 47.6009V48.6594H7.46014C7.64508 48.6594 7.79264 48.6062 7.90282 48.5C8.01693 48.3918 8.07202 48.258 8.07202 48.0986C8.07202 47.7661 7.87331 47.5989 7.47588 47.5989H7.08829V47.6009Z" fill="white"/>
<path d="M9.6051 50.619V49.769C9.75856 49.8989 9.92579 49.9953 10.1068 50.0602C10.2878 50.1251 10.4688 50.1566 10.6538 50.1566C10.762 50.1566 10.8564 50.1468 10.9371 50.1271C11.0177 50.1074 11.0846 50.0799 11.1378 50.0464C11.1909 50.011 11.2322 49.9717 11.2578 49.9244C11.2833 49.8772 11.2971 49.8261 11.2971 49.771C11.2971 49.6962 11.2755 49.6313 11.2342 49.5723C11.1909 49.5132 11.1338 49.4601 11.061 49.4109C10.9882 49.3618 10.8997 49.3145 10.7994 49.2673C10.699 49.2221 10.5888 49.1748 10.4728 49.1257C10.1757 49.0017 9.95334 48.8502 9.80774 48.6712C9.66215 48.4921 9.58936 48.2777 9.58936 48.0239C9.58936 47.8252 9.6287 47.656 9.70937 47.5123C9.79004 47.3707 9.89825 47.2526 10.034 47.1602C10.1717 47.0677 10.3291 47.0008 10.5101 46.9575C10.6911 46.9142 10.882 46.8926 11.0827 46.8926C11.2814 46.8926 11.4565 46.9044 11.6099 46.928C11.7634 46.9516 11.9051 46.989 12.033 47.0382V47.8311C11.97 47.7878 11.8992 47.7484 11.8244 47.715C11.7496 47.6815 11.6709 47.654 11.5922 47.6304C11.5116 47.6087 11.4329 47.591 11.3542 47.5812C11.2755 47.5714 11.2007 47.5654 11.1299 47.5654C11.0335 47.5654 10.9449 47.5753 10.8643 47.593C10.7836 47.6127 10.7167 47.6382 10.6616 47.6717C10.6065 47.7051 10.5652 47.7445 10.5337 47.7917C10.5042 47.8389 10.4885 47.8921 10.4885 47.9491C10.4885 48.0121 10.5062 48.0691 10.5396 48.1203C10.5731 48.1714 10.6203 48.2187 10.6833 48.2639C10.7443 48.3092 10.821 48.3524 10.9095 48.3957C10.9981 48.439 11.0984 48.4843 11.2086 48.5295C11.3601 48.5925 11.4978 48.6613 11.6178 48.7322C11.7398 48.803 11.8421 48.8856 11.9287 48.9761C12.0152 49.0666 12.0821 49.1689 12.1274 49.285C12.1726 49.4011 12.1963 49.5349 12.1963 49.6903C12.1963 49.9028 12.1569 50.0799 12.0762 50.2255C11.9956 50.3711 11.8874 50.4871 11.7477 50.5757C11.6099 50.6642 11.4486 50.7291 11.2656 50.7685C11.0827 50.8078 10.8899 50.8275 10.6852 50.8275C10.4767 50.8275 10.278 50.8098 10.0891 50.7744C9.90612 50.7429 9.74282 50.6898 9.6051 50.619Z" fill="white"/>
<path d="M14.4349 50.8314C13.8899 50.8314 13.4452 50.6544 13.1029 50.2983C12.7605 49.9441 12.5874 49.4818 12.5874 48.9112C12.5874 48.3091 12.7625 47.8232 13.1107 47.4513C13.459 47.0795 13.9213 46.8945 14.4958 46.8945C15.0389 46.8945 15.4776 47.0716 15.8141 47.4277C16.1485 47.7838 16.3177 48.2521 16.3177 48.8345C16.3177 49.4326 16.1446 49.9146 15.7963 50.2806C15.4481 50.6485 14.9936 50.8314 14.4349 50.8314ZM14.4722 47.6343C14.1712 47.6343 13.9332 47.7464 13.7561 47.9727C13.579 48.199 13.4905 48.4961 13.4905 48.8679C13.4905 49.2457 13.579 49.5427 13.7561 49.7631C13.9332 49.9835 14.1653 50.0917 14.4506 50.0917C14.7457 50.0917 14.9798 49.9854 15.153 49.7729C15.3261 49.5605 15.4127 49.2634 15.4127 48.8856C15.4127 48.4921 15.3281 48.1852 15.1609 47.9648C14.9936 47.7445 14.7634 47.6343 14.4722 47.6343Z" fill="white"/>
<path d="M20.3731 50.7665H19.5074L17.9393 48.376C17.8469 48.2363 17.7839 48.1301 17.7485 48.0593H17.7386C17.7524 48.1931 17.7603 48.3997 17.7603 48.6751V50.7665H16.9517V46.9614H17.8744L19.3854 49.2791C19.4543 49.3834 19.5172 49.4877 19.5763 49.59H19.5861C19.5723 49.5014 19.5645 49.3263 19.5645 49.0666V46.9614H20.3731V50.7665Z" fill="white"/>
<path d="M24.5894 50.7665H23.6548L23.3833 49.9205H22.0297L21.7621 50.7665H20.8335L22.2186 46.9614H23.2358L24.5894 50.7665ZM23.1886 49.2614L22.7793 47.9825C22.7498 47.8861 22.7282 47.772 22.7164 47.6402H22.6947C22.6869 47.7524 22.6632 47.8625 22.6278 47.9727L22.2147 49.2634H23.1886V49.2614Z" fill="white"/>
<path d="M27.332 50.7665H25.0654V46.9614H25.9232V50.072H27.332V50.7665Z" fill="white"/>
<path d="M30.2006 49.4547V50.765H29.3428V46.96H30.6866C31.6447 46.96 32.1248 47.3633 32.1248 48.1719C32.1248 48.5536 31.9871 48.8645 31.7116 49.0986C31.4362 49.3347 31.0682 49.4527 30.6098 49.4527H30.2006V49.4547ZM30.2006 47.6191V48.8054H30.537C30.9935 48.8054 31.2217 48.6048 31.2217 48.2054C31.2217 47.8138 30.9935 47.6191 30.537 47.6191H30.2006Z" fill="white"/>
<path d="M35.8748 50.7665H34.8911L34.2989 49.7867C34.2556 49.712 34.2123 49.647 34.171 49.588C34.1297 49.529 34.0884 49.4798 34.0471 49.4385C34.0057 49.3972 33.9625 49.3657 33.9172 49.3421C33.872 49.3204 33.8228 49.3086 33.7697 49.3086H33.5395V50.7665H32.6816V46.9614H34.0412C34.9639 46.9614 35.4263 47.3057 35.4263 47.9963C35.4263 48.1281 35.4066 48.2521 35.3653 48.3642C35.324 48.4764 35.2669 48.5787 35.1921 48.6672C35.1174 48.7558 35.0288 48.8345 34.9226 48.9014C34.8163 48.9663 34.7003 49.0174 34.5704 49.0548V49.0647C34.6275 49.0824 34.6826 49.1119 34.7357 49.1512C34.7888 49.1906 34.84 49.2378 34.8891 49.2909C34.9383 49.344 34.9855 49.4011 35.0308 49.4621C35.076 49.5231 35.1174 49.5821 35.1547 49.6411L35.8748 50.7665ZM33.5395 47.6009V48.6594H33.9113C34.0963 48.6594 34.2438 48.6062 34.354 48.5C34.4681 48.3918 34.5232 48.258 34.5232 48.0986C34.5232 47.7661 34.3245 47.5989 33.927 47.5989H33.5395V47.6009Z" fill="white"/>
<path d="M37.785 50.8314C37.24 50.8314 36.7953 50.6544 36.453 50.2983C36.1106 49.9441 35.9375 49.4818 35.9375 48.9112C35.9375 48.3091 36.1126 47.8232 36.4608 47.4513C36.8091 47.0795 37.2714 46.8945 37.8459 46.8945C38.389 46.8945 38.8277 47.0716 39.1642 47.4277C39.4986 47.7838 39.6678 48.2521 39.6678 48.8345C39.6678 49.4326 39.4947 49.9146 39.1464 50.2806C38.7982 50.6485 38.3457 50.8314 37.785 50.8314ZM37.8223 47.6343C37.5213 47.6343 37.2833 47.7464 37.1062 47.9727C36.9291 48.199 36.8406 48.4961 36.8406 48.8679C36.8406 49.2457 36.9291 49.5427 37.1062 49.7631C37.2833 49.9835 37.5154 50.0917 37.8007 50.0917C38.0958 50.0917 38.3299 49.9854 38.5031 49.7729C38.6762 49.5605 38.7628 49.2634 38.7628 48.8856C38.7628 48.4921 38.6782 48.1852 38.511 47.9648C38.3457 47.7445 38.1155 47.6343 37.8223 47.6343Z" fill="white"/>
<path d="M42.755 47.6584H41.6689V50.767H40.8091V47.6584H39.729V46.96H42.755V47.6584Z" fill="white"/>
<path d="M45.5489 50.7665H43.2666V46.9614H45.4623V47.6599H44.1244V48.5059H45.3698V49.2004H44.1244V50.072H45.5489V50.7665Z" fill="white"/>
<path d="M48.8874 50.6307C48.6099 50.7645 48.246 50.8334 47.7993 50.8334C47.215 50.8334 46.7566 50.6622 46.4221 50.3179C46.0876 49.9756 45.9204 49.5172 45.9204 48.9466C45.9204 48.3386 46.1093 47.8448 46.4851 47.4651C46.8609 47.0854 47.3488 46.8965 47.9489 46.8965C48.3207 46.8965 48.6336 46.9437 48.8893 47.0362V47.8625C48.6355 47.711 48.3443 47.6343 48.0197 47.6343C47.6616 47.6343 47.3744 47.7464 47.154 47.9707C46.9337 48.195 46.8254 48.5 46.8254 48.8836C46.8254 49.2515 46.9297 49.5447 47.1363 49.7631C47.3429 49.9815 47.6223 50.0917 47.9725 50.0917C48.307 50.0917 48.6139 50.011 48.8913 49.8477V50.6307H48.8874Z" fill="white"/>
<path d="M52.2247 47.6584H51.1387V50.767H50.2789V47.6584H49.1987V46.96H52.2247V47.6584Z" fill="white"/>
<path d="M53.5937 50.7665H52.7358V46.9614H53.5937V50.7665Z" fill="white"/>
<path d="M57.6272 46.96L56.3168 50.765H55.3449L54.0503 46.96H54.973L55.7659 49.6082C55.8092 49.7518 55.8348 49.8777 55.8427 49.9879H55.8584C55.8702 49.8698 55.8977 49.74 55.941 49.5983L56.73 46.96H57.6272Z" fill="white"/>
<path d="M60.3658 50.7665H58.0835V46.9614H60.2792V47.6599H58.9413V48.5059H60.1867V49.2004H58.9413V50.072H60.3658V50.7665Z" fill="white"/>
<path d="M64.7588 50.7665H62.4766V46.9614H64.6723V47.6599H63.3344V48.5059H64.5798V49.2004H63.3344V50.072H64.7588V50.7665Z" fill="white"/>
<path d="M66.9764 50.8314C66.4314 50.8314 65.9867 50.6544 65.6444 50.3002C65.302 49.9421 65.1289 49.4798 65.1289 48.9112C65.1289 48.3111 65.304 47.8251 65.6523 47.4513C65.9985 47.0795 66.4609 46.8945 67.0373 46.8945C67.5804 46.8945 68.0191 47.0716 68.3536 47.4277C68.69 47.7819 68.8573 48.2501 68.8573 48.8345C68.8573 49.4306 68.6822 49.9126 68.3339 50.2806C68.3221 50.2924 68.3103 50.3042 68.2985 50.316C68.2887 50.3278 68.2769 50.3376 68.2631 50.3494L69.2271 51.2761H68.027L67.5233 50.7645C67.36 50.8098 67.177 50.8314 66.9764 50.8314ZM67.0137 47.6343C66.7147 47.6343 66.4766 47.7484 66.2976 47.9747C66.1205 48.199 66.032 48.498 66.032 48.8699C66.032 49.2476 66.1205 49.5447 66.2976 49.7651C66.4747 49.9854 66.7068 50.0936 66.9921 50.0936C67.2872 50.0936 67.5214 49.9874 67.6945 49.7749C67.8676 49.5585 67.9542 49.2634 67.9542 48.8856C67.9542 48.4921 67.8696 48.1852 67.7024 47.9648C67.5391 47.7445 67.3089 47.6343 67.0137 47.6343Z" fill="white"/>
<path d="M72.5938 49.1183C72.5938 50.2614 72.0606 50.8319 70.9962 50.8319C69.9632 50.8319 69.4458 50.2732 69.4458 49.1576V46.96H70.3056V49.1675C70.3056 49.7833 70.5456 50.0902 71.0276 50.0902C71.4998 50.0902 71.7359 49.7931 71.7359 49.1989V46.96H72.5938V49.1183Z" fill="white"/>
<path d="M74.2797 50.7665H73.4219V46.9614H74.2797V50.7665Z" fill="white"/>
<path d="M76.0014 49.4547V50.765H75.1436V46.96H76.4873C77.4455 46.96 77.9256 47.3633 77.9256 48.1719C77.9256 48.5536 77.7878 48.8645 77.5124 49.0986C77.2369 49.3347 76.869 49.4527 76.4086 49.4527H76.0014V49.4547ZM76.0014 47.6191V48.8054H76.3378C76.7943 48.8054 77.0225 48.6048 77.0225 48.2054C77.0225 47.8138 76.7943 47.6191 76.3378 47.6191H76.0014Z" fill="white"/>
<path d="M82.8207 50.7665H81.9747V48.4902C81.9747 48.2442 81.9845 47.9727 82.0062 47.6756H81.9845C81.9412 47.9097 81.8999 48.077 81.8645 48.1793L80.9732 50.7665H80.2728L79.3658 48.2049C79.3402 48.136 79.3009 47.9589 79.2458 47.6737H79.2202C79.2438 48.0494 79.2556 48.378 79.2556 48.6613V50.7665H78.4824V46.9614H79.7377L80.5148 49.2181C80.5778 49.3991 80.6211 49.5801 80.6506 49.7631H80.6663C80.7135 49.5526 80.7647 49.3696 80.8178 49.2142L81.595 46.9634H82.8187V50.7665H82.8207Z" fill="white"/>
<path d="M85.9668 50.7665H83.6846V46.9614H85.8803V47.6599H84.5424V48.5059H85.7878V49.2004H84.5424V50.072H85.9668V50.7665Z" fill="white"/>
<path d="M90.002 50.7665H89.1363L87.5682 48.376C87.4758 48.2363 87.4128 48.1301 87.3774 48.0593H87.3676C87.3813 48.1931 87.3892 48.3997 87.3892 48.6751V50.7665H86.5806V46.9614H87.5033L89.0143 49.2791C89.0832 49.3834 89.1481 49.4877 89.2052 49.59H89.215C89.2012 49.5014 89.1934 49.3263 89.1934 49.0666V46.9614H90.002V50.7665Z" fill="white"/>
<path d="M93.545 47.6584H92.459V50.767H91.5992V47.6584H90.519V46.96H93.545V47.6584Z" fill="white"/>
</svg>
