<svg width="112" height="59" viewBox="0 0 112 59" fill="none" xmlns="http://www.w3.org/2000/svg">
<path fill-rule="evenodd" clip-rule="evenodd" d="M53.5355 24.5032C53.9849 23.8456 54.9015 23.5335 56.3427 23.5335H72.6395L73.0137 17.8215C67.3017 17.3057 60.2769 17.3057 53.9074 17.3057C52.3001 17.3057 50.861 17.547 49.6367 17.9986C49.7895 18.0938 49.9378 18.1912 50.0817 18.2931C52.0433 19.6856 53.117 21.6848 53.5355 24.5032Z" fill="black"/>
<path fill-rule="evenodd" clip-rule="evenodd" d="M72.6346 43.7156H56.3378C54.1837 43.7156 53.2007 43.0138 53.2007 41.4684V35.803H70.3388V30.2305H53.608C53.2605 33.3632 52.2044 35.5351 50.2318 37.0162C48.9211 38.0014 47.2319 38.6346 45.0977 39.0065V43.2019C45.1441 47.2756 48.5625 49.8991 53.9003 49.8991C60.2698 49.8991 67.2924 49.8991 73.0066 49.3833L72.6346 43.7156Z" fill="black"/>
<path fill-rule="evenodd" clip-rule="evenodd" d="M37.8869 16.9785C32.3078 16.9785 29.0533 17.0073 25.6327 17.211C26.3943 17.5121 27.0696 17.8707 27.6673 18.2958C29.2415 19.4139 30.2444 20.9193 30.7934 22.9252L37.7452 22.8809C42.9435 22.8809 44.5353 23.8639 44.5353 27.6563C44.5353 31.4488 42.9435 32.4318 37.7452 32.4318H30.7934C30.2554 34.4199 29.2946 35.9121 27.8223 37.0169C26.4585 38.0397 24.6874 38.6862 22.4336 39.0493V49.7581H30.4414V37.8161C33.0162 38.1438 35.9674 38.332 38.9651 38.332C49.0341 38.332 52.6384 36.0383 52.6384 27.6563C52.6384 19.3186 49.0319 16.9785 37.8869 16.9785Z" fill="black"/>
<path fill-rule="evenodd" clip-rule="evenodd" d="M15.4767 16.9785C8.21944 16.9785 4.8941 17.025 0.0234375 17.4479V49.7581H8.03125V37.8161C10.6061 38.1438 13.5572 38.332 16.5549 38.332C26.6239 38.332 30.2282 36.0383 30.2282 27.6563C30.226 19.3186 26.6217 16.9785 15.4767 16.9785ZM8.03125 32.4318V22.9252L15.3373 22.8787C20.5356 22.8787 22.1274 23.8617 22.1274 27.6541C22.1274 31.4466 20.5356 32.4296 15.3373 32.4296H8.03125V32.4318Z" fill="black"/>
<path fill-rule="evenodd" clip-rule="evenodd" d="M0.918784 56.3994V57.9027H0V53.5877H1.48555C2.55931 53.5877 3.09509 54.0416 3.09509 54.9515C3.09509 55.3943 2.93347 55.7485 2.61023 56.0142C2.287 56.2799 1.88185 56.4083 1.39478 56.3972H0.918784V56.3994ZM0.918784 54.3006V55.6932H1.31729C1.85749 55.6932 2.12759 55.4585 2.12759 54.9869C2.12759 54.5286 1.85971 54.3006 1.32394 54.3006H0.918784ZM6.30308 57.9027H3.7482V53.5877H6.20124V54.3404H4.66698V55.3566H6.09276V56.105H4.66698V57.1499H6.30087V57.9027H6.30308ZM10.5716 57.9027H9.5133L8.83583 56.7802C8.69635 56.5477 8.58344 56.3994 8.49267 56.333C8.40411 56.2644 8.30891 56.2311 8.20929 56.2311H7.93033V57.9027H7.01154V53.5877H8.52367C9.55093 53.5877 10.0646 53.9774 10.0646 54.7567C10.0646 55.0511 9.97822 55.3013 9.80775 55.5116C9.63728 55.7219 9.40038 55.8681 9.09929 55.9544V55.9655C9.29854 56.0319 9.51772 56.2511 9.75904 56.623L10.5716 57.9027ZM7.93033 54.2873V55.5293H8.38197C8.59673 55.5293 8.77163 55.4673 8.90003 55.3411C9.03066 55.215 9.09707 55.06 9.09707 54.8718C9.09707 54.4821 8.86461 54.2873 8.39747 54.2873H7.93033ZM10.7952 56.8156C11.1428 57.1034 11.5368 57.2473 11.9796 57.2473C12.2298 57.2473 12.418 57.2053 12.5442 57.1189C12.6704 57.0326 12.7324 56.9219 12.7324 56.7868C12.7324 56.6695 12.6837 56.5588 12.5818 56.4548C12.4822 56.3507 12.2165 56.209 11.787 56.0319C11.1118 55.7463 10.7775 55.3301 10.7775 54.7854C10.7775 54.3847 10.9302 54.0726 11.2357 53.8512C11.5413 53.6298 11.9442 53.5191 12.449 53.5191C12.8696 53.5191 13.2239 53.5722 13.5095 53.6829V54.5463C13.2194 54.3493 12.8807 54.2519 12.4933 54.2519C12.2652 54.2519 12.0859 54.294 11.9486 54.3759C11.8136 54.4578 11.7449 54.5685 11.7449 54.708C11.7449 54.8187 11.7914 54.9227 11.8844 55.0157C11.9774 55.1109 12.2077 55.2371 12.573 55.3965C13.0025 55.5803 13.2969 55.7751 13.4563 55.9788C13.6179 56.1824 13.6976 56.426 13.6976 56.7071C13.6976 57.1212 13.5515 57.4377 13.2571 57.6547C12.9648 57.8717 12.5464 57.9802 12.0062 57.9802C11.5125 57.9802 11.1073 57.9005 10.7907 57.7411V56.8156H10.7952ZM14.1537 55.8016C14.1537 55.1264 14.3508 54.5751 14.7448 54.1523C15.1389 53.7294 15.6614 53.5169 16.3101 53.5169C16.9256 53.5169 17.4215 53.7228 17.7979 54.1323C18.1742 54.5419 18.3624 55.071 18.3624 55.7153C18.3624 56.3883 18.1654 56.933 17.7757 57.3514C17.3861 57.7698 16.8724 57.9802 16.2392 57.9802C15.6216 57.9802 15.119 57.7765 14.7316 57.3713C14.3463 56.964 14.1537 56.4415 14.1537 55.8016ZM15.1212 55.7529C15.1212 56.1736 15.2208 56.5145 15.4245 56.7824C15.626 57.0481 15.9049 57.1809 16.257 57.1809C16.6178 57.1809 16.8968 57.0525 17.0982 56.7979C17.2997 56.5433 17.3993 56.2002 17.3993 55.7684C17.3993 55.319 17.3019 54.9648 17.1071 54.7035C16.9123 54.4423 16.6378 54.3139 16.2835 54.3139C15.9226 54.3139 15.6393 54.4467 15.4312 54.7146C15.223 54.9803 15.1212 55.3279 15.1212 55.7529ZM22.9276 57.9027H21.9844L20.1601 55.1109C20.0649 54.967 19.9963 54.8497 19.9542 54.7589H19.9409C19.9587 54.9072 19.9653 55.1375 19.9653 55.4474V57.9005H19.093V53.5855H20.0959L21.856 56.2976C21.9733 56.4791 22.0442 56.592 22.0708 56.6407H22.084C22.0641 56.5367 22.0553 56.3374 22.0553 56.0452V53.5855H22.9276V57.9027ZM27.6742 57.9027H26.6713L26.3481 56.9153H24.7806L24.464 57.9027H23.4678L25.0463 53.5877H26.1267L27.6742 57.9027ZM26.1311 56.2046L25.6396 54.7102C25.6086 54.615 25.5865 54.4888 25.5732 54.3338H25.5489C25.5378 54.46 25.5134 54.5818 25.4736 54.6991L24.9821 56.2068H26.1311V56.2046ZM30.7516 57.9027H28.2189V53.5877H29.1377V57.1499H30.7516V57.9027ZM33.9574 56.3994V57.9027H33.0386V53.5877H34.5242C35.5979 53.5877 36.1337 54.0416 36.1337 54.9515C36.1337 55.3943 35.9721 55.7485 35.6488 56.0142C35.3256 56.2799 34.9205 56.4083 34.4334 56.3972H33.9574V56.3994ZM33.9574 54.3006V55.6932H34.3559C34.8961 55.6932 35.1662 55.4585 35.1662 54.9869C35.1662 54.5286 34.8983 54.3006 34.3625 54.3006H33.9574ZM40.3468 57.9027H39.2886L38.6111 56.7802C38.4716 56.5477 38.3587 56.3994 38.2679 56.333C38.1794 56.2644 38.0842 56.2311 37.9846 56.2311H37.7056V57.9027H36.7868V53.5877H38.2989C39.3262 53.5877 39.8398 53.9774 39.8398 54.7567C39.8398 55.0511 39.7535 55.3013 39.583 55.5116C39.4125 55.7219 39.1756 55.8681 38.8746 55.9544V55.9655C39.0738 56.0319 39.293 56.2511 39.5343 56.623L40.3468 57.9027ZM37.7056 54.2873V55.5293H38.1572C38.372 55.5293 38.5469 55.4673 38.6775 55.3411C38.8081 55.215 38.8746 55.06 38.8746 54.8718C38.8746 54.4821 38.6421 54.2873 38.1749 54.2873H37.7056ZM40.4354 55.8016C40.4354 55.1264 40.6324 54.5751 41.0265 54.1523C41.4206 53.7294 41.9431 53.5169 42.5918 53.5169C43.2072 53.5169 43.7032 53.7228 44.0795 54.1323C44.4537 54.5419 44.6441 55.071 44.6441 55.7153C44.6441 56.3883 44.447 56.933 44.0574 57.3514C43.6677 57.7698 43.1541 57.9802 42.5209 57.9802C41.9032 57.9802 41.4007 57.7765 41.0132 57.3713C40.628 56.964 40.4354 56.4415 40.4354 55.8016ZM41.4007 55.7529C41.4007 56.1736 41.5003 56.5145 41.704 56.7824C41.9054 57.0481 42.1844 57.1809 42.5364 57.1809C42.8973 57.1809 43.1762 57.0525 43.3777 56.7979C43.5792 56.5433 43.6788 56.2002 43.6788 55.7684C43.6788 55.319 43.5814 54.9648 43.3866 54.7035C43.1917 54.4423 42.9172 54.3139 42.563 54.3139C42.2021 54.3139 41.9187 54.4467 41.7106 54.7146C41.5047 54.9803 41.4007 55.3279 41.4007 55.7529ZM48.1023 54.3404H46.8713V57.9027H45.9503V54.3404H44.7216V53.5877H48.1023V54.3404ZM51.246 57.9027H48.6912V53.5877H51.1442V54.3404H49.6099V55.3566H51.0357V56.105H49.6099V57.1499H51.2438V57.9027H51.246ZM55.0319 57.7477C54.7175 57.9027 54.3079 57.978 53.8031 57.978C53.1522 57.978 52.6386 57.7831 52.2556 57.3935C51.8748 57.0038 51.6844 56.4858 51.6844 55.8371C51.6844 55.1552 51.8969 54.5973 52.3242 54.1655C52.7493 53.7316 53.2984 53.5146 53.9736 53.5146C54.3965 53.5146 54.7485 53.5678 55.0319 53.6785V54.5663C54.7396 54.3958 54.4098 54.3117 54.04 54.3117C53.6172 54.3117 53.2807 54.4467 53.0283 54.7146C52.7759 54.9847 52.6497 55.3367 52.6497 55.7707C52.6497 56.1935 52.7692 56.5345 53.0083 56.7935C53.2474 57.0503 53.5729 57.1809 53.9803 57.1809C54.3655 57.1809 54.7153 57.0879 55.0319 56.902V57.7477ZM58.7734 54.3404H57.5425V57.9027H56.6215V54.3404H55.3928V53.5877H58.7734V54.3404ZM60.2789 53.5877V57.9027H59.3601V53.5877H60.2789ZM64.8263 53.5877L63.3275 57.9027H62.2892L60.8103 53.5877H61.8021L62.7364 56.6385C62.7829 56.7891 62.8117 56.9308 62.8227 57.0636H62.8405C62.8559 56.9263 62.8869 56.7802 62.9356 56.6252L63.8677 53.5877H64.8263ZM67.9081 57.9027H65.3533V53.5877H67.8063V54.3404H66.2721V55.3566H67.6978V56.105H66.2721V57.1499H67.9059V57.9027H67.9081ZM72.8696 57.9027H70.3147V53.5877H72.7677V54.3404H71.2335V55.3566H72.6593V56.105H71.2335V57.1499H72.8674V57.9027H72.8696ZM73.3057 55.8016C73.3057 55.1264 73.5028 54.5751 73.8969 54.1523C74.2909 53.7294 74.8134 53.5169 75.4621 53.5169C76.0776 53.5169 76.5735 53.7228 76.9499 54.1323C77.3262 54.5419 77.5144 55.071 77.5144 55.7153C77.5144 56.3883 77.3174 56.933 76.9277 57.3536C76.9034 57.3802 76.879 57.4045 76.8547 57.4289L77.9528 58.4872H76.5912L76.0178 57.9027C75.8252 57.9558 75.6171 57.9802 75.3935 57.9802C74.7758 57.9802 74.2732 57.7765 73.8858 57.3713C73.4983 56.964 73.3057 56.4415 73.3057 55.8016ZM74.2732 55.7529C74.2732 56.1736 74.3728 56.5145 74.5765 56.7824C74.778 57.0481 75.057 57.1809 75.409 57.1809C75.7698 57.1809 76.0488 57.0525 76.2503 56.7979C76.4517 56.5433 76.5514 56.2002 76.5514 55.7684C76.5514 55.319 76.454 54.9648 76.2591 54.7035C76.0643 54.4423 75.7898 54.3139 75.4355 54.3139C75.0747 54.3139 74.7913 54.4467 74.5832 54.7146C74.3773 54.9803 74.2732 55.3279 74.2732 55.7529ZM81.7276 56.0474C81.7276 57.3337 81.1298 57.978 79.9343 57.978C78.7786 57.978 78.2007 57.3514 78.2007 56.0983V53.5877H79.1217V56.1027C79.1217 56.8223 79.4051 57.1809 79.9719 57.1809C80.5298 57.1809 80.8066 56.8356 80.8066 56.1426V53.5899H81.7253V56.0474H81.7276ZM83.5895 53.5877V57.9027H82.6707V53.5877H83.5895ZM85.5067 56.3994V57.9027H84.588V53.5877H86.0735C87.1473 53.5877 87.6831 54.0416 87.6831 54.9515C87.6831 55.3943 87.5214 55.7485 87.1982 56.0142C86.875 56.2799 86.4698 56.4083 85.9827 56.3972H85.5067V56.3994ZM85.5067 54.3006V55.6932H85.9053C86.4455 55.6932 86.7156 55.4585 86.7156 54.9869C86.7156 54.5286 86.4477 54.3006 85.9119 54.3006H85.5067ZM92.2858 57.9027V55.2836C92.2858 55.0423 92.2969 54.739 92.3213 54.3737H92.2991C92.2438 54.6504 92.1995 54.8342 92.1663 54.9271L91.1036 57.9027H90.3708L89.2926 54.9559C89.266 54.8851 89.2217 54.6925 89.1575 54.3737H89.131C89.1553 54.7367 89.1664 55.0998 89.1664 55.4629V57.9027H88.3362V53.5877H89.6734L90.6032 56.1957C90.6807 56.4105 90.7339 56.6142 90.7626 56.8023H90.7826C90.8401 56.5677 90.8999 56.3618 90.9597 56.1891L91.894 53.5877H93.1958V57.9027H92.2858ZM96.7558 57.9027H94.2009V53.5877H96.6539V54.3404H95.1197V55.3566H96.5455V56.105H95.1197V57.1499H96.7536V57.9027H96.7558ZM101.299 57.9027H100.356L98.5313 55.1109C98.4361 54.967 98.3675 54.8497 98.3255 54.7589H98.3122C98.3299 54.9072 98.3365 55.1375 98.3365 55.4474V57.9005H97.4642V53.5855H98.4672L100.227 56.2976C100.345 56.4791 100.415 56.592 100.442 56.6407H100.455C100.435 56.5367 100.426 56.3374 100.426 56.0452V53.5855H101.299V57.9027ZM105.279 54.3404H104.048V57.9027H103.127V54.3404H101.899V53.5877H105.279V54.3404Z" fill="black"/>
<path fill-rule="evenodd" clip-rule="evenodd" d="M111.06 15.1293C110.017 14.3035 108.496 14.485 107.624 15.4924L104.303 19.318C103.856 19.8339 103.024 19.3623 103.236 18.7136L106.238 9.55236C106.674 8.22178 106.079 6.74065 104.806 6.15617C103.329 5.4765 101.598 6.2248 101.075 7.75242L98.671 14.775C98.4828 15.3263 97.6658 15.1669 97.6968 14.5846L98.2857 3.93559C98.3765 2.27071 97.088 0.853791 95.4253 0.787372C95.3855 0.785158 95.3456 0.785156 95.3036 0.785156C93.7294 0.785156 92.4144 2.01832 92.3236 3.6035L91.6793 15.1027C91.6616 15.4326 91.1834 15.4547 91.1325 15.1293L89.6824 5.70453C89.4366 4.10385 87.909 2.7932 86.2884 2.7932C84.9733 3.05666 84.0479 4.21012 84.0479 5.52299C84.0479 5.62704 84.0545 5.7311 84.0656 5.83737L85.6486 19.9202C85.6707 20.1106 85.6596 20.2988 85.622 20.4781C86.5828 21.0338 88.0396 21.2729 90.0056 22.2537C94.3427 24.4212 94.0704 25.7008 94.0704 25.7008C91.3805 22.5305 86.2087 22.8692 83.7291 21.5519C83.6117 21.5032 83.4988 21.4346 83.3926 21.3504C82.124 20.3475 80.6185 19.152 79.3721 18.1602C78.0193 17.0864 76.0401 17.3875 75.0593 18.8265L75.0128 18.893C74.0652 20.2833 74.4593 22.1851 75.8807 23.0817L76.2327 23.3053C78.657 24.833 80.603 26.9517 81.9225 29.4202C82.3609 30.2394 82.9852 30.9324 83.7401 31.4371C84.7829 32.1368 85.4626 33.2592 85.6154 34.5057C85.7504 35.6281 85.819 36.7595 85.819 37.8886C85.819 38.5062 85.7991 39.1239 85.7571 39.7416L85.3253 46.2683L85.2058 48.0683C85.0486 48.9162 84.4774 49.432 83.8464 49.9014C90.4993 49.9014 98.2835 49.9014 104.939 49.9014C104.263 49.4099 103.657 48.8763 103.531 48.0683C103.44 47.4683 103.349 46.8683 103.258 46.2683L102.714 42.6795C101.866 37.0694 103.083 31.3287 106.196 26.5842C106.216 26.551 106.238 26.52 106.26 26.4868L111.587 18.4369C112.291 17.3676 112.074 15.9351 111.06 15.1293Z" fill="#009FE3"/>
<path fill-rule="evenodd" clip-rule="evenodd" d="M87.3072 46.0781C86.9331 46.0781 86.8047 46.1888 86.8047 46.5541V46.946C86.8047 47.3113 86.9331 47.4308 87.3072 47.4308H87.6991C88.0821 47.4308 88.2017 47.3113 88.2017 46.946V46.5541C88.2017 46.1888 88.0821 46.0781 87.6991 46.0781H87.3072Z" fill="white"/>
<path d="M90.4578 45.1634V47.0231C90.4578 47.2445 90.2984 47.4305 90.0925 47.4305H89.3597C89.1604 47.4305 88.9922 47.2445 88.9922 47.0231V41.6388C88.9922 41.4086 89.1516 41.2314 89.3508 41.2314H92.5611C93.7234 41.2314 94.5912 41.9753 94.5912 43.1974C94.5912 44.1538 93.9293 44.5966 93.1256 44.7737C93.4533 44.9066 93.6902 45.2165 94.009 45.7744L94.7174 47.0231C94.8458 47.2534 94.7883 47.4305 94.5824 47.4305H93.6503C93.4511 47.4305 93.181 47.2534 93.0526 47.0231L92.3906 45.8719C92.1913 45.5265 91.9057 45.1634 91.4032 45.1634H90.4578ZM90.4578 42.4535V43.9413H92.1138C92.5588 43.9413 93.1256 43.7642 93.1256 43.1974C93.1256 42.6307 92.5611 42.4535 92.1138 42.4535H90.4578Z" fill="white"/>
<path d="M98.4588 46.2438C99.1672 46.2438 99.486 45.8364 99.486 44.9863V41.6388C99.486 41.4086 99.6543 41.2314 99.8535 41.2314H100.577C100.786 41.2314 100.952 41.4086 100.952 41.6388V44.9774C100.952 46.5449 100.124 47.4659 98.4986 47.4659H97.7968C96.1718 47.4659 95.3438 46.5449 95.3438 44.9774V41.6388C95.3438 41.4086 95.5098 41.2314 95.7179 41.2314H96.4419C96.6411 41.2314 96.8094 41.4086 96.8094 41.6388V44.9863C96.8094 45.8364 97.1282 46.2438 97.8366 46.2438H98.4588Z" fill="white"/>
</svg>
