<svg width="187" height="50" viewBox="0 0 187 50" fill="none" xmlns="http://www.w3.org/2000/svg">
<path fill-rule="evenodd" clip-rule="evenodd" d="M7.47536 15.2068L5.2834 37.8571C7.74597 37.8571 10.2356 37.8571 12.6982 37.8571L14.8901 15.2068H22.0614C22.2779 12.9337 22.4944 10.7147 22.7109 8.49563H0.89947C0.68298 10.7147 0.46649 12.9337 0.25 15.2068H7.47536ZM45.6859 8.49563C38.8123 8.49563 34.1578 8.49563 27.3654 8.49563C26.4182 18.2106 25.4711 28.0339 24.524 37.8301C31.3163 37.8301 36.3497 37.8301 43.2233 37.8301C43.4398 35.611 43.6563 33.3379 43.8728 31.173C39.4618 31.173 36.9451 31.173 32.6423 31.173C32.8047 29.414 32.9671 27.7362 33.1294 26.0043H43.115C43.3315 23.7853 43.548 21.5662 43.7645 19.3472H33.7789L34.1848 15.2068C38.5146 15.2068 40.6795 15.2068 45.0364 15.2068C45.2529 12.9607 45.4694 10.6876 45.6859 8.49563ZM49.3391 23.1899C48.4191 33.1755 55.482 38.2089 62.951 38.1548C69.2021 38.1548 76.1027 34.8804 77.997 26.5726C75.4262 26.5726 73.126 26.5726 70.6093 26.5726C69.4998 29.7117 66.7937 31.3083 63.6004 31.3083C59.1624 31.2542 56.6727 27.4926 57.0787 23.1628C57.5387 18.2918 60.759 14.9903 65.17 14.9903C68.3091 14.9903 70.4199 16.3434 71.1776 19.3201C73.7484 19.3201 75.9945 19.3201 78.5653 19.3201C78.1865 11.4724 71.9353 8.1709 65.8465 8.1709C58.3776 8.1709 50.3404 13.2043 49.3391 23.1899Z" fill="#AC1410"/>
<path fill-rule="evenodd" clip-rule="evenodd" d="M102.384 27.4639C110.286 22.4305 109.528 8.54806 97.9999 8.521C93.7243 8.521 89.3674 8.521 85.1188 8.521C84.1716 18.3442 83.2245 28.0863 82.2773 37.8554C84.7129 37.8554 87.2566 37.8554 89.7733 37.8554L90.6122 29.2229H94.509L98.7035 37.8554H107.093L107.201 36.773L102.384 27.4639ZM96.6739 22.5387H91.3158C91.5323 20.1844 91.8029 17.5865 92.0194 15.2051C93.7784 15.2051 95.6185 15.151 97.3775 15.2051C101.653 15.2593 100.733 22.5387 96.6739 22.5387ZM141.379 23.2153C142.326 13.392 135.75 8.30451 128.498 8.00684L127.713 15.3134C131.15 15.584 134.208 18.2089 133.721 23.2153C133.234 28.3299 129.58 30.9819 126.035 31.1983L126.008 31.5501L125.278 38.4508C132.638 38.2884 140.405 33.2009 141.379 23.2153ZM127.524 8.00684L126.739 15.3134C123.167 15.4757 119.487 18.1278 118.972 23.2153C118.485 28.2757 121.57 30.9277 125.034 31.1713L124.249 38.4508C116.943 38.2072 110.286 33.1197 111.26 23.2153C112.234 13.2026 120.082 8.11508 127.524 8.00684ZM168.17 37.8554H170.849L173.69 8.49394C171.119 8.49394 168.576 8.49394 166.005 8.49394L164.625 22.8635L160.89 18.8584L159.808 28.8981L168.17 37.8554ZM160.051 17.9113L160.024 18.0736L158.969 27.951L154.774 23.4318L153.367 37.8554C150.769 37.8554 148.172 37.8554 145.601 37.8554L148.442 8.38569H151.175L160.051 17.9113Z" fill="black"/>
<path fill-rule="evenodd" clip-rule="evenodd" d="M181.747 0.783155C184.399 0.783155 186.563 2.94806 186.563 5.60006C186.563 8.25207 184.399 10.417 181.747 10.417C179.095 10.417 176.93 8.25207 176.93 5.60006C176.903 2.94806 179.067 0.783155 181.747 0.783155ZM181.747 0.404297C178.878 0.404297 176.551 2.73157 176.551 5.60006C176.551 8.46856 178.878 10.7958 181.747 10.7958C184.615 10.7958 186.942 8.46856 186.942 5.60006C186.915 2.73157 184.588 0.404297 181.747 0.404297Z" fill="black"/>
<path fill-rule="evenodd" clip-rule="evenodd" d="M179.23 8.65794V2.27148H182.072C182.64 2.27148 183.073 2.32561 183.371 2.43385C183.669 2.5421 183.912 2.75859 184.074 3.0292C184.264 3.32687 184.345 3.65161 184.345 4.00341C184.345 4.46345 184.21 4.8423 183.912 5.13998C183.614 5.43765 183.181 5.65414 182.559 5.73533C182.775 5.84357 182.965 5.95182 183.073 6.06006C183.317 6.27655 183.56 6.57423 183.777 6.89896L184.886 8.63088H183.831L182.992 7.30488C182.748 6.92602 182.532 6.62835 182.397 6.41186C182.234 6.19537 182.099 6.06006 181.964 5.97888C181.828 5.89769 181.72 5.84357 181.585 5.81651C181.477 5.78945 181.341 5.78945 181.125 5.78945H180.151V8.63088H179.23V8.65794ZM180.069 5.08586H181.882C182.261 5.08586 182.559 5.05879 182.775 4.97761C182.992 4.89643 183.154 4.76112 183.263 4.59875C183.371 4.43639 183.425 4.2199 183.425 4.03047C183.425 3.73279 183.317 3.48924 183.1 3.27275C182.884 3.08332 182.532 2.97508 182.072 2.97508H180.042V5.08586H180.069Z" fill="black"/>
<path d="M1.24492 43.0234H5.03349L4.54639 47.8403H3.89692L4.3299 43.5917H1.8132L1.38022 47.8403H0.757812L1.24492 43.0234Z" fill="black"/>
<path d="M5.41016 49.1937L5.89726 44.3497H6.43848L6.38436 44.8098C6.51967 44.6204 6.68204 44.5121 6.8444 44.4039C7.00677 44.3227 7.22326 44.2686 7.43975 44.2686C7.73743 44.2686 7.98098 44.3497 8.19747 44.5121C8.41396 44.6745 8.54926 44.891 8.65751 45.1616C8.73869 45.4322 8.76575 45.7569 8.73869 46.0817C8.71163 46.4335 8.60339 46.7582 8.44102 47.0559C8.27865 47.3535 8.08922 47.57 7.81861 47.7053C7.548 47.8677 7.30445 47.9218 7.03383 47.9218C6.8444 47.9218 6.65497 47.8677 6.51967 47.7865C6.38436 47.7053 6.24906 47.5971 6.16787 47.4618L6.0055 49.1666H5.41016V49.1937ZM6.24906 46.1087C6.19493 46.5688 6.24906 46.8935 6.41142 47.11C6.57379 47.3265 6.79028 47.4347 7.03383 47.4347C7.30445 47.4347 7.52093 47.3265 7.73742 47.11C7.95392 46.8935 8.08922 46.5417 8.11628 46.0817C8.17041 45.6487 8.08922 45.2969 7.95391 45.0804C7.79155 44.8639 7.57506 44.7557 7.33151 44.7557C7.08795 44.7557 6.8444 44.8639 6.62791 45.1075C6.41142 45.3239 6.27612 45.6757 6.24906 46.1087Z" fill="black"/>
<path d="M9.25182 46.1099C9.30597 45.4601 9.54964 44.9728 9.92868 44.6749C10.2536 44.4042 10.6326 44.2959 11.0658 44.2959C11.5532 44.2959 11.9322 44.4583 12.203 44.7562C12.4737 45.0811 12.582 45.5143 12.5278 46.0557C12.4737 46.516 12.3925 46.868 12.23 47.1117C12.0676 47.3824 11.851 47.5719 11.5802 47.7073C11.3095 47.8427 11.0117 47.9239 10.7138 47.9239C10.2265 47.9239 9.84746 47.7615 9.57671 47.4636C9.30597 47.1387 9.19767 46.7055 9.25182 46.1099ZM9.87454 46.1099C9.82039 46.5702 9.90161 46.8951 10.0641 47.1117C10.2265 47.3283 10.4702 47.4366 10.768 47.4366C11.0658 47.4366 11.3095 47.3283 11.5261 47.1117C11.7427 46.8951 11.8781 46.5431 11.9322 46.0828C11.9864 45.6496 11.9051 45.3247 11.7427 45.1081C11.5802 44.8915 11.3366 44.7832 11.0387 44.7832C10.7409 44.7832 10.4973 44.8915 10.2807 45.1081C10.037 45.3247 9.90161 45.6496 9.87454 46.1099Z" fill="black"/>
<path d="M15.5874 43.0234H16.1828L16.0204 44.7012C16.1557 44.5659 16.291 44.4577 16.4534 44.3765C16.6157 44.2953 16.7781 44.2683 16.9405 44.2683C17.3464 44.2683 17.6711 44.4306 17.8876 44.7824C18.1041 45.1342 18.1853 45.5672 18.1312 46.0814C18.077 46.6226 17.9147 47.0826 17.617 47.4074C17.3193 47.7321 16.9675 47.9215 16.5887 47.9215C16.4534 47.9215 16.3451 47.8945 16.2098 47.8674C16.0745 47.8403 15.9392 47.7321 15.7768 47.5427L15.6145 49.1934H15.0191L15.1815 47.5427C15.0462 47.678 14.9109 47.7592 14.7485 47.8403C14.5861 47.8945 14.4508 47.9486 14.2614 47.9486C13.8826 47.9486 13.5849 47.7862 13.3413 47.4615C13.0978 47.1368 13.0166 46.6767 13.0707 46.0814C13.1248 45.5672 13.2872 45.1613 13.5578 44.8095C13.8284 44.4577 14.1802 44.2953 14.6132 44.2953C14.7756 44.2953 14.9379 44.3224 15.0732 44.4036C15.2086 44.4847 15.3168 44.5659 15.425 44.7283L15.5874 43.0234ZM13.6661 46.0543C13.6119 46.5414 13.6661 46.8932 13.8014 47.1097C13.9367 47.3262 14.1532 47.4344 14.3967 47.4344C14.6403 47.4344 14.8568 47.3262 14.9921 47.1097C15.1274 46.8932 15.2356 46.5685 15.2897 46.1355C15.3439 45.6754 15.3168 45.3236 15.1815 45.1072C15.0732 44.8636 14.8838 44.7554 14.6132 44.7554C14.3697 44.7554 14.1532 44.8636 13.9908 45.1072C13.8014 45.3236 13.6931 45.6484 13.6661 46.0543ZM15.8851 46.1084C15.831 46.6226 15.858 47.0014 15.9933 47.1638C16.1286 47.3532 16.291 47.4344 16.5075 47.4344C16.751 47.4344 16.9675 47.3262 17.157 47.1097C17.3464 46.8932 17.4817 46.5414 17.5088 46.0814C17.5629 45.6484 17.5088 45.2966 17.3735 45.0801C17.2381 44.8636 17.0487 44.7554 16.8052 44.7554C16.5346 44.7554 16.3181 44.8636 16.1828 45.1072C16.0204 45.3236 15.9121 45.6484 15.8851 46.1084Z" fill="black"/>
<path d="M21.1679 46.7326L21.7636 46.8138C21.6282 47.1658 21.4116 47.4636 21.1409 47.6532C20.8701 47.8427 20.5181 47.951 20.112 47.951C19.5976 47.951 19.2186 47.7885 18.9478 47.4907C18.6771 47.1658 18.5688 46.7326 18.6229 46.164C18.6771 45.5684 18.8666 45.1081 19.2186 44.7832C19.5434 44.4583 19.9766 44.2959 20.4369 44.2959C20.8972 44.2959 21.2762 44.4583 21.547 44.7832C21.8177 45.1081 21.926 45.5413 21.8448 46.137C21.8448 46.164 21.8448 46.2182 21.8177 46.2994H19.2186C19.1915 46.6785 19.2727 46.9763 19.4622 47.1929C19.6247 47.4095 19.8683 47.4907 20.1662 47.4907C20.3828 47.4907 20.5723 47.4366 20.7347 47.3283C20.8972 47.1658 21.0326 46.9763 21.1679 46.7326ZM19.2998 45.7579H21.2492C21.2492 45.4601 21.195 45.2435 21.0867 45.1081C20.9243 44.8915 20.6806 44.7562 20.3828 44.7562C20.112 44.7562 19.8683 44.8374 19.6788 45.0269C19.4893 45.2164 19.3539 45.4601 19.2998 45.7579Z" fill="black"/>
<path d="M24.8158 46.5699L25.3844 46.6511C25.2761 47.0572 25.0866 47.3551 24.7888 47.5987C24.4909 47.8153 24.166 47.9507 23.787 47.9507C23.2997 47.9507 22.9477 47.7883 22.6769 47.4904C22.4062 47.1655 22.325 46.7323 22.3791 46.1367C22.4062 45.7577 22.5145 45.4328 22.6769 45.1349C22.8394 44.8642 23.0289 44.6476 23.2997 44.4852C23.5704 44.3498 23.8682 44.2686 24.166 44.2686C24.5451 44.2686 24.8429 44.3769 25.0595 44.5664C25.2761 44.7559 25.4115 45.0266 25.4385 45.3786L24.8429 45.4598C24.8158 45.2162 24.7346 45.0537 24.5992 44.9183C24.4639 44.81 24.3014 44.7288 24.1119 44.7288C23.8141 44.7288 23.5704 44.8371 23.3538 45.0537C23.1372 45.2703 23.0289 45.5952 22.9748 46.0826C22.9206 46.5428 22.9748 46.8948 23.1372 47.1114C23.2997 47.328 23.5163 47.4363 23.8141 47.4363C24.0577 47.4363 24.2473 47.3551 24.4097 47.2197C24.6263 47.0843 24.7617 46.8677 24.8158 46.5699Z" fill="black"/>
<path d="M28.226 46.5699L28.7946 46.6511C28.6863 47.0572 28.4967 47.3551 28.1989 47.5987C27.9011 47.8153 27.5762 47.9507 27.1972 47.9507C26.7098 47.9507 26.3578 47.7883 26.0871 47.4904C25.8163 47.1655 25.7351 46.7323 25.7893 46.1367C25.8163 45.7577 25.9246 45.4328 26.0871 45.1349C26.2495 44.8642 26.4391 44.6476 26.7098 44.4852C26.9806 44.3498 27.2784 44.2686 27.5762 44.2686C27.9552 44.2686 28.2531 44.3769 28.4697 44.5664C28.6863 44.7559 28.8216 45.0266 28.8487 45.3786L28.2531 45.4598C28.226 45.2162 28.1448 45.0537 28.0094 44.9183C27.874 44.81 27.7116 44.7288 27.5221 44.7288C27.2242 44.7288 26.9806 44.8371 26.764 45.0537C26.5474 45.2703 26.4391 45.5952 26.3849 46.0826C26.3308 46.5428 26.3849 46.8948 26.5474 47.1114C26.7098 47.328 26.9264 47.4363 27.2242 47.4363C27.4679 47.4363 27.6574 47.3551 27.8199 47.2197C28.0365 47.0843 28.1448 46.8677 28.226 46.5699Z" fill="black"/>
<path d="M29.5512 44.3486H30.1468L29.8761 47.029L31.7984 44.3486H32.4482L32.0962 47.8413H31.5006L31.7713 45.1879L29.849 47.8413H29.1992L29.5512 44.3486Z" fill="black"/>
<path d="M32.9315 46.1099C32.9857 45.4601 33.2293 44.9728 33.6084 44.6749C33.9333 44.4042 34.3123 44.2959 34.7455 44.2959C35.2329 44.2959 35.6119 44.4583 35.8826 44.7562C36.1534 45.0811 36.2617 45.5143 36.2075 46.0557C36.1534 46.516 36.0722 46.868 35.9097 47.1117C35.7473 47.3824 35.5307 47.5719 35.2599 47.7073C34.9892 47.8427 34.6914 47.9239 34.3935 47.9239C33.9062 47.9239 33.5272 47.7615 33.2564 47.4636C32.9857 47.1387 32.8774 46.7055 32.9315 46.1099ZM33.5542 46.1099C33.5001 46.5702 33.5813 46.8951 33.7437 47.1117C33.9062 47.3283 34.1499 47.4366 34.4477 47.4366C34.7455 47.4366 34.9892 47.3283 35.2058 47.1117C35.4224 46.8951 35.5577 46.5431 35.6119 46.0828C35.666 45.6496 35.5848 45.3247 35.4224 45.1081C35.2599 44.8915 35.0163 44.7832 34.7184 44.7832C34.4206 44.7832 34.1769 44.8915 33.9603 45.1081C33.7167 45.3247 33.5813 45.6496 33.5542 46.1099Z" fill="black"/>
<path d="M37.0981 44.3486H37.6937L37.5583 45.8107H39.2099L39.3453 44.3486H39.9409L39.5889 47.8413H38.9933L39.1557 46.298H37.5042L37.3417 47.8413H36.7461L37.0981 44.3486Z" fill="black"/>
<path d="M42.8126 47.4089C42.5689 47.5985 42.3523 47.7338 42.1358 47.8151C41.9192 47.8963 41.7026 47.9234 41.4589 47.9234C41.0798 47.9234 40.782 47.8421 40.5925 47.6526C40.403 47.4631 40.3218 47.2194 40.3488 46.9216C40.3759 46.7592 40.43 46.5967 40.5113 46.4613C40.5925 46.326 40.7279 46.2177 40.8632 46.1094C40.9986 46.0281 41.134 45.9469 41.3235 45.9198C41.4318 45.8928 41.6213 45.8657 41.865 45.8386C42.3523 45.7845 42.7043 45.7032 42.948 45.622C42.948 45.5408 42.9751 45.4866 42.9751 45.4596C43.0021 45.2159 42.948 45.0535 42.8668 44.9452C42.7314 44.8098 42.5148 44.7556 42.217 44.7556C41.9462 44.7556 41.7296 44.8098 41.5943 44.891C41.4589 44.9993 41.3235 45.1617 41.2423 45.4054L40.6737 45.3242C40.7549 45.0805 40.8632 44.8639 40.9986 44.7286C41.134 44.5661 41.3235 44.4578 41.5672 44.3766C41.8109 44.2954 42.0816 44.2412 42.3794 44.2412C42.6772 44.2412 42.9209 44.2683 43.1104 44.3495C43.3 44.4307 43.4083 44.512 43.4895 44.6203C43.5707 44.7286 43.6249 44.8639 43.6249 45.0264C43.6249 45.1347 43.6249 45.2971 43.5978 45.5679L43.5166 46.353C43.4624 46.8945 43.4353 47.2465 43.4624 47.4089C43.4624 47.5443 43.5166 47.7068 43.5707 47.8421H42.948C42.8397 47.7338 42.8397 47.5714 42.8126 47.4089ZM42.9209 46.0823C42.7043 46.1635 42.3794 46.2447 41.9192 46.2989C41.6755 46.326 41.486 46.3801 41.3777 46.4072C41.2694 46.4613 41.1881 46.5155 41.134 46.5967C41.0798 46.6779 41.0257 46.7862 41.0257 46.8675C40.9986 47.0299 41.0528 47.1653 41.1611 47.2736C41.2694 47.3819 41.4318 47.436 41.6755 47.436C41.8921 47.436 42.1087 47.3819 42.2982 47.2736C42.4877 47.1653 42.6231 47.0299 42.7314 46.8675C42.8126 46.7321 42.8668 46.5426 42.8938 46.2718L42.9209 46.0823Z" fill="black"/>
<path d="M44.8924 44.3486H47.654L47.302 47.8413H46.7064L47.0042 44.836H45.4339L45.2714 46.5688C45.2173 46.9749 45.1902 47.2456 45.1631 47.381C45.1361 47.5164 45.0278 47.6247 44.9195 47.733C44.7841 47.8413 44.6216 47.8683 44.378 47.8683C44.2426 47.8683 44.0801 47.8683 43.8906 47.8413L43.9448 47.3539H44.2155C44.3509 47.3539 44.4321 47.3539 44.4863 47.3268C44.5404 47.2998 44.5675 47.2727 44.5946 47.2185C44.6216 47.1644 44.6487 46.9749 44.6758 46.677L44.8924 44.3486Z" fill="black"/>
<path d="M48.5788 44.3486H49.1744L49.0391 45.7294H49.7972C50.2845 45.7294 50.6636 45.8107 50.9072 46.0002C51.1509 46.1897 51.2592 46.4605 51.2321 46.7854C51.205 47.0832 51.0697 47.3268 50.826 47.5434C50.5823 47.76 50.2304 47.8683 49.743 47.8683H48.2539L48.5788 44.3486ZM48.8495 47.3539H49.4723C49.8513 47.3539 50.1221 47.2998 50.2845 47.2185C50.447 47.1373 50.5553 46.9749 50.5553 46.7854C50.5823 46.6229 50.5282 46.4875 50.4199 46.3792C50.3116 46.2709 50.0679 46.1897 49.6618 46.1897H48.9578L48.8495 47.3539Z" fill="black"/>
<path d="M52.1215 44.3486H52.7171L52.5818 45.8107H54.2333L54.3687 44.3486H54.9643L54.6124 47.8413H54.0167L54.1792 46.298H52.5276L52.3652 47.8413H51.7695L52.1215 44.3486Z" fill="black"/>
<path d="M55.8599 44.3486H56.4552L56.3199 45.7288H57.0777C57.5648 45.7288 57.9436 45.8099 58.1872 45.9994C58.4307 46.1888 58.539 46.4594 58.5119 46.7841C58.4848 47.0818 58.3495 47.3254 58.106 47.5419C57.8624 47.7584 57.5106 47.8666 57.0235 47.8666H55.5352L55.8599 44.3486ZM56.1576 47.3524H56.78C57.1588 47.3524 57.4294 47.2983 57.5918 47.2171C57.7542 47.1359 57.8624 46.9736 57.8895 46.7841C57.9166 46.6218 57.8624 46.4865 57.7542 46.3782C57.6459 46.27 57.4024 46.1888 56.9965 46.1888H56.2929L56.1576 47.3524ZM59.1884 44.3486H59.7838L59.432 47.8395H58.8366L59.1884 44.3486Z" fill="black"/>
<path d="M62.8671 46.7326L63.4628 46.8138C63.3274 47.1658 63.1108 47.4636 62.8401 47.6532C62.5693 47.8427 62.2174 47.951 61.8112 47.951C61.2968 47.951 60.9178 47.7885 60.647 47.4907C60.3763 47.1658 60.268 46.7326 60.3221 46.164C60.3763 45.5684 60.5658 45.1081 60.9178 44.7832C61.2427 44.4583 61.6759 44.2959 62.1361 44.2959C62.5964 44.2959 62.9754 44.4583 63.2462 44.7832C63.5169 45.1081 63.6252 45.5413 63.544 46.137C63.544 46.164 63.544 46.2182 63.5169 46.2994H60.9178C60.8907 46.6785 60.9719 46.9763 61.1614 47.1929C61.3239 47.4095 61.5676 47.4907 61.8654 47.4907C62.082 47.4907 62.2715 47.4366 62.4339 47.3283C62.6235 47.1658 62.7588 46.9763 62.8671 46.7326ZM61.0261 45.7579H62.9754C62.9754 45.4601 62.9213 45.2435 62.813 45.1081C62.6505 44.8915 62.4069 44.7562 62.1091 44.7562C61.8383 44.7562 61.5946 44.8374 61.4051 45.0269C61.2156 45.2164 61.0802 45.4601 61.0261 45.7579Z" fill="black"/>
<path d="M68.4213 46.5699L68.9899 46.6511C68.8816 47.0572 68.692 47.3551 68.3942 47.5987C68.0964 47.8153 67.7715 47.9507 67.3925 47.9507C66.9051 47.9507 66.5532 47.7883 66.2824 47.4904C66.0117 47.1655 65.9304 46.7323 65.9846 46.1367C66.0117 45.7577 66.12 45.4328 66.2824 45.1349C66.4449 44.8642 66.6344 44.6476 66.9051 44.4852C67.1759 44.3498 67.4737 44.2686 67.7715 44.2686C68.1506 44.2686 68.4484 44.3769 68.665 44.5664C68.8816 44.7559 69.0169 45.0266 69.044 45.3786L68.4484 45.4598C68.4213 45.2162 68.3401 45.0537 68.2047 44.9183C68.0693 44.81 67.9069 44.7288 67.7174 44.7288C67.4195 44.7288 67.1759 44.8371 66.9593 45.0537C66.7427 45.2703 66.6344 45.5952 66.5802 46.0826C66.5261 46.5428 66.5802 46.8948 66.7427 47.1114C66.9051 47.328 67.1217 47.4363 67.4195 47.4363C67.6632 47.4363 67.8527 47.3551 68.0152 47.2197C68.2318 47.0843 68.3401 46.8677 68.4213 46.5699Z" fill="black"/>
<path d="M69.25 49.1937L69.7371 44.3497H70.2783L70.2242 44.8098C70.3595 44.6204 70.5219 44.5121 70.6842 44.4039C70.8466 44.3227 71.0631 44.2686 71.2796 44.2686C71.5773 44.2686 71.8208 44.3497 72.0373 44.5121C72.2538 44.6745 72.3891 44.891 72.4974 45.1616C72.5785 45.4322 72.6056 45.7569 72.5785 46.0817C72.5515 46.4335 72.4432 46.7582 72.2809 47.0559C72.1185 47.3535 71.9291 47.57 71.6585 47.7053C71.3878 47.8677 71.1443 47.9218 70.8737 47.9218C70.6842 47.9218 70.4948 47.8677 70.3595 47.7865C70.2242 47.7053 70.0889 47.5971 70.0077 47.4618L69.8453 49.1666H69.25V49.1937ZM70.0889 46.1087C70.0348 46.5688 70.0889 46.8935 70.2513 47.11C70.4136 47.3265 70.6301 47.4347 70.8737 47.4347C71.1443 47.4347 71.3608 47.3265 71.5773 47.11C71.7938 46.8935 71.9291 46.5417 71.9561 46.0817C72.0102 45.6487 71.9291 45.2969 71.7938 45.0804C71.6314 44.8639 71.4149 44.7557 71.1714 44.7557C70.9278 44.7557 70.6842 44.8639 70.4678 45.1075C70.2783 45.3239 70.143 45.6757 70.0889 46.1087Z" fill="black"/>
<path d="M75.664 46.7326L76.2597 46.8138C76.1243 47.1658 75.9077 47.4636 75.637 47.6532C75.3662 47.8427 75.0142 47.951 74.6081 47.951C74.0937 47.951 73.7147 47.7885 73.4439 47.4907C73.1732 47.1658 73.0649 46.7326 73.119 46.164C73.1732 45.5684 73.3627 45.1081 73.7147 44.7832C74.0395 44.4583 74.4727 44.2959 74.933 44.2959C75.3933 44.2959 75.7723 44.4583 76.0431 44.7832C76.3138 45.1081 76.4221 45.5413 76.3409 46.137C76.3409 46.164 76.3409 46.2182 76.3138 46.2994H73.7147C73.6876 46.6785 73.7688 46.9763 73.9583 47.1929C74.1208 47.4095 74.3644 47.4907 74.6623 47.4907C74.8789 47.4907 75.0684 47.4366 75.2308 47.3283C75.4204 47.1658 75.5557 46.9763 75.664 46.7326ZM73.8229 45.7579H75.7723C75.7723 45.4601 75.7182 45.2435 75.6099 45.1081C75.4474 44.8915 75.2038 44.7562 74.9059 44.7562C74.6352 44.7562 74.3915 44.8374 74.202 45.0269C73.9854 45.2164 73.85 45.4601 73.8229 45.7579Z" fill="black"/>
<path d="M77.5835 44.3486H80.019L79.7214 47.3524H80.1002L79.9649 48.8408H79.4778L79.5861 47.8395H76.8258L76.7176 48.8408H76.2305L76.3658 47.3524H76.6905C77.1776 46.7841 77.4753 45.7829 77.5835 44.3486ZM78.0436 44.8357C77.8812 45.9723 77.6377 46.8112 77.2588 47.3524H79.126L79.3696 44.8357H78.0436Z" fill="black"/>
<path d="M83.1361 46.5699L83.7047 46.6511C83.5964 47.0572 83.4069 47.3551 83.1091 47.5987C82.8112 47.8153 82.4864 47.9507 82.1073 47.9507C81.62 47.9507 81.268 47.7883 80.9973 47.4904C80.7265 47.1655 80.6453 46.7323 80.6994 46.1367C80.7265 45.7577 80.8348 45.4328 80.9973 45.1349C81.1597 44.8642 81.3492 44.6476 81.62 44.4852C81.8907 44.3498 82.1885 44.2686 82.4864 44.2686C82.8654 44.2686 83.1632 44.3769 83.3798 44.5664C83.5964 44.7559 83.7318 45.0266 83.7589 45.3786L83.1632 45.4598C83.1361 45.2162 83.0549 45.0537 82.9196 44.9183C82.7842 44.81 82.6217 44.7288 82.4322 44.7288C82.1344 44.7288 81.8907 44.8371 81.6741 45.0537C81.4575 45.2703 81.3492 45.5952 81.2951 46.0826C81.2409 46.5428 81.2951 46.8948 81.4575 47.1114C81.62 47.328 81.8366 47.4363 82.1344 47.4363C82.3781 47.4363 82.5676 47.3551 82.73 47.2197C82.9466 47.0843 83.082 46.8677 83.1361 46.5699Z" fill="black"/>
<path d="M84.1596 44.3486H87.0025L86.9483 44.836H85.8112L85.5134 47.8413H84.9177L85.2155 44.836H84.1055L84.1596 44.3486Z" fill="black"/>
<path d="M87.5981 44.3486H88.9789C89.3038 44.3486 89.5745 44.3757 89.7099 44.4299C89.8723 44.484 90.0077 44.5923 90.0889 44.7277C90.1972 44.8901 90.2243 45.0526 90.2243 45.2692C90.1972 45.4316 90.1702 45.5941 90.0889 45.7024C90.0077 45.8377 89.8994 45.919 89.737 46.0002C89.8994 46.0543 90.0348 46.1626 90.116 46.298C90.1972 46.4605 90.2514 46.6229 90.2243 46.8395C90.1702 47.1644 90.0348 47.4081 89.7911 47.5705C89.5474 47.733 89.2496 47.8142 88.8164 47.8142H87.2461L87.5981 44.3486ZM87.8688 47.3539H88.654C88.9789 47.3539 89.2225 47.3268 89.3579 47.2456C89.4933 47.1644 89.5745 47.029 89.6016 46.8395C89.6016 46.7312 89.5745 46.6229 89.5204 46.5146C89.4662 46.4063 89.3579 46.3522 89.2496 46.3251C89.1413 46.298 88.9518 46.298 88.681 46.298H87.95L87.8688 47.3539ZM88.0313 45.8107H88.654C88.8976 45.8107 89.0872 45.7836 89.1684 45.7836C89.2767 45.7565 89.3579 45.7024 89.4391 45.6211C89.5204 45.5399 89.5745 45.4316 89.5745 45.3233C89.6016 45.1338 89.5474 44.9984 89.4121 44.9443C89.2767 44.8631 89.0601 44.836 88.7623 44.836H88.1125L88.0313 45.8107Z" fill="black"/>
<path d="M93.0939 47.4089C92.8502 47.5985 92.6336 47.7338 92.417 47.8151C92.2004 47.8963 91.9838 47.9234 91.7401 47.9234C91.3611 47.9234 91.0633 47.8421 90.8737 47.6526C90.6842 47.4631 90.603 47.2194 90.6301 46.9216C90.6572 46.7592 90.7113 46.5967 90.7925 46.4613C90.8737 46.326 91.0091 46.2177 91.1445 46.1094C91.2799 46.0281 91.4152 45.9469 91.6048 45.9198C91.7131 45.8928 91.9026 45.8657 92.1463 45.8386C92.6336 45.7845 92.9856 45.7032 93.2292 45.622C93.2292 45.5408 93.2563 45.4866 93.2563 45.4596C93.2834 45.2159 93.2292 45.0535 93.148 44.9452C93.0126 44.8098 92.796 44.7556 92.4982 44.7556C92.2275 44.7556 92.0109 44.8098 91.8755 44.891C91.7401 44.9993 91.6048 45.1617 91.5235 45.4054L90.955 45.3242C91.0362 45.0805 91.1445 44.8639 91.2799 44.7286C91.4152 44.5661 91.6048 44.4578 91.8484 44.3766C92.0921 44.2954 92.3629 44.2412 92.6607 44.2412C92.9585 44.2412 93.2022 44.2683 93.3917 44.3495C93.5812 44.4307 93.6895 44.512 93.7707 44.6203C93.852 44.7286 93.9061 44.8639 93.9061 45.0264C93.9061 45.1347 93.9061 45.2971 93.879 45.5679L93.7978 46.353C93.7437 46.8945 93.7166 47.2465 93.7437 47.4089C93.7437 47.5443 93.7978 47.7068 93.852 47.8421H93.2292C93.1209 47.7338 93.0939 47.5714 93.0939 47.4089ZM93.1751 46.0823C92.9585 46.1635 92.6336 46.2447 92.1733 46.2989C91.9297 46.326 91.7401 46.3801 91.6318 46.4072C91.5235 46.4613 91.4423 46.5155 91.3882 46.5967C91.334 46.6779 91.2799 46.7862 91.2799 46.8675C91.2528 47.0299 91.3069 47.1653 91.4152 47.2736C91.5235 47.3819 91.686 47.436 91.9297 47.436C92.1463 47.436 92.3629 47.3819 92.5524 47.2736C92.7419 47.1653 92.8773 47.0299 92.9856 46.8675C93.0668 46.7321 93.1209 46.5426 93.148 46.2718L93.1751 46.0823Z" fill="black"/>
<path d="M96.7465 44.3486H97.3421L97.0714 47.029L98.9937 44.3486H99.6435L99.2915 47.8413H98.6959L98.9666 45.1879L97.0443 47.8413H96.3945L96.7465 44.3486Z" fill="black"/>
<path d="M100.532 44.3486H101.127L100.992 45.8107H102.643L102.779 44.3486H103.375L103.023 47.8413H102.427L102.589 46.298H100.938L100.775 47.8413H100.18L100.532 44.3486Z" fill="black"/>
<path d="M104.728 44.3486H107.164L106.866 47.3524H107.245L107.109 48.8408H106.622L106.731 47.8395H103.97L103.862 48.8408H103.375L103.51 47.3524H103.835C104.295 46.7841 104.62 45.7829 104.728 44.3486ZM105.188 44.8357C105.026 45.9723 104.782 46.8112 104.403 47.3524H106.271L106.514 44.8357H105.188Z" fill="black"/>
<path d="M108.219 44.3486H108.815L108.544 47.029L110.466 44.3486H111.116L110.764 47.8413H110.169L110.439 45.1879L108.517 47.8413H107.867L108.219 44.3486Z" fill="black"/>
<path d="M112.004 44.3486H113.385C113.71 44.3486 113.98 44.3757 114.116 44.4299C114.278 44.484 114.414 44.5923 114.495 44.7277C114.603 44.8901 114.63 45.0526 114.63 45.2692C114.603 45.4316 114.576 45.5941 114.468 45.7024C114.387 45.8377 114.278 45.919 114.116 46.0002C114.278 46.0543 114.414 46.1626 114.495 46.298C114.576 46.4605 114.63 46.6229 114.603 46.8395C114.549 47.1644 114.414 47.4081 114.17 47.5705C113.926 47.733 113.629 47.8142 113.195 47.8142H111.625L112.004 44.3486ZM112.302 47.3539H113.087C113.412 47.3539 113.656 47.3268 113.791 47.2456C113.926 47.1644 114.008 47.029 114.035 46.8395C114.035 46.7312 114.008 46.6229 113.953 46.5146C113.899 46.4063 113.791 46.3522 113.683 46.3251C113.574 46.298 113.385 46.298 113.114 46.298H112.383L112.302 47.3539ZM112.464 45.8107H113.087C113.331 45.8107 113.52 45.7836 113.601 45.7836C113.71 45.7565 113.791 45.7024 113.872 45.6211C113.953 45.5399 114.008 45.4316 114.008 45.3233C114.035 45.1338 113.98 44.9984 113.845 44.9443C113.71 44.8631 113.493 44.836 113.195 44.836H112.546L112.464 45.8107Z" fill="black"/>
<path d="M115.602 44.3486H116.198L115.927 47.029L117.849 44.3486H118.499L118.147 47.8413H117.551L117.822 45.1879L115.9 47.8413H115.25L115.602 44.3486Z" fill="black"/>
<path d="M119.857 44.3486H122.292L121.995 47.3524H122.374L122.238 48.8408H121.751L121.86 47.8395H119.099L118.991 48.8408H118.504L118.639 47.3524H118.964C119.451 46.7841 119.749 45.7829 119.857 44.3486ZM120.317 44.8357C120.155 45.9723 119.911 46.8112 119.532 47.3524H121.399L121.643 44.8357H120.317Z" fill="black"/>
<path d="M122.836 49.1939V48.6256C122.971 48.6526 123.079 48.6797 123.161 48.6797C123.296 48.6797 123.404 48.6526 123.485 48.6256C123.567 48.5715 123.648 48.5173 123.702 48.4361C123.756 48.382 123.81 48.2197 123.918 48.0032C123.945 47.9761 123.945 47.922 123.973 47.8679L122.998 44.377H123.648L124.162 46.4065C124.243 46.6501 124.297 46.9207 124.324 47.2184C124.433 46.9478 124.514 46.6772 124.649 46.4336L125.596 44.404H126.192L124.514 47.949C124.324 48.3279 124.189 48.5985 124.108 48.7338C123.973 48.9232 123.837 49.0586 123.702 49.1668C123.567 49.248 123.377 49.3021 123.188 49.3021C123.107 49.275 122.971 49.248 122.836 49.1939Z" fill="black"/>
<path d="M128.645 47.4089C128.401 47.5985 128.184 47.7338 127.968 47.8151C127.751 47.8963 127.535 47.9234 127.291 47.9234C126.912 47.9234 126.614 47.8421 126.425 47.6526C126.235 47.4631 126.154 47.2194 126.181 46.9216C126.208 46.7592 126.262 46.5967 126.343 46.4613C126.425 46.326 126.56 46.2177 126.695 46.1094C126.831 46.0281 126.966 45.9469 127.156 45.9198C127.264 45.8928 127.453 45.8657 127.697 45.8386C128.184 45.7845 128.536 45.7032 128.78 45.622C128.78 45.5408 128.807 45.4866 128.807 45.4596C128.834 45.2159 128.78 45.0535 128.699 44.9452C128.563 44.8098 128.347 44.7556 128.049 44.7556C127.778 44.7556 127.562 44.8098 127.426 44.891C127.291 44.9993 127.156 45.1617 127.074 45.4054L126.506 45.3242C126.587 45.0805 126.695 44.8639 126.831 44.7286C126.966 44.5661 127.156 44.4578 127.399 44.3766C127.643 44.2954 127.914 44.2412 128.211 44.2412C128.509 44.2412 128.753 44.2683 128.942 44.3495C129.132 44.4307 129.24 44.512 129.322 44.6203C129.403 44.7286 129.457 44.8639 129.457 45.0264C129.457 45.1347 129.457 45.2971 129.43 45.5679L129.349 46.353C129.294 46.8945 129.267 47.2465 129.294 47.4089C129.294 47.5443 129.349 47.7068 129.403 47.8421H128.78C128.672 47.7338 128.645 47.5714 128.645 47.4089ZM128.726 46.0823C128.509 46.1635 128.184 46.2447 127.724 46.2989C127.48 46.326 127.291 46.3801 127.183 46.4072C127.074 46.4613 126.993 46.5155 126.939 46.5967C126.885 46.6779 126.831 46.7862 126.831 46.8675C126.804 47.0299 126.858 47.1653 126.966 47.2736C127.074 47.3819 127.237 47.436 127.48 47.436C127.697 47.436 127.914 47.3819 128.103 47.2736C128.293 47.1653 128.428 47.0299 128.536 46.8675C128.618 46.7321 128.672 46.5426 128.699 46.2718L128.726 46.0823Z" fill="black"/>
<path d="M130.736 44.3486H133.498L133.146 47.8413H132.55L132.848 44.836H131.278L131.115 46.5688C131.061 46.9749 131.034 47.2456 131.007 47.381C130.98 47.5164 130.872 47.6247 130.763 47.733C130.628 47.8413 130.465 47.8683 130.222 47.8683C130.086 47.8683 129.924 47.8683 129.734 47.8413L129.789 47.3539H130.059C130.195 47.3539 130.276 47.3539 130.33 47.3268C130.384 47.2998 130.411 47.2727 130.438 47.2185C130.465 47.1644 130.492 46.9749 130.52 46.677L130.736 44.3486Z" fill="black"/>
<path d="M134.391 44.3486H134.987L134.852 45.7294H135.61C136.097 45.7294 136.476 45.8107 136.72 46.0002C136.963 46.1897 137.072 46.4605 137.045 46.7854C137.018 47.0832 136.882 47.3268 136.638 47.5434C136.395 47.76 136.043 47.8683 135.556 47.8683H134.066L134.391 44.3486ZM134.689 47.3539H135.312C135.691 47.3539 135.962 47.2998 136.124 47.2185C136.287 47.1373 136.395 46.9749 136.395 46.7854C136.422 46.6229 136.368 46.4875 136.259 46.3792C136.151 46.2709 135.907 46.1897 135.501 46.1897H134.797L134.689 47.3539Z" fill="black"/>
<path d="M137.93 44.3486H138.526L138.39 45.8107H140.042L140.177 44.3486H140.773L140.421 47.8413H139.825L139.988 46.298H138.336L138.174 47.8413H137.578L137.93 44.3486Z" fill="black"/>
<path d="M141.264 46.1099C141.318 45.4601 141.561 44.9728 141.94 44.6749C142.265 44.4042 142.644 44.2959 143.078 44.2959C143.565 44.2959 143.944 44.4583 144.215 44.7562C144.485 45.0811 144.594 45.5143 144.54 46.0557C144.485 46.516 144.404 46.868 144.242 47.1117C144.079 47.3824 143.863 47.5719 143.592 47.7073C143.321 47.8427 143.023 47.9239 142.726 47.9239C142.238 47.9239 141.859 47.7615 141.588 47.4636C141.318 47.1387 141.209 46.7055 141.264 46.1099ZM141.886 46.1099C141.832 46.5702 141.913 46.8951 142.076 47.1117C142.238 47.3283 142.482 47.4366 142.78 47.4366C143.078 47.4366 143.321 47.3283 143.538 47.1117C143.754 46.8951 143.89 46.5431 143.944 46.0828C143.998 45.6496 143.917 45.3247 143.754 45.1081C143.592 44.8915 143.348 44.7832 143.05 44.7832C142.753 44.7832 142.509 44.8915 142.292 45.1081C142.049 45.3247 141.94 45.6496 141.886 46.1099Z" fill="black"/>
<path d="M145.43 44.3494H146.025L145.755 47.0285L147.676 44.3494H148.325L147.974 47.8403H147.378L147.649 45.1883L145.728 47.8403H145.078L145.43 44.3494ZM147.622 43.0234H148.028C147.974 43.2941 147.838 43.5105 147.676 43.6458C147.487 43.7812 147.27 43.8623 146.972 43.8623C146.702 43.8623 146.485 43.7812 146.323 43.6458C146.161 43.5105 146.079 43.2941 146.079 43.0234H146.485C146.512 43.1858 146.539 43.2941 146.648 43.3482C146.729 43.4294 146.837 43.4564 146.999 43.4564C147.189 43.4564 147.324 43.4294 147.405 43.3482C147.514 43.2941 147.595 43.1858 147.622 43.0234Z" fill="black"/>
<path d="M151.653 46.2707L151.707 45.8104C151.951 45.8104 152.14 45.8104 152.222 45.7833C152.303 45.7562 152.411 45.7021 152.492 45.6209C152.574 45.5396 152.628 45.4314 152.655 45.296C152.682 45.1335 152.628 44.9982 152.519 44.9169C152.411 44.8086 152.303 44.7816 152.113 44.7816C151.788 44.7816 151.518 44.9711 151.355 45.3772L150.814 45.296C151.057 44.6462 151.518 44.3213 152.195 44.3213C152.574 44.3213 152.844 44.4296 153.034 44.6191C153.223 44.8357 153.305 45.0794 153.278 45.3501C153.25 45.6479 153.088 45.8645 152.79 46.027C152.953 46.1353 153.088 46.2436 153.142 46.379C153.223 46.5143 153.25 46.7039 153.223 46.8934C153.196 47.2183 153.061 47.4619 152.79 47.6515C152.546 47.841 152.222 47.9493 151.815 47.9493C151.03 47.9493 150.597 47.5973 150.543 46.8934L151.112 46.7851C151.139 47.0017 151.22 47.1912 151.355 47.2995C151.491 47.4078 151.68 47.489 151.87 47.489C152.059 47.489 152.249 47.4349 152.384 47.3266C152.519 47.2183 152.601 47.0558 152.628 46.8934C152.655 46.758 152.601 46.6497 152.546 46.5414C152.465 46.4331 152.384 46.379 152.303 46.3519C152.222 46.3248 152.032 46.3248 151.788 46.3248C151.788 46.2707 151.734 46.2707 151.653 46.2707Z" fill="black"/>
<path d="M156.176 47.4089C155.932 47.5985 155.716 47.7338 155.499 47.8151C155.282 47.8963 155.066 47.9234 154.822 47.9234C154.443 47.9234 154.145 47.8421 153.956 47.6526C153.766 47.4631 153.685 47.2194 153.712 46.9216C153.739 46.7592 153.793 46.5967 153.875 46.4613C153.956 46.326 154.091 46.2177 154.227 46.1094C154.362 46.0281 154.497 45.9469 154.687 45.9198C154.795 45.8928 154.985 45.8657 155.228 45.8386C155.716 45.7845 156.068 45.7032 156.311 45.622C156.311 45.5408 156.338 45.4866 156.338 45.4596C156.365 45.2159 156.311 45.0535 156.23 44.9452C156.095 44.8098 155.878 44.7556 155.58 44.7556C155.31 44.7556 155.093 44.8098 154.958 44.891C154.822 44.9993 154.687 45.1617 154.606 45.4054L154.037 45.3242C154.118 45.0805 154.227 44.8639 154.362 44.7286C154.497 44.5932 154.687 44.4578 154.93 44.3766C155.174 44.2954 155.445 44.2412 155.743 44.2412C156.041 44.2412 156.284 44.2683 156.474 44.3495C156.663 44.4307 156.772 44.512 156.853 44.6203C156.934 44.7286 156.988 44.8639 156.988 45.0264C156.988 45.1347 156.988 45.2971 156.961 45.5679L156.88 46.353C156.826 46.8945 156.799 47.2465 156.826 47.4089C156.826 47.5443 156.88 47.7068 156.934 47.8421H156.311C156.203 47.7338 156.176 47.5714 156.176 47.4089ZM156.257 46.0823C156.041 46.1635 155.716 46.2447 155.255 46.2989C155.012 46.326 154.822 46.3801 154.714 46.4072C154.606 46.4613 154.524 46.5155 154.47 46.5967C154.416 46.6779 154.362 46.7862 154.362 46.8675C154.335 47.0299 154.389 47.1653 154.497 47.2736C154.606 47.3819 154.768 47.436 155.012 47.436C155.228 47.436 155.445 47.3819 155.634 47.2736C155.824 47.1653 155.959 47.0299 156.068 46.8675C156.149 46.7321 156.203 46.5426 156.23 46.2718L156.257 46.0823Z" fill="black"/>
<path d="M157.985 44.3486H158.58L158.283 47.3524H159.636L159.933 44.3486H160.529L160.231 47.3524H161.584L161.882 44.3486H162.477L162.179 47.3524H162.558L162.423 48.8408H161.936L162.044 47.8395H157.66L157.985 44.3486Z" fill="black"/>
<path d="M163.532 44.3486H164.127L163.857 47.029L165.779 44.3486H166.429L166.077 47.8413H165.481L165.752 45.1879L163.829 47.8413H163.18L163.532 44.3486Z" fill="black"/>
<path d="M166.991 44.3486H169.834L169.78 44.836H168.643L168.345 47.8413H167.749L168.047 44.836H166.91L166.991 44.3486Z" fill="black"/>
<path d="M170.438 44.3486H171.033L170.898 45.7288H171.656C172.143 45.7288 172.522 45.8099 172.765 45.9994C173.009 46.1888 173.117 46.4594 173.09 46.7841C173.063 47.0818 172.928 47.3254 172.684 47.5419C172.441 47.7584 172.089 47.8666 171.602 47.8666H170.113L170.438 44.3486ZM170.736 47.3524H171.358C171.737 47.3524 172.008 47.2983 172.17 47.2171C172.332 47.1359 172.441 46.9736 172.468 46.7841C172.495 46.6218 172.441 46.4865 172.332 46.3782C172.224 46.27 171.981 46.1888 171.575 46.1888H170.871L170.736 47.3524ZM173.767 44.3486H174.362L174.01 47.8395H173.415L173.767 44.3486Z" fill="black"/>
</svg>
